<?xml version="1.0" encoding="utf-8"?>
<!-- Generator: Adobe Illustrator 23.0.3, SVG Export Plug-In . SVG Version: 6.00 Build 0)  -->
<svg version="1.1" id="Layer_1" xmlns="http://www.w3.org/2000/svg" xmlns:xlink="http://www.w3.org/1999/xlink" x="0px" y="0px"
	 viewBox="0 0 80.7 80.8" style="enable-background:new 0 0 80.7 80.8;" xml:space="preserve">
<style type="text/css">
	.st0{fill:#FFFFFF;stroke:#1F3872;stroke-width:2;stroke-linecap:round;stroke-linejoin:round;stroke-miterlimit:10;}
	.st1{fill:#BACFEF;stroke:#1F3872;stroke-width:2;stroke-linecap:round;stroke-linejoin:round;stroke-miterlimit:10;}
	.st2{fill:none;stroke:#1F3872;stroke-width:2;stroke-linecap:round;stroke-linejoin:round;stroke-miterlimit:10;}
</style>
<rect x="11" y="36.2" transform="matrix(0.7071 -0.7071 0.7071 0.7071 -22.8827 37.8438)" class="st0" width="46.5" height="20.6"/>
<rect x="52.6" y="11.7" transform="matrix(0.7071 -0.7071 0.7071 0.7071 4.7658 49.3395)" class="st0" width="18.6" height="14.5"/>
<rect x="7.8" y="61.7" transform="matrix(0.7071 -0.7071 0.7071 0.7071 -43.4869 29.3364)" class="st1" width="11.7" height="10.9"/>
<line class="st2" x1="9.5" y1="71.3" x2="1" y2="79.8"/>
<path class="st0" d="M65.9,36L44.8,14.9c-1.3-1.3-3.4-1.3-4.7,0l0,0c-1.3,1.3-1.3,3.4,0,4.7l21.1,21.1c1.3,1.3,3.4,1.3,4.7,0l0,0
	C67.2,39.4,67.2,37.3,65.9,36z"/>
<path class="st0" d="M78.7,13.7L67,2c-1.3-1.3-3.4-1.3-4.7,0l0,0c-1.3,1.3-1.3,3.4,0,4.7L74,18.4c1.3,1.3,3.4,1.3,4.7,0l0,0
	C80,17.1,80,15,78.7,13.7z"/>
<rect x="15.2" y="46.3" transform="matrix(0.7071 -0.7071 0.7071 0.7071 -32.9549 33.7241)" class="st1" width="18" height="20.6"/>
<line class="st2" x1="45.1" y1="35.7" x2="49" y2="39.5"/>
<line class="st2" x1="40.6" y1="40.2" x2="44.5" y2="44.1"/>
<line class="st2" x1="36.1" y1="44.7" x2="39.9" y2="48.6"/>
<path class="st1" d="M59.2,73.4c0,3.5-2.8,6.3-6.3,6.3s-6.3-2.8-6.3-6.3s6.3-14.9,6.3-14.9S59.2,69.9,59.2,73.4z"/>
</svg>
