<?xml version="1.0" encoding="utf-8"?>
<!-- Generator: Adobe Illustrator 23.0.3, SVG Export Plug-In . SVG Version: 6.00 Build 0)  -->
<svg version="1.1" id="레이어_1" xmlns="http://www.w3.org/2000/svg" xmlns:xlink="http://www.w3.org/1999/xlink" x="0px"
	 y="0px" viewBox="0 0 512 512" style="enable-background:new 0 0 512 512;" xml:space="preserve">
<style type="text/css">
	.st0{fill:#1F3872;}
</style>
<path class="st0" d="M335,175L224,286.1L176.1,239c-9.4-9.4-24.6-9.4-33.9,0s-9.4,24.6,0,33.9l64,64c5.5,4.8,11.6,7.1,17.8,7.1
	s12.3-2.3,17-7l128-128c9.4-9.4,9.4-24.6,0-33.9S344.4,165.7,335,175z M256,0C114.6,0,0,114.6,0,256s114.6,256,256,256
	s256-114.6,256-256S397.4,0,256,0z M256,464c-114.7,0-208-93.3-208-208S141.3,48,256,48s208,93.3,208,208S370.7,464,256,464z"/>
</svg>
