<?xml version="1.0" encoding="utf-8"?>
<!-- Generator: Adobe Illustrator 23.0.3, SVG Export Plug-In . SVG Version: 6.00 Build 0)  -->
<svg version="1.1" id="Layer_1" xmlns="http://www.w3.org/2000/svg" xmlns:xlink="http://www.w3.org/1999/xlink" x="0px" y="0px"
	 viewBox="0 0 70.1 60.9" style="enable-background:new 0 0 70.1 60.9;" xml:space="preserve">
<style type="text/css">
	.st0{fill:#FFFFFF;stroke:#1F3872;stroke-width:2;stroke-linecap:round;stroke-linejoin:round;stroke-miterlimit:10;}
	.st1{fill:#1F3872;stroke:#1F3872;stroke-width:1.5;stroke-linecap:round;stroke-linejoin:round;stroke-miterlimit:10;}
	.st2{fill:#BACFEF;stroke:#1F3872;stroke-width:2;stroke-linecap:round;stroke-linejoin:round;stroke-miterlimit:10;}
	.st3{fill:#FFFFFF;stroke:#1F3872;stroke-miterlimit:10;}
</style>
<path class="st0" d="M5.8,33.1h10.7l7.8-0.4c2.6-0.1,5.2,0.8,7,2.6l5.8,5.6l-7.2,5.8l6.2,3l28.7-5.4c1.8-0.3,3.6,0.7,4.1,2.5v0
	c0.6,2-0.5,4.1-2.5,4.6l-28.6,8.2c-2.3,0.7-4.7,0.3-6.8-0.9l-18-11l-7.2-0.4"/>
<path class="st0" d="M31.6,35.6l5.5,5.3l8.8,3.5c1.3,0.5,2,1.8,1.8,3.1v0c-0.2,1.5-1.5,2.5-3,2.5l-8.6-0.2l-9.2-4.5"/>
<circle class="st1" cx="48.8" cy="16.7" r="15.9"/>
<rect x="7" y="32.7" class="st2" width="6" height="14.9"/>
<rect x="1" y="31.3" class="st2" width="8.2" height="17.8"/>
<path class="st3" d="M61.3,14.3h-2.6l1-3.5h-3.6l-0.9,3.5h-3.4l-1-3.5h-4l-1,3.5h-3.3l-0.9-3.5h-3.8l1,3.5h-2.6v3.2h3.6l2.3,7.7H46
	l2.2-7.7h1.3l2.3,7.7h3.8l2.3-7.7h3.5V14.3z M44.2,20.2l-0.7-2.8H45L44.2,20.2z M53.7,20.3l-0.8-2.8h1.6L53.7,20.3z"/>
</svg>
