<?xml version="1.0" encoding="utf-8"?>
<!-- Generator: Adobe Illustrator 23.0.3, SVG Export Plug-In . SVG Version: 6.00 Build 0)  -->
<svg version="1.1" id="Layer_1" xmlns="http://www.w3.org/2000/svg" xmlns:xlink="http://www.w3.org/1999/xlink" x="0px" y="0px"
	 viewBox="0 0 137.7 118.9" style="enable-background:new 0 0 137.7 118.9;" xml:space="preserve">
<style type="text/css">
	.st0{fill:#FFFFFF;}
	.st1{fill:none;stroke:#1F3872;stroke-width:3;stroke-linecap:round;stroke-linejoin:round;stroke-miterlimit:10;}
	.st2{fill:#BACFEF;}
	.st3{fill:#E2E2E2;}
	.st4{fill:#627BAF;}
	.st5{fill:#BACFEF;stroke:#1F3872;stroke-width:3;stroke-linecap:round;stroke-linejoin:round;stroke-miterlimit:10;}
	.st6{fill:#1F3872;}
</style>
<path class="st0" d="M1.5,1.5v94v10.9c0,6,4.9,10.9,10.9,10.9c6,0,10.9-4.9,10.9-10.9V95.5h57.8v-94H1.5z"/>
<path class="st1" d="M1.5,1.5v94v10.9c0,6,4.9,10.9,10.9,10.9c6,0,10.9-4.9,10.9-10.9V95.5h57.8v-94H1.5z"/>
<path class="st2" d="M92.3,95.5H81.3H23.5v10.9c0,6-4.9,10.9-10.9,10.9h10.9h57.8h10.9c6,0,10.9-4.9,10.9-10.9V95.5H92.3z"/>
<path class="st1" d="M92.3,95.5H81.3H23.5v10.9c0,6-4.9,10.9-10.9,10.9h10.9h57.8h10.9c6,0,10.9-4.9,10.9-10.9V95.5H92.3z"/>
<path class="st1" d="M132.4,34.5c2.4,2.4,2.4,6.2,0.2,8.6l-10.3,11.2"/>
<polygon class="st3" points="86.8,81.3 74.9,87 80.6,75 86.8,75 "/>
<polygon class="st1" points="86.8,81.3 74.9,87 80.6,75 86.8,75 "/>
<polyline class="st4" points="111.7,43.8 83.5,73.8 88.1,78.4 118.1,50.1 "/>
<polyline class="st5" points="111.7,43.8 83.5,73.8 88.1,78.4 118.1,50.1 "/>
<path class="st2" d="M118.1,50.1l-6.3-6.3l18.7-17.2c1.3-1.2,3.4-1.2,4.7,0.1c1.3,1.3,1.3,3.4,0.1,4.7L118.1,50.1z"/>
<path class="st1" d="M118.1,50.1l-6.3-6.3l18.7-17.2c1.3-1.2,3.4-1.2,4.7,0.1c1.3,1.3,1.3,3.4,0.1,4.7L118.1,50.1z"/>
<line class="st1" x1="27.2" y1="86.3" x2="45.2" y2="86.3"/>
<line class="st1" x1="62.8" y1="86.3" x2="68.6" y2="86.3"/>
<line class="st1" x1="14.4" y1="86.3" x2="20.2" y2="86.3"/>
<line class="st1" x1="27.2" y1="74.2" x2="41.5" y2="74.2"/>
<line class="st1" x1="62.8" y1="74.2" x2="68.6" y2="74.2"/>
<line class="st1" x1="14.4" y1="74.2" x2="20.2" y2="74.2"/>
<line class="st1" x1="27.2" y1="62" x2="37.6" y2="62"/>
<line class="st1" x1="62.8" y1="62" x2="68.6" y2="62"/>
<line class="st1" x1="14.4" y1="62" x2="20.2" y2="62"/>
<line class="st1" x1="27.2" y1="49.9" x2="55" y2="49.9"/>
<line class="st1" x1="62.8" y1="49.9" x2="68.6" y2="49.9"/>
<line class="st1" x1="14.4" y1="49.9" x2="20.2" y2="49.9"/>
<polygon class="st6" points="51.4,20.2 45.6,20.2 45.6,14.4 37.1,14.4 37.1,20.2 31.3,20.2 31.3,28.7 37.1,28.7 37.1,34.5 
	45.6,34.5 45.6,28.7 51.4,28.7 "/>
</svg>
