<?xml version="1.0" encoding="utf-8"?>
<!-- Generator: Adobe Illustrator 23.0.3, SVG Export Plug-In . SVG Version: 6.00 Build 0)  -->
<svg version="1.1" id="Layer_1" xmlns="http://www.w3.org/2000/svg" xmlns:xlink="http://www.w3.org/1999/xlink" x="0px" y="0px"
	 viewBox="0 0 85.5 78.8" style="enable-background:new 0 0 85.5 78.8;" xml:space="preserve">
<style type="text/css">
	.st0{fill:#FFFFFF;stroke:#1F3872;stroke-width:2;stroke-linecap:round;stroke-linejoin:round;stroke-miterlimit:10;}
	.st1{fill:#1F3872;stroke:#1F3872;stroke-width:2;stroke-linecap:round;stroke-linejoin:round;stroke-miterlimit:10;}
	.st2{fill:#FFFFFF;}
	.st3{fill:#BACFEF;stroke:#2F3C69;stroke-width:2;stroke-linecap:round;stroke-linejoin:round;stroke-miterlimit:10;}
	.st4{fill:#D7E7EE;stroke:#1F3872;stroke-width:2;stroke-linecap:round;stroke-linejoin:round;stroke-miterlimit:10;}
</style>
<rect x="19.3" y="18.5" class="st0" width="46.9" height="4"/>
<rect x="20.8" y="22.5" class="st0" width="44" height="55.3"/>
<rect x="1" y="33.5" class="st0" width="19.8" height="44.3"/>
<rect x="64.7" y="33.5" class="st0" width="19.8" height="44.3"/>
<rect x="34" y="1" class="st1" width="17.5" height="17.5"/>
<rect x="41.1" y="5.8" class="st2" width="3.3" height="8"/>
<rect x="38.8" y="8.1" class="st2" width="8" height="3.3"/>
<rect x="35.6" y="62.5" class="st3" width="7.2" height="15.2"/>
<rect x="42.8" y="62.5" class="st3" width="7.2" height="15.2"/>
<rect x="8.2" y="40.8" class="st4" width="5.3" height="5.3"/>
<rect x="27.4" y="30.8" class="st4" width="5.3" height="5.3"/>
<rect x="40.1" y="30.8" class="st4" width="5.3" height="5.3"/>
<rect x="52.8" y="30.8" class="st4" width="5.3" height="5.3"/>
<rect x="27.4" y="40.8" class="st4" width="5.3" height="5.3"/>
<rect x="40.1" y="40.8" class="st4" width="5.3" height="5.3"/>
<rect x="52.8" y="40.8" class="st4" width="5.3" height="5.3"/>
<rect x="27.4" y="50.9" class="st4" width="5.3" height="5.3"/>
<rect x="40.1" y="50.9" class="st4" width="5.3" height="5.3"/>
<rect x="52.8" y="50.9" class="st4" width="5.3" height="5.3"/>
<rect x="8.2" y="51.7" class="st4" width="5.3" height="5.3"/>
<rect x="8.2" y="62.5" class="st4" width="5.3" height="5.3"/>
<rect x="72" y="40.9" class="st4" width="5.3" height="5.3"/>
<rect x="72" y="51.7" class="st4" width="5.3" height="5.3"/>
<rect x="72" y="62.6" class="st4" width="5.3" height="5.3"/>
</svg>
