<?xml version="1.0" encoding="utf-8"?>
<!-- Generator: Adobe Illustrator 23.0.3, SVG Export Plug-In . SVG Version: 6.00 Build 0)  -->
<svg version="1.1" id="Layer_1" xmlns="http://www.w3.org/2000/svg" xmlns:xlink="http://www.w3.org/1999/xlink" x="0px" y="0px"
	 viewBox="0 0 75.9 71.5" style="enable-background:new 0 0 75.9 71.5;" xml:space="preserve">
<style type="text/css">
	.st0{fill:none;stroke:#BACFEF;stroke-width:2;stroke-linecap:round;stroke-linejoin:round;stroke-miterlimit:10;}
	.st1{fill:none;stroke:#1F3872;stroke-width:2;stroke-linecap:round;stroke-linejoin:round;stroke-miterlimit:10;}
	.st2{fill:#FFFFFF;stroke:#1F3872;stroke-width:2;stroke-linecap:round;stroke-linejoin:round;stroke-miterlimit:10;}
	.st3{fill:#BACFEF;stroke:#1F3872;stroke-width:2;stroke-linecap:round;stroke-linejoin:round;stroke-miterlimit:10;}
</style>
<path class="st0" d="M13.9,18.3V26c0,1.6,0.7,3,1.5,3h0c0.8,0,1.5,1.3,1.5,3v12"/>
<polyline class="st1" points="4.1,47.2 4.1,1 13.9,1 13.9,7.9 "/>
<rect x="1" y="23.7" class="st2" width="6.3" height="46.9"/>
<rect x="37.9" y="23.1" transform="matrix(5.577411e-11 -1 1 5.577411e-11 -15.7906 97.9289)" class="st2" width="6.3" height="67.6"/>
<rect x="68.6" y="60" class="st2" width="6.3" height="10.6"/>
<path class="st3" d="M64.9,40.7H20v13h54.9v-3.1C74.9,45.2,70.4,40.7,64.9,40.7z"/>
<rect x="7.3" y="40.7" class="st2" width="12.7" height="13"/>
<path class="st1" d="M13.9,18.3L13.9,18.3c-2,0-3.5-1.6-3.5-3.5V7.9h7.1v6.9C17.4,16.8,15.8,18.3,13.9,18.3z"/>
</svg>
