<?xml version="1.0" encoding="utf-8"?>
<!-- Generator: Adobe Illustrator 23.0.3, SVG Export Plug-In . SVG Version: 6.00 Build 0)  -->
<svg version="1.1" id="Layer_1" xmlns="http://www.w3.org/2000/svg" xmlns:xlink="http://www.w3.org/1999/xlink" x="0px" y="0px"
	 viewBox="0 0 83.5 84.2" style="enable-background:new 0 0 83.5 84.2;" xml:space="preserve">
<style type="text/css">
	.st0{fill:#FFFFFF;stroke:#1F3872;stroke-width:2;stroke-linecap:round;stroke-linejoin:round;stroke-miterlimit:10;}
	.st1{fill:#1F3872;}
	.st2{fill:#BACFEF;stroke:#1F3872;stroke-width:2;stroke-linecap:round;stroke-linejoin:round;stroke-miterlimit:10;}
</style>
<path class="st0" d="M33.4,83.2c-6.6,0-12-5.4-12-12V50.1c0-1.7,1.3-3,3-3s3,1.3,3,3v21.2c0,3.3,2.7,6,6,6c3.3,0,6-2.7,6-6V58.7
	c0-5.5,4.5-10,10-10c5.5,0,10,4.5,10,10v1.3c0,2.3,1.8,4.1,4.1,4.1s4.1-1.8,4.1-4.1V37.5c0-1.7,1.3-3,3-3s3,1.3,3,3v22.5
	c0,5.6-4.5,10.1-10.1,10.1s-10.1-4.5-10.1-10.1v-1.3c0-2.2-1.8-4-4-4c-2.2,0-4,1.8-4,4v12.5C45.3,77.8,40,83.2,33.4,83.2z"/>
<path class="st0" d="M24.4,49.3c-6.3,0-12.1-2.4-16.6-6.9C3.4,38,1,32.1,1,25.8V5.4c0-1.7,1.3-3,3-3h8.6c1.7,0,3,1.3,3,3
	c0,1.7-1.3,3-3,3H7v17.4c0,4.7,1.8,9,5.1,12.3c3.3,3.3,7.7,5.1,12.3,5.1c9.6,0,17.4-7.8,17.4-17.4V8.4h-5.6c-1.7,0-3-1.3-3-3
	c0-1.7,1.3-3,3-3h8.6c1.7,0,3,1.3,3,3v20.4C47.8,38.7,37.3,49.3,24.4,49.3z"/>
<path class="st1" d="M14.2,10.8L14.2,10.8c-1.7,0-3-1.4-3-3V3c0-1.7,1.4-3,3-3h0c1.7,0,3,1.4,3,3v4.8C17.2,9.5,15.9,10.8,14.2,10.8z
	"/>
<path class="st1" d="M34.7,10.8L34.7,10.8c1.7,0,3-1.4,3-3V3c0-1.7-1.4-3-3-3h0c-1.7,0-3,1.4-3,3v4.8C31.6,9.5,33,10.8,34.7,10.8z"
	/>
<polygon class="st2" points="34.5,40.2 14.3,40.2 14.3,48.6 20.6,48.6 20.6,54 28.3,54 28.3,48.6 34.5,48.6 "/>
<circle class="st2" cx="70.6" cy="26.3" r="11.9"/>
<circle class="st0" cx="70.6" cy="26.3" r="3.6"/>
</svg>
