<?xml version="1.0" encoding="utf-8"?>
<!-- Generator: Adobe Illustrator 23.0.3, SVG Export Plug-In . SVG Version: 6.00 Build 0)  -->
<svg version="1.1" id="Layer_1" xmlns="http://www.w3.org/2000/svg" xmlns:xlink="http://www.w3.org/1999/xlink" x="0px" y="0px"
	 viewBox="0 0 55.4 76.7" style="enable-background:new 0 0 55.4 76.7;" xml:space="preserve">
<style type="text/css">
	.st0{fill:#BACFEF;stroke:#1F3872;stroke-width:2;stroke-linecap:round;stroke-linejoin:round;stroke-miterlimit:10;}
	.st1{fill:#FFFFFF;stroke:#1F3872;stroke-width:2;stroke-linecap:round;stroke-linejoin:round;stroke-miterlimit:10;}
	.st2{fill:#1F3872;}
	.st3{fill:none;stroke:#BACFEF;stroke-width:2;stroke-linecap:round;stroke-linejoin:round;stroke-miterlimit:10;}
</style>
<rect x="1" y="9" class="st0" width="53.4" height="66.7"/>
<rect x="0.4" y="21.7" transform="matrix(-1.836970e-16 1 -1 -1.836970e-16 70.0828 14.69)" class="st1" width="54.7" height="41.4"/>
<path class="st1" d="M37.5,6.8c0-3.2-4.4-5.8-9.8-5.8s-9.8,2.6-9.8,5.8h-6.4v10.9h32.5V6.8H37.5z"/>
<rect x="25.9" y="22.7" class="st2" width="3.7" height="8.7"/>
<rect x="25.9" y="22.7" transform="matrix(4.356699e-11 -1 1 4.356699e-11 0.644 54.7491)" class="st2" width="3.7" height="8.7"/>
<rect x="12.1" y="36.5" class="st1" width="4.6" height="4.6"/>
<line class="st3" x1="21.2" y1="38.8" x2="43.2" y2="38.8"/>
<rect x="12.1" y="46.2" class="st1" width="4.6" height="4.6"/>
<line class="st3" x1="21.2" y1="48.5" x2="43.2" y2="48.5"/>
<rect x="12.1" y="55.8" class="st1" width="4.6" height="4.6"/>
<line class="st3" x1="21.2" y1="58.1" x2="43.2" y2="58.1"/>
</svg>
