<?xml version="1.0" encoding="utf-8"?>
<!-- Generator: Adobe Illustrator 23.0.3, SVG Export Plug-In . SVG Version: 6.00 Build 0)  -->
<svg version="1.1" id="Layer_1" xmlns="http://www.w3.org/2000/svg" xmlns:xlink="http://www.w3.org/1999/xlink" x="0px" y="0px"
	 viewBox="0 0 85.8 66.5" style="enable-background:new 0 0 85.8 66.5;" xml:space="preserve">
<style type="text/css">
	.st0{fill:#BACFEF;stroke:#1F3872;stroke-width:2;stroke-linecap:round;stroke-linejoin:round;stroke-miterlimit:10;}
	.st1{fill:#FFFFFF;stroke:#1F3872;stroke-width:2;stroke-linecap:round;stroke-linejoin:round;stroke-miterlimit:10;}
</style>
<path class="st0" d="M61.3,1c-9.2,0-16.7,7.5-16.7,16.7C44.6,8.5,37.1,1,27.9,1S11.2,8.5,11.2,17.7C11.2,30.6,17,42.8,27,51
	l17.6,14.5L62.2,51c10-8.2,15.7-20.4,15.7-33.3C77.9,8.5,70.5,1,61.3,1z"/>
<path class="st1" d="M42.3,51.5c-1.4,0-2.7-0.9-3.2-2.3l-8.1-23l-2.8,8.1c-0.5,1.4-1.8,2.3-3.2,2.3H4.4C2.5,36.5,1,35,1,33.2
	c0-1.9,1.5-3.4,3.4-3.4h18.2l5.1-15c0.5-1.4,1.7-2.3,3.2-2.3l0,0c1.4,0,2.7,0.9,3.2,2.3l8,22.8l4.6-14c0.4-1.4,1.7-2.3,3.1-2.3
	c1.4-0.1,2.7,0.8,3.2,2.2l4,10l2.7-3.6c0.6-0.8,1.6-1.3,2.7-1.3h19.1c1.9,0,3.4,1.5,3.4,3.4c0,1.9-1.5,3.4-3.4,3.4H64l-5.4,7.1
	c-0.7,1-2,1.5-3.2,1.3s-2.2-1-2.7-2.2l-2.5-6.8l-4.7,14.4C45,50.5,43.8,51.5,42.3,51.5L42.3,51.5z"/>
</svg>
