<svg width="13" height="13" viewBox="0 0 13 13" fill="none" xmlns="http://www.w3.org/2000/svg">
<g clip-path="url(#clip0_690_779)">
<path d="M12.5473 2.51191C12.5033 2.45926 12.4482 2.41691 12.3861 2.38785C12.3239 2.35879 12.2561 2.34374 12.1875 2.34375H2.73516L2.44863 0.769922C2.40939 0.553907 2.29557 0.358518 2.12703 0.217817C1.95849 0.0771173 1.74592 3.17311e-05 1.52637 0H0.46875C0.34443 0 0.225201 0.049386 0.137294 0.137294C0.049386 0.225201 0 0.34443 0 0.46875C0 0.59307 0.049386 0.712299 0.137294 0.800206C0.225201 0.888114 0.34443 0.9375 0.46875 0.9375H1.52344L3.02109 9.15762C3.06521 9.4014 3.17295 9.6292 3.3334 9.81797C3.11194 10.0248 2.9521 10.289 2.8716 10.5811C2.79109 10.8732 2.79308 11.182 2.87732 11.4731C2.96157 11.7641 3.12479 12.0262 3.34888 12.2302C3.57298 12.4342 3.84919 12.5721 4.14689 12.6287C4.44459 12.6853 4.75215 12.6583 5.03546 12.5508C5.31877 12.4433 5.56676 12.2594 5.75194 12.0195C5.93712 11.7796 6.05224 11.4932 6.08454 11.1918C6.11685 10.8905 6.06508 10.5862 5.93496 10.3125H8.59629C8.49142 10.532 8.43716 10.7723 8.4375 11.0156C8.4375 11.3401 8.53372 11.6573 8.714 11.9271C8.89427 12.1969 9.1505 12.4072 9.45028 12.5314C9.75007 12.6555 10.0799 12.688 10.3982 12.6247C10.7164 12.5614 11.0088 12.4052 11.2382 12.1757C11.4677 11.9463 11.6239 11.6539 11.6872 11.3357C11.7505 11.0174 11.718 10.6876 11.5939 10.3878C11.4697 10.088 11.2594 9.83177 10.9896 9.65149C10.7198 9.47122 10.4026 9.375 10.0781 9.375H4.40449C4.29472 9.37498 4.18843 9.33644 4.10416 9.26609C4.01989 9.19574 3.96298 9.09805 3.94336 8.99004L3.75762 7.96875H10.5545C10.8838 7.9687 11.2027 7.85307 11.4555 7.64202C11.7083 7.43097 11.879 7.13789 11.9379 6.81387L12.6504 2.89629C12.6625 2.82858 12.6595 2.75904 12.6416 2.69261C12.6238 2.62619 12.5916 2.56449 12.5473 2.51191ZM5.15625 11.0156C5.15625 11.1547 5.11501 11.2906 5.03775 11.4063C4.96049 11.5219 4.85068 11.612 4.7222 11.6652C4.59372 11.7184 4.45234 11.7324 4.31595 11.7052C4.17956 11.6781 4.05427 11.6111 3.95594 11.5128C3.85761 11.4145 3.79064 11.2892 3.76351 11.1528C3.73638 11.0164 3.7503 10.875 3.80352 10.7466C3.85674 10.6181 3.94686 10.5083 4.06249 10.431C4.17812 10.3537 4.31406 10.3125 4.45312 10.3125C4.63961 10.3125 4.81845 10.3866 4.95031 10.5184C5.08217 10.6503 5.15625 10.8291 5.15625 11.0156ZM10.7812 11.0156C10.7812 11.1547 10.74 11.2906 10.6628 11.4063C10.5855 11.5219 10.4757 11.612 10.3472 11.6652C10.2187 11.7184 10.0773 11.7324 9.94095 11.7052C9.80456 11.6781 9.67927 11.6111 9.58094 11.5128C9.48261 11.4145 9.41564 11.2892 9.38851 11.1528C9.36138 11.0164 9.37531 10.875 9.42852 10.7466C9.48174 10.6181 9.57186 10.5083 9.68749 10.431C9.80312 10.3537 9.93906 10.3125 10.0781 10.3125C10.2646 10.3125 10.4434 10.3866 10.5753 10.5184C10.7072 10.6503 10.7812 10.8291 10.7812 11.0156ZM11.0156 6.64629C10.9959 6.75459 10.9388 6.85252 10.8542 6.92291C10.7695 6.99329 10.6628 7.03165 10.5527 7.03125H3.58711L2.90566 3.28125H11.6256L11.0156 6.64629Z" fill="#0076FD"/>
</g>
<defs>
<clipPath id="clip0_690_779">
<rect width="13" height="13" fill="white"/>
</clipPath>
</defs>
</svg>
