<?xml version="1.0" encoding="utf-8"?>
<!-- Generator: Adobe Illustrator 23.0.3, SVG Export Plug-In . SVG Version: 6.00 Build 0)  -->
<svg version="1.1" id="Layer_1" xmlns="http://www.w3.org/2000/svg" xmlns:xlink="http://www.w3.org/1999/xlink" x="0px" y="0px"
	 viewBox="0 0 69.6 77.1" style="enable-background:new 0 0 69.6 77.1;" xml:space="preserve">
<style type="text/css">
	.st0{fill:#BACFEF;stroke:#1F3872;stroke-width:2;stroke-linecap:round;stroke-linejoin:round;stroke-miterlimit:10;}
	.st1{fill:#FFFFFF;stroke:#1F3872;stroke-width:2;stroke-linecap:round;stroke-linejoin:round;stroke-miterlimit:10;}
	.st2{fill:#1F3872;}
</style>
<path class="st0" d="M50,76.1H7c-3.3,0-6-2.7-6-6V7.9c0-3.3,2.7-6,6-6h43c3.3,0,6,2.7,6,6v62.2C56,73.4,53.3,76.1,50,76.1z"/>
<rect x="-1.6" y="18.5" transform="matrix(-1.836970e-16 1 -1 -1.836970e-16 67.5049 10.5325)" class="st1" width="60.2" height="41"/>
<rect x="14.5" y="1" class="st1" width="28" height="7.9"/>
<polygon class="st2" points="34.9,20.5 31.2,20.5 31.2,16.8 25.8,16.8 25.8,20.5 22.1,20.5 22.1,25.9 25.8,25.9 25.8,29.6 
	31.2,29.6 31.2,25.9 34.9,25.9 "/>
<rect x="13.6" y="33.6" class="st1" width="5.4" height="5.4"/>
<line class="st1" x1="24.5" y1="36.3" x2="43.4" y2="36.3"/>
<rect x="13.6" y="44.2" class="st1" width="5.4" height="5.4"/>
<line class="st1" x1="24.5" y1="46.9" x2="43.4" y2="46.9"/>
<rect x="13.6" y="54.8" class="st1" width="5.4" height="5.4"/>
<line class="st1" x1="24.5" y1="57.5" x2="43.4" y2="57.5"/>
<rect x="50.5" y="26.5" transform="matrix(0.7071 0.7071 -0.7071 0.7071 46.9362 -25.1776)" class="st1" width="6.7" height="35.1"/>
<polygon class="st1" points="34.4,63.5 39.1,54.1 43.8,58.8 "/>
</svg>
