<svg width="11" height="13" viewBox="0 0 11 13" fill="none" xmlns="http://www.w3.org/2000/svg">
<g clip-path="url(#clip0_690_781)">
<path d="M10.1754 3.41836L6.89414 0.13711C6.85058 0.0935934 6.79887 0.0590869 6.74196 0.0355612C6.68506 0.0120355 6.62408 -4.82746e-05 6.5625 1.44937e-07H0.9375C0.68886 1.44937e-07 0.450403 0.0987721 0.274587 0.274587C0.098772 0.450403 0 0.68886 0 0.9375V11.25C0 11.4986 0.098772 11.7371 0.274587 11.9129C0.450403 12.0887 0.68886 12.1875 0.9375 12.1875H9.375C9.62364 12.1875 9.8621 12.0887 10.0379 11.9129C10.2137 11.7371 10.3125 11.4986 10.3125 11.25V3.75C10.3125 3.68842 10.3005 3.62744 10.2769 3.57054C10.2534 3.51364 10.2189 3.46192 10.1754 3.41836ZM7.03125 1.6002L8.71231 3.28125H7.03125V1.6002ZM9.375 11.25H0.9375V0.9375H6.09375V3.75C6.09375 3.87432 6.14314 3.99355 6.23104 4.08146C6.31895 4.16936 6.43818 4.21875 6.5625 4.21875H9.375V11.25ZM7.5 6.5625C7.5 6.68682 7.45061 6.80605 7.36271 6.89396C7.2748 6.98186 7.15557 7.03125 7.03125 7.03125H3.28125C3.15693 7.03125 3.0377 6.98186 2.94979 6.89396C2.86189 6.80605 2.8125 6.68682 2.8125 6.5625C2.8125 6.43818 2.86189 6.31895 2.94979 6.23104C3.0377 6.14314 3.15693 6.09375 3.28125 6.09375H7.03125C7.15557 6.09375 7.2748 6.14314 7.36271 6.23104C7.45061 6.31895 7.5 6.43818 7.5 6.5625ZM7.5 8.4375C7.5 8.56182 7.45061 8.68105 7.36271 8.76896C7.2748 8.85686 7.15557 8.90625 7.03125 8.90625H3.28125C3.15693 8.90625 3.0377 8.85686 2.94979 8.76896C2.86189 8.68105 2.8125 8.56182 2.8125 8.4375C2.8125 8.31318 2.86189 8.19395 2.94979 8.10604C3.0377 8.01814 3.15693 7.96875 3.28125 7.96875H7.03125C7.15557 7.96875 7.2748 8.01814 7.36271 8.10604C7.45061 8.19395 7.5 8.31318 7.5 8.4375Z" fill="#0076FD"/>
</g>
<defs>
<clipPath id="clip0_690_781">
<rect width="11" height="13" fill="white"/>
</clipPath>
</defs>
</svg>
