<?xml version="1.0" encoding="utf-8"?>
<!-- Generator: Adobe Illustrator 23.0.3, SVG Export Plug-In . SVG Version: 6.00 Build 0)  -->
<svg version="1.1" id="icons" xmlns="http://www.w3.org/2000/svg" xmlns:xlink="http://www.w3.org/1999/xlink" x="0px" y="0px"
	 viewBox="0 0 84.2 85" style="enable-background:new 0 0 84.2 85;" xml:space="preserve">
<style type="text/css">
	.st0{fill:#FFFFFF;}
</style>
<g>
	<path class="st0" d="M11,18.1c-6.1,0-11,4.9-11,11V74c0,6.1,4.9,11,11,11c6.1,0,11-4.9,11-11V29.2C22.1,23.1,17.1,18.1,11,18.1z"/>
	<path class="st0" d="M43.9,13.4h15.8c1.2,0,2.1-1,2.1-2.1s-1-2.1-2.1-2.1H43.9c-1.2,0-2.1,1-2.1,2.1S42.7,13.4,43.9,13.4z"/>
	<path class="st0" d="M43.9,21h15.8c1.2,0,2.1-1,2.1-2.1c0-1.2-1-2.1-2.1-2.1H43.9c-1.2,0-2.1,1-2.1,2.1C41.7,20,42.7,21,43.9,21z"
		/>
	<path class="st0" d="M72.8,22.7V0H30.7v21.9h-2.6v59.3h39.7c9.1,0,16.5-7.4,16.5-16.5V38.4C84.2,31.1,79.4,24.9,72.8,22.7z
		 M39.9,67.5c-2,0-3.6-1.6-3.6-3.6c0-2,1.6-3.6,3.6-3.6c2,0,3.6,1.6,3.6,3.6C43.4,65.9,41.8,67.5,39.9,67.5z M39.9,55.2
		c-2,0-3.6-1.6-3.6-3.6c0-2,1.6-3.6,3.6-3.6c2,0,3.6,1.6,3.6,3.6C43.4,53.6,41.8,55.2,39.9,55.2z M39.9,42.8c-2,0-3.6-1.6-3.6-3.6
		c0-2,1.6-3.6,3.6-3.6c2,0,3.6,1.6,3.6,3.6C43.4,41.2,41.8,42.8,39.9,42.8z M52.2,67.5c-2,0-3.6-1.6-3.6-3.6c0-2,1.6-3.6,3.6-3.6
		c2,0,3.6,1.6,3.6,3.6C55.8,65.9,54.2,67.5,52.2,67.5z M52.2,55.2c-2,0-3.6-1.6-3.6-3.6c0-2,1.6-3.6,3.6-3.6c2,0,3.6,1.6,3.6,3.6
		C55.8,53.6,54.2,55.2,52.2,55.2z M52.2,42.8c-2,0-3.6-1.6-3.6-3.6c0-2,1.6-3.6,3.6-3.6c2,0,3.6,1.6,3.6,3.6
		C55.8,41.2,54.2,42.8,52.2,42.8z M64.6,67.5c-2,0-3.6-1.6-3.6-3.6c0-2,1.6-3.6,3.6-3.6c2,0,3.6,1.6,3.6,3.6
		C68.1,65.9,66.5,67.5,64.6,67.5z M64.6,55.2c-2,0-3.6-1.6-3.6-3.6c0-2,1.6-3.6,3.6-3.6c2,0,3.6,1.6,3.6,3.6
		C68.1,53.6,66.5,55.2,64.6,55.2z M64.6,42.8c-2,0-3.6-1.6-3.6-3.6c0-2,1.6-3.6,3.6-3.6c2,0,3.6,1.6,3.6,3.6
		C68.1,41.2,66.5,42.8,64.6,42.8z M68.5,25.9H35V4.3h33.6V25.9z"/>
</g>
</svg>
