<?xml version="1.0" encoding="utf-8"?>
<!-- Generator: Adobe Illustrator 23.0.3, SVG Export Plug-In . SVG Version: 6.00 Build 0)  -->
<svg version="1.1" id="Layer_1" xmlns="http://www.w3.org/2000/svg" xmlns:xlink="http://www.w3.org/1999/xlink" x="0px" y="0px"
	 viewBox="0 0 54.6 53.5" style="enable-background:new 0 0 54.6 53.5;" xml:space="preserve">
<style type="text/css">
	.st0{fill:#FFFFFF;}
</style>
<g>
	<g>
		<g>
			<path class="st0" d="M39.4,16.8c0,0.1-0.1,0.3-0.3,0.3H34c-0.1,0-0.3,0.1-0.3,0.3v5.1c0,0.1-0.1,0.3-0.3,0.3h-3.7
				c-0.1,0-0.3-0.1-0.3-0.3v-5.1c0-0.1-0.1-0.3-0.3-0.3H24c-0.1,0-0.3-0.1-0.3-0.3V13c0-0.1,0.1-0.3,0.3-0.3h5.1
				c0.1,0,0.3-0.1,0.3-0.3V7.3c0-0.1,0.1-0.3,0.3-0.3h3.7c0.1,0,0.3,0.1,0.3,0.3v5.1c0,0.1,0.1,0.3,0.3,0.3h5.1
				c0.1,0,0.3,0.1,0.3,0.3V16.8z"/>
			<path class="st0" d="M31.6,30c-8.3,0-15-6.7-15-15s6.7-15,15-15s15,6.7,15,15S39.9,30,31.6,30z M31.6,2.5
				c-6.9,0-12.5,5.6-12.5,12.5s5.6,12.5,12.5,12.5S44.1,21.9,44.1,15S38.5,2.5,31.6,2.5z"/>
		</g>
		<path class="st0" d="M54,34.6c-0.5,0.5-1,0.9-1.5,1.3c-2.3,1.8-4.8,3.4-7.3,4.9c0,0-3.7,2.5-10.2,3c0,0-6.8-0.2-11.7-0.5
			c0,0-3.2-0.6-5.7,1.3L8.7,37l1.3-1.2c0,0,4.7-5.5,12.3-3.6c1.5,0.4,3.1,1.1,4.8,1.4c1.9,0.3,3.7,0.5,5.6,0.6
			c1.2,0.1,6.8,0.3,6.1,2.5c0,0.2-0.2,0.3-0.3,0.3c-5.6,1.5-8.6,1.3-8.6,1.3c-0.4,0-0.7,0.2-0.7,0.5s0.2,0.6,0.6,0.6
			c0,0,0.1,0,0.3,0c1.2,0.1,2.4-0.1,3.6-0.2c3.3-0.4,6.5-1.4,9.6-2.5c3.1-1.2,6-2.9,9.2-3.7c0.5-0.1,1.1-0.3,1.7-0.1
			C55.1,33.3,54.5,34.1,54,34.6z"/>
		<path class="st0" d="M17.5,46.2l-11-9.3c-1-0.9-2.5-0.7-3.4,0.3l-2.5,3c-0.9,1-0.7,2.5,0.3,3.4l11,9.3c1,0.9,2.5,0.7,3.4-0.3
			l2.5-3C18.6,48.6,18.5,47.1,17.5,46.2z"/>
	</g>
</g>
</svg>
