<?xml version="1.0" encoding="utf-8"?>
<!-- Generator: Adobe Illustrator 23.0.3, SVG Export Plug-In . SVG Version: 6.00 Build 0)  -->
<svg version="1.1" id="Layer_2" xmlns="http://www.w3.org/2000/svg" xmlns:xlink="http://www.w3.org/1999/xlink" x="0px" y="0px"
	 viewBox="0 0 58.9 55.5" style="enable-background:new 0 0 58.9 55.5;" xml:space="preserve">
<style type="text/css">
	.st0{fill:#FFFFFF;}
</style>
<g>
	<path class="st0" d="M20.4,23.5c-2.6,0-4.7-2.1-4.7-4.7l0,0l0-14.2c0-2.6,2.1-4.7,4.7-4.7l0,0h18.1c2.6,0,4.7,2.1,4.7,4.7l0,0v14.2
		c0,2.6-2.1,4.7-4.7,4.7l0,0H20.4L20.4,23.5z M20.4,4.7v14.2h18.1V4.7c0,0,0,0,0,0l0,0H20.4L20.4,4.7L20.4,4.7z"/>
</g>
<path class="st0" d="M56.6,11.9H2.3C1,11.9,0,13,0,14.3v38.9c0,1.3,1,2.3,2.3,2.3h54.3c1.3,0,2.3-1,2.3-2.3V14.3
	C58.9,13,57.9,11.9,56.6,11.9z M40.6,38.9h-6.5v6.6h-9.2v-6.6h-6.5v-9.2h6.5v-6.5h9.2v6.5h6.5V38.9z"/>
</svg>
