<svg width="14" height="12" viewBox="0 0 14 12" fill="none" xmlns="http://www.w3.org/2000/svg">
<path d="M9.49219 0C8.28223 0 7.22285 0.520312 6.5625 1.3998C5.90215 0.520312 4.84277 0 3.63281 0C2.66966 0.00108559 1.74627 0.384176 1.06523 1.06523C0.384176 1.74627 0.00108559 2.66966 0 3.63281C0 7.73437 6.08145 11.0543 6.34043 11.1914C6.40869 11.2281 6.48499 11.2473 6.5625 11.2473C6.64001 11.2473 6.71631 11.2281 6.78457 11.1914C7.04355 11.0543 13.125 7.73437 13.125 3.63281C13.1239 2.66966 12.7408 1.74627 12.0598 1.06523C11.3787 0.384176 10.4553 0.00108559 9.49219 0ZM6.5625 10.2422C5.49258 9.61875 0.9375 6.77871 0.9375 3.63281C0.93843 2.91826 1.2227 2.23323 1.72797 1.72797C2.23323 1.2227 2.91826 0.93843 3.63281 0.9375C4.77246 0.9375 5.7293 1.54453 6.12891 2.51953C6.16422 2.6055 6.2243 2.67904 6.3015 2.73079C6.37871 2.78254 6.46956 2.81017 6.5625 2.81017C6.65544 2.81017 6.74629 2.78254 6.8235 2.73079C6.9007 2.67904 6.96078 2.6055 6.99609 2.51953C7.3957 1.54277 8.35254 0.9375 9.49219 0.9375C10.2067 0.93843 10.8918 1.2227 11.397 1.72797C11.9023 2.23323 12.1866 2.91826 12.1875 3.63281C12.1875 6.77402 7.63125 9.61816 6.5625 10.2422Z" fill="#8D8D8D"/>
</svg>
