<?xml version="1.0" encoding="utf-8"?>
<!-- Generator: Adobe Illustrator 23.0.3, SVG Export Plug-In . SVG Version: 6.00 Build 0)  -->
<svg version="1.1" id="Layer_1" xmlns="http://www.w3.org/2000/svg" xmlns:xlink="http://www.w3.org/1999/xlink" x="0px" y="0px"
	 viewBox="0 0 20 20" style="enable-background:new 0 0 20 20;" xml:space="preserve">
<style type="text/css">
	.st0{fill:#43B7AD;}
</style>
<path class="st0" d="M10,12c-0.7,0-1.3,0.6-1.3,1.3s0.6,1.3,1.3,1.3s1.3-0.6,1.3-1.3S10.7,12,10,12z M10,10.5c0.6,0,1-0.4,1-1v-3
	c0-0.6-0.4-1-1-1s-1,0.4-1,1v3C9,10.1,9.4,10.5,10,10.5z M10,0C4.5,0,0,4.5,0,10s4.5,10,10,10s10-4.5,10-10C20,4.5,15.5,0,10,0z
	 M10,18c-4.4,0-8-3.6-8-8s3.6-8,8-8s8,3.6,8,8C18,14.4,14.4,18,10,18z"/>
</svg>
