<svg width="14" height="14" viewBox="0 0 14 14" fill="none" xmlns="http://www.w3.org/2000/svg">
<path d="M0 0.777778C0 0.348227 0.348227 0 0.777778 0H5.44444C5.87401 0 6.22222 0.348227 6.22222 0.777778V5.44444C6.22222 5.87401 5.87401 6.22222 5.44444 6.22222H0.777778C0.348227 6.22222 0 5.87401 0 5.44444V0.777778ZM0 8.55556C0 8.12599 0.348227 7.77778 0.777778 7.77778H5.44444C5.87401 7.77778 6.22222 8.12599 6.22222 8.55556V13.2222C6.22222 13.6518 5.87401 14 5.44444 14H0.777778C0.348227 14 0 13.6518 0 13.2222V8.55556ZM7.77778 0.777778C7.77778 0.348227 8.12599 0 8.55556 0H13.2222C13.6518 0 14 0.348227 14 0.777778V5.44444C14 5.87401 13.6518 6.22222 13.2222 6.22222H8.55556C8.12599 6.22222 7.77778 5.87401 7.77778 5.44444V0.777778ZM7.77778 8.55556C7.77778 8.12599 8.12599 7.77778 8.55556 7.77778H13.2222C13.6518 7.77778 14 8.12599 14 8.55556V13.2222C14 13.6518 13.6518 14 13.2222 14H8.55556C8.12599 14 7.77778 13.6518 7.77778 13.2222V8.55556ZM9.33333 1.55556V4.66667H12.4444V1.55556H9.33333ZM9.33333 9.33333V12.4444H12.4444V9.33333H9.33333ZM1.55556 1.55556V4.66667H4.66667V1.55556H1.55556ZM1.55556 9.33333V12.4444H4.66667V9.33333H1.55556Z" fill="#0076FD"/>
</svg>
