<svg width="13" height="12" viewBox="0 0 13 12" fill="none" xmlns="http://www.w3.org/2000/svg">
<path d="M3.61111 0.35503H13V1.77515H3.61111V0.35503ZM1.08333 2.13018C0.485023 2.13018 0 1.65332 0 1.06509C0 0.476854 0.485023 0 1.08333 0C1.68164 0 2.16667 0.476854 2.16667 1.06509C2.16667 1.65332 1.68164 2.13018 1.08333 2.13018ZM1.08333 7.10059C0.485023 7.10059 0 6.62372 0 6.0355C0 5.44729 0.485023 4.97041 1.08333 4.97041C1.68164 4.97041 2.16667 5.44729 2.16667 6.0355C2.16667 6.62372 1.68164 7.10059 1.08333 7.10059ZM1.08333 12C0.485023 12 0 11.5231 0 10.9349C0 10.3467 0.485023 9.86982 1.08333 9.86982C1.68164 9.86982 2.16667 10.3467 2.16667 10.9349C2.16667 11.5231 1.68164 12 1.08333 12ZM3.61111 5.32544H13V6.74556H3.61111V5.32544ZM3.61111 10.2959H13V11.716H3.61111V10.2959Z" fill="#222222"/>
</svg>
