<svg width="11" height="11" viewBox="0 0 11 11" fill="none" xmlns="http://www.w3.org/2000/svg">
<path d="M5.5 0C6.22935 0 6.92882 0.289731 7.44454 0.805456C7.96027 1.32118 8.25 2.02065 8.25 2.75C8.25 3.47935 7.96027 4.17882 7.44454 4.69454C6.92882 5.21027 6.22935 5.5 5.5 5.5C4.77065 5.5 4.07118 5.21027 3.55546 4.69454C3.03973 4.17882 2.75 3.47935 2.75 2.75C2.75 2.02065 3.03973 1.32118 3.55546 0.805456C4.07118 0.289731 4.77065 0 5.5 0ZM5.5 11C5.5 11 11 11 11 9.625C11 7.975 8.31875 6.1875 5.5 6.1875C2.68125 6.1875 0 7.975 0 9.625C0 11 5.5 11 5.5 11Z" fill="#A2A2A2"/>
</svg>
