<?xml version="1.0" encoding="utf-8"?>
<!-- Generator: Adobe Illustrator 23.0.3, SVG Export Plug-In . SVG Version: 6.00 Build 0)  -->
<svg version="1.1" id="Icons" xmlns="http://www.w3.org/2000/svg" xmlns:xlink="http://www.w3.org/1999/xlink" x="0px" y="0px"
	 viewBox="0 0 108 114" style="enable-background:new 0 0 108 114;" xml:space="preserve">
<style type="text/css">
	.st0{fill:#43B7AD;}
	.st1{fill:none;stroke:#1E1E1E;stroke-width:4;stroke-linecap:round;stroke-linejoin:round;stroke-miterlimit:10;}
	.st2{fill:none;stroke:#FFFFFF;stroke-width:2;stroke-linecap:round;stroke-linejoin:round;stroke-miterlimit:10;}
</style>
<g>
	<circle class="st0" cx="74" cy="80" r="31"/>
</g>
<path class="st1" d="M52,56V15C51.7,7.8,45.8,2,38.5,2c-7,0-12.7,5.3-13.4,12c-0.2,0-0.4,0-0.6,0C17,14,11,20,11,27.5
	c0,0.9,0.1,1.7,0.3,2.6C5.7,33,2,38.8,2,45.5c0,5.8,2.9,11,7.3,14.2c-2,2.4-3.3,5.4-3.3,8.8c0,5.1,2.9,9.6,7.1,11.9
	c-0.7,1.9-1.1,4-1.1,6.1c0,9.1,7,16.6,16,17.4c2.5,3.1,6.3,5.1,10.5,5.1c4.9,0,9.2-2.6,11.6-6.5"/>
<path class="st1" d="M52,15c0.3-7.2,6.2-13,13.5-13c7,0,12.7,5.3,13.4,12c0.2,0,0.4,0,0.6,0C87,14,93,20,93,27.5
	c0,0.9-0.1,1.7-0.3,2.6c5.5,2.9,9.3,8.8,9.3,15.4c0,4.3-1.6,8.2-4.1,11.3"/>
<path class="st1" d="M31.1,34.8c-3-3.6-7.5-5.8-12.6-5.8C9.4,29,2,36.4,2,45.5"/>
<path class="st1" d="M34,25c0-5,4-9,9-9"/>
<path class="st1" d="M28.5,104.5c-2.2-4.4-0.4-9.9,4-12.1"/>
<path class="st1" d="M31,68.5C31,75.4,25.4,81,18.5,81C11.6,81,6,75.4,6,68.5"/>
<path class="st1" d="M23,57.5C23,51.7,27.7,47,33.5,47S44,51.7,44,57.5"/>
<path class="st1" d="M72.9,34.8c3-3.6,7.5-5.8,12.6-5.8c9.1,0,16.5,7.4,16.5,16.5"/>
<path class="st1" d="M70,25c0-5-4-9-9-9"/>
<polygon class="st2" points="60.5,82.3 73.5,82.3 66.1,100.8 87.5,75.8 73.5,75.8 81,58.2 "/>
<circle class="st1" cx="74" cy="80" r="32"/>
</svg>
