<?xml version="1.0" encoding="utf-8"?>
<!-- Generator: Adobe Illustrator 23.0.3, SVG Export Plug-In . SVG Version: 6.00 Build 0)  -->
<svg version="1.1" id="Icons" xmlns="http://www.w3.org/2000/svg" xmlns:xlink="http://www.w3.org/1999/xlink" x="0px" y="0px"
	 viewBox="0 0 12.1 12" style="enable-background:new 0 0 12.1 12;" xml:space="preserve">
<style type="text/css">
	.st0{fill:#FFFFFF;}
	.st1{fill:#26A8B2;}
	.st2{fill:#4791F3;}
</style>
<path class="st0" d="M11.9,6.4l-3.4,1c-0.3,1.2-0.6,2.8-0.6,4.3c0.8-0.2,1.5-0.5,2.2-0.9c0.1-0.3,0.3-0.6,0.5-0.8
	C11.7,8.6,12.1,7.2,11.9,6.4z"/>
<path d="M7.6,12l0-0.3c0.1-1.5,0.3-3,0.6-4.3l0-0.1L12,6.2L12,6.3c0.1,0.2,0.1,0.4,0.1,0.6c0,0.9-0.5,2.1-1.5,3.2
	c-0.2,0.2-0.3,0.4-0.4,0.7L10.1,11l-0.4-0.2l0.1-0.2c0.1-0.3,0.3-0.5,0.5-0.7c0.9-1,1.4-2.1,1.4-3c0-0.1,0-0.2,0-0.3L8.6,7.6
	C8.3,8.7,8.1,10.1,8,11.5l0,0l0.1,0.4L7.6,12z"/>
<path class="st0" d="M4.9,4.5L3.7,3.7c0,1.1,0.1,2.2,0.1,3.4c0,0.8,0.1,1.7,0.1,2.5c0,0.5-0.2,0.9-0.2,1.3c0.1,0.7,0.7,0.4,0.8,0.2
	c0.1-0.1,0.1-0.3,0.1-0.5c0-0.3,0.1-0.7,0-1c0-0.1-0.1-0.2,0-0.3c0.1-0.9,0.1-1.7,0.2-2.6C4.9,5.9,5,5.2,4.9,4.5z"/>
<path d="M4,11.6c0,0-0.1,0-0.1,0c-0.1,0-0.4-0.1-0.5-0.6c0-0.3,0-0.6,0.1-0.8c0-0.2,0.1-0.4,0.1-0.5c0-0.5,0-1,0-1.6
	c0-0.3,0-0.6,0-0.9c0-0.6,0-1.1-0.1-1.7c0-0.6,0-1.1-0.1-1.7l0-0.4l1.6,1l0,0.1c0.1,0.8,0,1.5-0.1,2.2c0,0.5-0.1,0.9-0.1,1.4
	c0,0.4-0.1,0.8-0.1,1.2c0,0.1,0,0.2,0,0.3c0.1,0.4,0.1,0.7,0,1.1c0,0.2-0.1,0.4-0.2,0.6C4.6,11.4,4.3,11.6,4,11.6z M3.9,4.1
	c0,0.4,0,0.9,0,1.3C3.9,6,4,6.5,4,7.1C4,7.4,4,7.7,4,8c0,0.5,0.1,1.1,0,1.6C4.1,9.8,4,10,4,10.2c-0.1,0.2-0.1,0.4-0.1,0.7
	c0,0.1,0.1,0.2,0.1,0.2c0.1,0,0.3-0.1,0.3-0.1c0.1-0.1,0.1-0.3,0.1-0.4c0.1-0.4,0.1-0.7,0-0.9c0-0.1-0.1-0.3-0.1-0.4
	c0-0.4,0.1-0.8,0.1-1.2c0-0.5,0.1-0.9,0.1-1.4c0.1-0.7,0.1-1.4,0.1-2L3.9,4.1z"/>
<path class="st0" d="M3.7,2C3.7,2.1,3.6,2.2,3.5,2.3c0,0,0,0,0,0c-0.1,0-0.3,0-0.4,0.1C3,2.4,2.9,2.5,2.8,2.6c0,0.1,0,0.1,0,0.2
	c0,0.2,0.1,0.4,0.1,0.6c0,0,0,0,0,0c0.2-0.1,0.4,0.1,0.6,0.2c0.1,0.1,0.2,0.2,0.3,0.3c0,0,0.1,0,0.1,0C4.1,3.3,4,2.6,3.7,2z"/>
<path d="M3.9,4.1c-0.1,0-0.2,0-0.2-0.1c0-0.1-0.1-0.1-0.2-0.2c0,0-0.1-0.1-0.1-0.1C3.3,3.6,3.2,3.5,3,3.6c-0.1,0-0.1,0-0.2,0
	c-0.1,0-0.1-0.1-0.1-0.2c0-0.1,0-0.1,0-0.2c0-0.1-0.1-0.3-0.1-0.4c0-0.1,0-0.2,0-0.3C2.7,2.4,2.8,2.2,3,2.1c0.1,0,0.3-0.1,0.4-0.1
	C3.5,2,3.5,1.9,3.6,1.9l0.2-0.2l0.1,0.3c0.3,0.6,0.4,1.3,0.2,2C4.1,4,4.1,4.1,3.9,4.1C3.9,4.1,3.9,4.1,3.9,4.1z M3.7,3.9
	C3.7,3.9,3.7,3.9,3.7,3.9C3.7,3.9,3.7,3.9,3.7,3.9z M4.1,3.8C4.1,3.8,4.1,3.8,4.1,3.8C4.1,3.8,4.1,3.8,4.1,3.8z M3.1,3.1
	c0.2,0,0.5,0.1,0.6,0.3c0,0,0.1,0.1,0.1,0.1c0-0.4,0-0.8-0.1-1.1c0,0,0,0,0,0c0,0-0.1,0.1-0.2,0.1c-0.1,0-0.2,0-0.3,0
	C3.1,2.5,3,2.6,3,2.6c0,0,0,0.1,0,0.1C3,2.9,3.1,3,3.1,3.1C3.1,3.1,3.1,3.1,3.1,3.1z M3.1,3.3C3.1,3.3,3.1,3.3,3.1,3.3
	C3.1,3.3,3.1,3.3,3.1,3.3z"/>
<path class="st1" d="M10.3,3.6c-0.3-0.5-1.4-2-4.1-2.4C5.2,1,4.4,1.4,3.7,2C4,2.6,4.1,3.4,3.9,4C4,4,4,4.1,4,4.1
	c0.5,0.5,1.3,0.3,1.9,0.7c0.3,0.1,0.5,0.4,0.7,0.6c0.6,0.7,1.2,1.1,1.6,2.1c1.2-0.1,2.6-0.4,3.6-0.9C11.5,5.5,10.9,4.5,10.3,3.6z"/>
<path d="M8.1,7.7L8,7.5C7.7,6.8,7.3,6.4,6.8,5.9C6.7,5.8,6.6,5.7,6.5,5.5C6.3,5.3,6.1,5.1,5.8,5C5.6,4.8,5.3,4.8,5,4.7
	C4.6,4.6,4.2,4.6,3.9,4.3c0,0-0.1-0.1-0.1-0.1L3.7,4.1l0-0.1c0.2-0.6,0.1-1.3-0.2-1.9L3.5,2l0.1-0.1C4.4,1.1,5.3,0.8,6.2,1
	c2.6,0.4,3.8,1.8,4.2,2.5c0.6,0.9,1.2,1.9,1.6,3l0.1,0.2l-0.2,0.1c-1.3,0.6-2.9,0.9-3.7,1L8.1,7.7z M4.1,4C4.2,4,4.2,4,4.1,4
	c0.3,0.2,0.6,0.3,1,0.4C5.4,4.4,5.7,4.4,6,4.6C6.3,4.8,6.6,5,6.8,5.3C6.9,5.4,7,5.5,7.1,5.7C7.6,6.1,8,6.6,8.3,7.2
	c0.8-0.1,2.1-0.3,3.2-0.8c-0.4-1-0.9-1.9-1.5-2.7v0C9.7,3,8.5,1.8,6.1,1.4C5.4,1.2,4.7,1.5,4,2.1C4.2,2.7,4.3,3.3,4.1,4z"/>
<path class="st1" d="M4.7,3.1C4.8,3.4,5,3.7,5.1,4c0.5-0.3,1-0.5,1.6-0.6C6.7,3.2,6.6,3,6.6,2.7L4.7,3.1z"/>
<path d="M5.1,4.3L4.4,3l0.4-0.2l0.4,0.9c0.4-0.2,0.8-0.4,1.3-0.4L6.4,2.6l0.4-0.1L7,3.6l-0.2,0C6.2,3.7,5.7,3.9,5.3,4.2L5.1,4.3z"/>
<path class="st0" d="M7.2,6.8c0-0.3,0.1-0.6,0.1-0.9c0-0.3-0.1-0.5-0.1-0.8C7,4.6,6.9,4,6.8,3.4C6.2,3.5,5.6,3.7,5.1,4
	c0.3,0.7,0.6,1.4,1,2C6,7.3,5.9,8.6,6,9.9c0,0.4-0.3,0.8-0.3,1.2c0,0.1,0,0.3,0,0.4c0,0.1,0.1,0.3,0.3,0.3c0.2,0.1,0.4-0.1,0.6-0.2
	c0.1-0.1,0.3-0.2,0.4-0.4c0.1-0.1,0.1-0.3,0.1-0.4c0-0.2,0-0.5-0.1-0.7c0-0.1,0-0.2,0-0.3L7.2,6.8z"/>
<path d="M6,12c-0.1,0-0.1,0-0.2,0c-0.2-0.1-0.4-0.2-0.4-0.5c0-0.2,0-0.4,0-0.5c0-0.2,0.1-0.4,0.2-0.5c0.1-0.2,0.2-0.4,0.1-0.6
	c-0.1-1.2,0-2.5,0.1-3.8l-1-2.1L5,3.8c0.5-0.3,1.1-0.5,1.7-0.6l0.2,0l0.4,1.9c0.1,0.3,0.1,0.5,0.1,0.8c0,0.3,0,0.6-0.1,0.9L7,9.9
	C7,9.9,7,10,7,10c0.1,0.2,0.1,0.5,0.1,0.8c0,0.2,0,0.4-0.1,0.5c-0.1,0.2-0.3,0.3-0.4,0.4C6.5,11.9,6.3,12,6,12z M5.4,4.1L6.3,6
	l0,0.1C6.2,7.4,6.1,8.7,6.2,9.9c0,0.3-0.1,0.5-0.2,0.7c-0.1,0.2-0.1,0.3-0.1,0.5c0,0.1,0,0.3,0,0.4c0,0.1,0.1,0.2,0.1,0.2
	c0.1,0,0.2-0.1,0.4-0.1c0.1-0.1,0.2-0.2,0.3-0.3c0-0.1,0.1-0.2,0-0.3c0-0.2,0-0.4-0.1-0.7c0-0.1,0-0.2,0-0.3l0.4-3
	C7,6.5,7.1,6.2,7.1,6C7,5.7,7,5.5,6.9,5.2L6.6,3.7C6.2,3.7,5.8,3.9,5.4,4.1z"/>
<path class="st0" d="M3.2,3.2C3,3.9,2.3,4.3,1.5,4.2C0.6,4,0.1,3.3,0.2,2.6c0.1-0.7,0.9-1.1,1.7-1C2.7,1.8,3.3,2.5,3.2,3.2z"/>
<path d="M1.8,4.4c-0.1,0-0.2,0-0.4,0C0.5,4.2-0.1,3.4,0,2.6c0.1-0.4,0.3-0.7,0.6-0.9C1,1.5,1.5,1.4,2,1.5c0.9,0.2,1.5,1,1.4,1.8l0,0
	C3.3,3.6,3.1,3.9,2.8,4.1C2.5,4.3,2.1,4.4,1.8,4.4z M1.6,1.8c-0.3,0-0.5,0.1-0.8,0.2C0.6,2.2,0.5,2.4,0.4,2.7C0.3,3.3,0.8,3.8,1.5,4
	c0.4,0.1,0.8,0,1-0.2C2.8,3.6,2.9,3.4,3,3.2l0,0C3.1,2.6,2.6,2,1.9,1.9C1.8,1.8,1.7,1.8,1.6,1.8z"/>
<g>
	<path class="st2" d="M2.7,6.7C2.6,6.8,2.6,6.9,2.7,7l0.1,0.1c0.1,0.1,0.1,0.2,0,0.3L2.7,7.6c-0.1,0.1-0.1,0.2,0,0.3L2.8,8
		c0.1,0.1,0.1,0.2,0,0.3L2.7,8.4c-0.1,0.1-0.1,0.2,0,0.3l0.1,0.1L2.7,6.7z"/>
	<path d="M2.8,9.1L2.5,8.8c-0.1-0.2-0.1-0.4,0-0.6l0.1-0.1c0,0,0,0,0,0L2.5,8c-0.1-0.2-0.1-0.4,0-0.6l0.1-0.1c0,0,0,0,0,0L2.5,7.2
		C2.4,7,2.4,6.8,2.5,6.6l0.1-0.2L3,6.7L2.8,6.9c0,0,0,0,0,0L2.9,7c0.1,0.2,0.1,0.4,0,0.6L2.8,7.7c0,0,0,0,0,0l0.1,0.1
		c0.1,0.2,0.1,0.4,0,0.6L2.8,8.5c0,0,0,0,0,0l0.2,0.3L2.8,9.1z"/>
</g>
<g>
	<path class="st2" d="M1.7,5.7C1.6,5.8,1.6,5.9,1.7,6l0.1,0.1c0.1,0.1,0.1,0.2,0,0.3L1.7,6.5c-0.1,0.1-0.1,0.2,0,0.3l0.1,0.1
		c0.1,0.1,0.1,0.2,0,0.3L1.7,7.4c-0.1,0.1-0.1,0.2,0,0.3l0.1,0.1L1.7,5.7z"/>
	<path d="M1.7,8.1L1.5,7.8c-0.1-0.2-0.1-0.4,0-0.6l0.1-0.1c0,0,0,0,0,0L1.5,7c-0.1-0.2-0.1-0.4,0-0.6l0.1-0.1c0,0,0,0,0,0L1.5,6.1
		C1.4,6,1.4,5.7,1.5,5.6l0.1-0.2L2,5.7L1.8,5.8c0,0,0,0,0,0L1.9,6c0.1,0.2,0.1,0.4,0,0.6L1.8,6.7c0,0,0,0,0,0l0.1,0.1
		c0.1,0.2,0.1,0.4,0,0.6L1.8,7.5c0,0,0,0,0,0l0.2,0.3L1.7,8.1z"/>
</g>
<g>
	<g>
		<rect x="7.8" y="0.2" transform="matrix(0.34 -0.9404 0.9404 0.34 4.9836 7.8195)" width="0.6" height="0.4"/>
	</g>
	<g>
		<rect x="8.4" y="0.8" transform="matrix(0.7253 -0.6885 0.6885 0.7253 1.6786 6.307)" width="0.6" height="0.4"/>
	</g>
	<g>
		<rect x="6.9" y="0.1" transform="matrix(0.9934 -0.1144 0.1144 0.9934 -4.127198e-03 0.8152)" width="0.4" height="0.6"/>
	</g>
</g>
</svg>
