<?xml version="1.0" encoding="utf-8"?>
<!-- Generator: Adobe Illustrator 23.0.3, SVG Export Plug-In . SVG Version: 6.00 Build 0)  -->
<svg version="1.1" id="_x3C_레이어_x3E_" xmlns="http://www.w3.org/2000/svg" xmlns:xlink="http://www.w3.org/1999/xlink"
	 x="0px" y="0px" viewBox="0 0 83.6 119.7" style="enable-background:new 0 0 83.6 119.7;" xml:space="preserve">
<style type="text/css">
	.st0{fill:none;}
	.st1{fill:#1E1E1E;stroke:#1E1E1E;stroke-width:2;stroke-miterlimit:10;}
	.st2{fill:#26A8B2;}
	.st3{fill:#FFFFFF;}
</style>
<g>
	<path class="st0" d="M43.8,2c-5.6,7.1-13.3,16.9-15.3,19.4c-3.2,4-4.5,6.5-14.8,14.2C6.6,41.1,2,49.6,2,59.2c0,3.6,0,10.9,1.8,21.3
		c1.9,10.9,2.4,29.4,2.4,37.2h45.9c0-28-3.1-44.4-2.2-48.6c1-4.3,2.9-5.9,6.2-8.7c5-4.3,17.6-14.3,25.4-20.5L43.8,2z"/>
</g>
<path class="st1" d="M52.2,118.7c-0.6,0-1-0.4-1-1c0-16-1-28.3-1.7-36.5c-0.5-6.5-0.9-10.4-0.4-12.4c1.1-4.6,3.1-6.4,6.5-9.3
	C60.7,55.2,73.7,44.8,81,39c0.4-0.3,1.1-0.3,1.4,0.2c0.3,0.4,0.3,1.1-0.2,1.4C75,46.4,61.9,56.8,56.9,61.1c-3.3,2.8-5,4.2-5.9,8.2
	c-0.4,1.6,0,5.9,0.5,11.7c0.7,8.2,1.7,20.6,1.7,36.7C53.2,118.2,52.7,118.7,52.2,118.7z"/>
<path class="st1" d="M6.2,118.7c-0.6,0-1-0.4-1-1c0-8.2-0.5-26.4-2.4-37C1,70.2,1,62.8,1,59.2c0-9.7,4.4-18.6,12.2-24.4
	c8.9-6.7,10.9-9.4,13.5-12.7c0.3-0.4,0.7-0.9,1.1-1.4L43.1,1.4c0.3-0.4,1-0.5,1.4-0.2c0.4,0.3,0.5,1,0.2,1.4L29.4,22
	c-0.4,0.5-0.7,0.9-1.1,1.4c-2.5,3.3-4.7,6.2-13.9,13.1C7.2,41.9,3,50.2,3,59.2C3,62.7,3,70,4.8,80.3c1.9,10.7,2.4,28.5,2.4,37.3
	C7.2,118.2,6.8,118.7,6.2,118.7z"/>
<path class="st2" d="M21.4,52.1c-3.7-1.5-8,0.2-9.5,3.9c-1.5,3.7,0.2,8,3.9,9.5L32,72.2l3.6-7.1l1.9-6.3L21.4,52.1z"/>
<path class="st1" d="M32,73.2c-0.1,0-0.3,0-0.4-0.1l-16.1-6.7c-4.2-1.7-6.2-6.6-4.5-10.8c1.3-3.1,4.3-5.1,7.6-5.1
	c1.1,0,2.1,0.2,3.2,0.6l16.1,6.7c0.5,0.2,0.7,0.7,0.6,1.2l-1.9,6.3c0,0.1,0,0.1-0.1,0.2l-3.6,7.1C32.7,73,32.3,73.2,32,73.2z
	 M18.6,52.5c-2.5,0-4.8,1.5-5.8,3.9c-1.3,3.2,0.2,6.9,3.4,8.2l15.3,6.3l3.2-6.2l1.6-5.4L21,53C20.3,52.7,19.5,52.5,18.6,52.5z"/>
<path class="st3" d="M68.2,26.4L57,15.2c0,0-19,19-21.6,21.6c-2.6,2.6-3.7,1.5-7.2,1.3c-2.7-0.2-5.7,0.6-7.7,2.7
	c-3.5,3.5-2.7,8.4,0.8,12c1.8,1.8,4.2,2.7,6.6,2.6c0,2.4,0.8,4.8,2.6,6.6c3.5,3.5,8.4,4.4,12,0.8c2.1-2.1,2.9-5,2.7-7.7
	c-0.2-3.6-1.3-4.6,1.3-7.2C49.2,45.4,68.2,26.4,68.2,26.4z"/>
<path class="st1" d="M37.3,66.2c-0.3,0-0.6,0-0.9,0c-2.3-0.2-4.7-1.4-6.6-3.4c-1.7-1.7-2.7-3.9-2.9-6.3c-2.4-0.2-4.6-1.2-6.3-2.9
	c-1.9-1.9-3.1-4.3-3.4-6.6c-0.3-2.5,0.6-4.9,2.5-6.8c2.1-2.1,5.2-3.2,8.5-3c0.9,0.1,1.6,0.2,2.2,0.3c1.9,0.3,2.6,0.4,4.2-1.3
	l21.6-21.6c0.4-0.4,1-0.4,1.4,0c0.4,0.4,0.4,1,0,1.4L36.1,37.6c-2.4,2.4-3.9,2.1-5.9,1.8c-0.6-0.1-1.3-0.2-2.1-0.2
	c-2.7-0.2-5.2,0.7-7,2.4c-3.4,3.4-2,7.7,0.8,10.6c1.6,1.6,3.7,2.4,5.9,2.4c0.3,0,0.5,0.1,0.7,0.3c0.2,0.2,0.3,0.5,0.3,0.7
	c0,2.2,0.8,4.3,2.4,5.9c1.6,1.6,3.5,2.6,5.4,2.8c1.9,0.2,3.7-0.5,5.2-1.9c1.7-1.7,2.6-4.2,2.4-7c-0.1-0.8-0.1-1.5-0.2-2.1
	c-0.3-2.1-0.5-3.6,1.8-5.9l21.6-21.6c0.4-0.4,1-0.4,1.4,0c0.4,0.4,0.4,1,0,1.4L47.3,48.7c-1.7,1.7-1.6,2.3-1.3,4.2
	c0.1,0.6,0.2,1.4,0.3,2.2c0.2,3.3-0.9,6.4-3,8.5C41.5,65.3,39.5,66.2,37.3,66.2z"/>
<g>
	<path class="st1" d="M27.9,56.7c-0.6,0-1-0.4-1-1c0-2.7,1-5.2,3-7.1c0.4-0.4,1-0.4,1.4,0c0.4,0.4,0.4,1,0,1.4
		c-1.5,1.5-2.4,3.6-2.4,5.7C28.9,56.2,28.4,56.7,27.9,56.7z"/>
</g>
<path class="st3" d="M33.2,64.8c-2.6,0-4.9,1.1-6.5,2.8c-1.7-1.7-4-2.8-6.5-2.8c-5,0-9.1,2.9-9.1,7.9c0,2.9,1.5,5.6,3.5,7.4
	c2.7,2.4,4.2,2.3,4.2,6c0,3.7,0,31.6,0,31.6h15.8c0,0,0-27.8,0-31.6c0-3.7,1.5-3.7,4.2-6c2-1.8,3.5-4.4,3.5-7.4
	C42.3,67.7,38.2,64.8,33.2,64.8z"/>
<path class="st1" d="M34.6,118.7c-0.6,0-1-0.4-1-1V86.1c0-3.3,1.2-4.2,2.9-5.5c0.5-0.4,1-0.8,1.6-1.3c2-1.8,3.2-4.2,3.2-6.6
	c0-2.1-0.8-3.8-2.3-5c-1.4-1.2-3.5-1.8-5.8-1.8c0,0,0,0,0,0c-2.2,0-4.3,0.9-5.8,2.5c-0.4,0.4-1.1,0.4-1.4,0
	c-1.5-1.6-3.6-2.5-5.8-2.5c-4,0-8.1,2.1-8.1,6.9c0,2.4,1.2,4.8,3.2,6.6c0.6,0.5,1.2,0.9,1.6,1.3c1.7,1.3,2.9,2.2,2.9,5.5v31.6
	c0,0.6-0.4,1-1,1c-0.6,0-1-0.4-1-1V86.1c0-2.3-0.5-2.7-2.1-3.9c-0.5-0.4-1.1-0.8-1.8-1.4c-2.5-2.2-3.9-5.1-3.9-8.1
	c0-5.2,4.1-8.9,10.1-8.9c2.4,0,4.7,0.9,6.5,2.4c1.8-1.6,4.1-2.4,6.5-2.4c0,0,0,0,0,0c2.7,0,5.2,0.8,7,2.3c2,1.6,3,3.9,3,6.6
	c0,3-1.4,6-3.9,8.1c-0.7,0.6-1.2,1-1.8,1.4c-1.6,1.2-2.1,1.6-2.1,3.9v31.6C35.6,118.2,35.1,118.7,34.6,118.7z"/>
<g>
	<path class="st1" d="M29.2,74.9c-0.6,0-1-0.4-1-1c0-2.2-0.8-4.2-2.4-5.7c-0.4-0.4-0.4-1,0-1.4c0.4-0.4,1-0.4,1.4,0
		c1.9,1.9,2.9,4.4,2.9,7.1C30.2,74.4,29.8,74.9,29.2,74.9z"/>
</g>
</svg>
