<?xml version="1.0" encoding="utf-8"?>
<!-- Generator: Adobe Illustrator 23.0.3, SVG Export Plug-In . SVG Version: 6.00 Build 0)  -->
<svg version="1.1" id="_x3C_레이어_x3E_" xmlns="http://www.w3.org/2000/svg" xmlns:xlink="http://www.w3.org/1999/xlink"
	 x="0px" y="0px" viewBox="0 0 115.4 115.5" style="enable-background:new 0 0 115.4 115.5;" xml:space="preserve">
<style type="text/css">
	.st0{fill:#FFFFFF;}
	.st1{fill:#1E1E1E;stroke:#1E1E1E;stroke-width:1.5;stroke-linecap:round;stroke-linejoin:round;stroke-miterlimit:10;}
	.st2{fill:#1E1E1E;stroke:#1E1E1E;stroke-width:1.5;stroke-miterlimit:10;}
</style>
<path class="st0" d="M61.6,49.5l-2,9.5l12.7-5l-1,8.8c0,0,9-9,13.4-13.4c4.4-4.4,6.2-2.6,12.2-2.2c4.6,0.3,9.5-1.1,13-4.6
	c6-6,4.5-14.2-1.4-20.2c-3.1-3.1-7.1-4.5-11.1-4.5c0.1-4-1.4-8-4.5-11.1c-6-6-14.2-7.4-20.2-1.4c-3.5,3.5-4.8,8.4-4.6,13
	c0.4,6,2.2,7.7-2.2,12.2c-4.4,4.4-13.4,13.4-13.4,13.4l1,6.6L61.6,49.5z"/>
<path class="st0" d="M47.2,96.9c-0.4-6-2.2-7.7,2.2-12.2c4.4-4.4,13.4-13.4,13.4-13.4l1-8.8l-12.7,5l2-9.5l-8,1.2l-1-6.6
	c0,0-9,9-13.4,13.4c-4.4,4.4-6.2,2.6-12.2,2.2C14,68,9,69.3,5.5,72.8C-0.4,78.7,1,87,7,92.9c3.1,3.1,7.1,4.5,11.1,4.5
	c-0.1,4,1.4,8,4.5,11.1c6,6,14.2,7.4,20.2,1.4C46.1,106.4,47.5,101.5,47.2,96.9z"/>
<path class="st1" d="M71.3,63.9c-0.1,0-0.3,0-0.4-0.1c-0.4-0.2-0.6-0.6-0.6-1l0.8-7.1L59.9,60c-0.3,0.1-0.7,0.1-1-0.2
	c-0.3-0.2-0.4-0.6-0.3-1l1.7-8.1l-6.6,1c-0.5,0.1-1.1-0.3-1.1-0.8l-1-6.6c0-0.3,0.1-0.6,0.3-0.9L65.3,30c3-3,2.8-4.4,2.3-7.7
	c-0.2-1.1-0.3-2.3-0.4-3.7c-0.3-5.3,1.4-10.3,4.8-13.8c2.7-2.7,6-4.1,9.5-4.1c4.2,0,8.5,2,12,5.5c2.9,2.9,4.6,6.7,4.7,10.8
	c4.1,0.2,7.9,1.8,10.8,4.7c6.8,6.8,7.3,15.6,1.4,21.6c-3.2,3.2-7.6,4.9-12.5,4.9c-0.4,0-0.8,0-1.3,0c-1.5-0.1-2.7-0.3-3.7-0.4
	c-1-0.1-1.9-0.3-2.7-0.3c-1.5,0-2.8,0.4-5,2.6L72,63.6C71.8,63.8,71.6,63.9,71.3,63.9z M72.3,53.1c0.2,0,0.4,0.1,0.6,0.2
	c0.3,0.2,0.4,0.6,0.4,0.9l-0.7,5.9L84,48.8c2.3-2.3,4.1-3.2,6.4-3.2c0.9,0,1.9,0.1,3,0.3c1,0.1,2.2,0.3,3.6,0.4c0.4,0,0.8,0,1.1,0
	c4.3,0,8.4-1.6,11.1-4.3c6-6,3.6-13.7-1.4-18.7c-2.7-2.7-6.3-4.2-10.1-4.2l-0.3,0c-0.3,0-0.5-0.1-0.7-0.3c-0.2-0.2-0.3-0.5-0.3-0.7
	c0.1-3.9-1.4-7.6-4.2-10.4c-3.2-3.2-7-4.9-10.6-4.9c-3,0-5.8,1.2-8.1,3.5c-3,3-4.6,7.5-4.3,12.2c0.1,1.4,0.3,2.5,0.4,3.6
	c0.5,3.4,0.8,5.6-2.9,9.4l-13,13l0.8,5.1l7-1c0.3,0,0.7,0.1,0.9,0.3c0.2,0.2,0.3,0.6,0.3,0.9l-1.6,7.7l11-4.3
	C72.1,53.1,72.2,53.1,72.3,53.1z"/>
<path class="st2" d="M33.8,114.7L33.8,114.7c-4.2,0-8.5-2-12-5.5c-2.9-2.9-4.6-6.7-4.7-10.8c-4.1-0.2-7.9-1.8-10.8-4.7
	C-0.5,86.9-1.1,78,4.8,72.1c3.1-3.2,7.6-4.9,12.5-4.9c0.4,0,0.8,0,1.3,0c1.5,0.1,2.7,0.3,3.7,0.4c1,0.1,1.9,0.3,2.7,0.3
	c1.5,0,2.8-0.4,5-2.6l13.4-13.4c0.3-0.3,0.7-0.4,1-0.2c0.4,0.1,0.6,0.4,0.7,0.8l0.8,5.6l7-1c0.3,0,0.6,0.1,0.9,0.3
	c0.2,0.2,0.3,0.6,0.3,0.9L52.4,66l11-4.3c0.3-0.1,0.7-0.1,1,0.1c0.3,0.2,0.4,0.6,0.4,0.9l-1,8.8c0,0.2-0.1,0.4-0.3,0.6L50.1,85.5
	c-3,3-2.8,4.4-2.3,7.7c0.2,1.1,0.3,2.3,0.4,3.7c0.3,5.3-1.4,10.3-4.8,13.8C40.7,113.3,37.4,114.7,33.8,114.7z M18.1,96.4
	c0.3,0,0.5,0.1,0.7,0.3c0.2,0.2,0.3,0.5,0.3,0.7c-0.1,3.9,1.4,7.6,4.2,10.4c3.2,3.2,7,4.9,10.6,4.9c3,0,5.8-1.2,8.1-3.5
	c3-3,4.6-7.5,4.3-12.2c-0.1-1.4-0.3-2.5-0.4-3.6c-0.5-3.4-0.8-5.6,2.9-9.4l13.2-13.2l0.8-6.8l-11.2,4.4c-0.3,0.1-0.7,0.1-1-0.2
	c-0.3-0.2-0.4-0.6-0.3-1l1.7-8.1l-6.6,1c-0.5,0.1-1.1-0.3-1.1-0.8l-0.7-4.6l-12,12c-2.3,2.3-4.1,3.2-6.4,3.2c-0.9,0-1.9-0.1-3-0.3
	c-1-0.1-2.2-0.3-3.6-0.4c-0.4,0-0.7,0-1.1,0c-4.3,0-8.4,1.6-11.1,4.3c-2.6,2.6-3.8,5.8-3.5,9.3c0.3,3.3,2.1,6.6,4.9,9.5
	c2.7,2.7,6.3,4.2,10.1,4.2L18.1,96.4C18,96.4,18.1,96.4,18.1,96.4z"/>
<g>
	<path class="st1" d="M92.9,29.6c-0.3,0-0.5-0.1-0.7-0.3c-0.4-0.4-0.4-1,0-1.4c2.7-2.7,4.2-6.3,4.2-10.1c0-0.6,0.4-1,1-1
		c0.6,0,1,0.4,1,1c0,4.3-1.7,8.4-4.8,11.5C93.4,29.5,93.2,29.6,92.9,29.6z"/>
	<path class="st1" d="M61.6,50.5c-0.2,0-0.4-0.1-0.5-0.2c-0.5-0.3-0.6-0.9-0.3-1.4l2.9-4.6c0.3-0.5,0.9-0.6,1.4-0.3
		c0.5,0.3,0.6,0.9,0.3,1.4l-2.9,4.6C62.2,50.4,61.9,50.5,61.6,50.5z"/>
	<path class="st1" d="M41.9,63.4c-0.3,0-0.5-0.1-0.7-0.3c-0.4-0.4-0.4-1,0-1.4l3.2-3.2c0.4-0.4,1-0.4,1.4,0c0.4,0.4,0.4,1,0,1.4
		l-3.2,3.2C42.4,63.3,42.1,63.4,41.9,63.4z"/>
	<path class="st1" d="M18,98.7c-0.6,0-1-0.4-1-1c0-4.3,1.7-8.4,4.8-11.5c0.4-0.4,1-0.4,1.4,0s0.4,1,0,1.4c-2.7,2.7-4.2,6.3-4.2,10.1
		C19,98.3,18.6,98.7,18,98.7z"/>
</g>
<g>
	<g>
		<path class="st1" d="M36.1,37.1c-0.3,0-0.5-0.1-0.7-0.3l-9.5-9.5c-0.4-0.4-0.4-1,0-1.4c0.4-0.4,1-0.4,1.4,0l9.5,9.5
			c0.4,0.4,0.4,1,0,1.4C36.6,37,36.3,37.1,36.1,37.1z"/>
		<path class="st1" d="M28,48.7c-0.1,0-0.3,0-0.4-0.1l-12.2-5.7c-0.5-0.2-0.7-0.8-0.5-1.3c0.2-0.5,0.8-0.7,1.3-0.5l12.2,5.7
			c0.5,0.2,0.7,0.8,0.5,1.3C28.7,48.5,28.4,48.7,28,48.7z"/>
		<path class="st1" d="M47.7,29c-0.4,0-0.7-0.2-0.9-0.6l-5.7-12.2c-0.2-0.5,0-1.1,0.5-1.3c0.5-0.2,1.1,0,1.3,0.5l5.7,12.2
			c0.2,0.5,0,1.1-0.5,1.3C48,29,47.8,29,47.7,29z"/>
	</g>
	<g>
		<path class="st1" d="M88.8,89.9c-0.3,0-0.5-0.1-0.7-0.3l-9.5-9.5c-0.4-0.4-0.4-1,0-1.4c0.4-0.4,1-0.4,1.4,0l9.5,9.5
			c0.4,0.4,0.4,1,0,1.4C89.3,89.8,89.1,89.9,88.8,89.9z"/>
		<path class="st1" d="M73.4,100.7c-0.4,0-0.7-0.2-0.9-0.6l-5.7-12.2c-0.2-0.5,0-1.1,0.5-1.3c0.5-0.2,1.1,0,1.3,0.5l5.7,12.2
			c0.2,0.5,0,1.1-0.5,1.3C73.7,100.6,73.6,100.7,73.4,100.7z"/>
		<path class="st1" d="M99.6,74.5c-0.1,0-0.3,0-0.4-0.1L87,68.7c-0.5-0.2-0.7-0.8-0.5-1.3c0.2-0.5,0.8-0.7,1.3-0.5l12.2,5.7
			c0.5,0.2,0.7,0.8,0.5,1.3C100.4,74.3,100,74.5,99.6,74.5z"/>
	</g>
</g>
</svg>
