<?xml version="1.0" encoding="utf-8"?>
<!-- Generator: Adobe Illustrator 23.0.3, SVG Export Plug-In . SVG Version: 6.00 Build 0)  -->
<svg version="1.1" id="Layer_1" xmlns="http://www.w3.org/2000/svg" xmlns:xlink="http://www.w3.org/1999/xlink" x="0px" y="0px"
	 viewBox="0 0 11.1 13.7" style="enable-background:new 0 0 11.1 13.7;" xml:space="preserve">
<style type="text/css">
	.st0{fill:#FFFFFF;}
	.st1{fill:#1E1E1E;}
	.st2{fill:#26A8B2;}
</style>
<path class="st0" d="M1.6,13.5c0.3-1,0.9-3.4,0.6-4.4C2.1,8.5,1.8,8,1.7,7.5c0-0.1,0-0.3,0-0.4c0.1-0.4,0.1-0.9,0-1.3
	c0-0.1,0-0.2,0-0.4c0-0.1,0.1-0.3,0.1-0.4C2,4.7,2,4.3,2.1,4c0-0.1,0.1-0.2,0.2-0.2c0.1,0,0.1,0,0.2,0c0.2,0,0.3,0.2,0.4,0.4
	C2.9,4.5,2.9,4.8,2.9,5c0,0.5-0.1,1,0.1,1.4C3.1,6.3,3.2,6.1,3.3,6c0.2-0.6,0.3-1.2,0.5-1.9C4,3,4.4,1.8,4.5,1.5
	C4.6,1.2,4.8,1,5,0.9c0.1-0.1,0.3,0,0.4,0.1C5.5,1,5.5,1.2,5.5,1.3c0,0.4,0,0.9-0.2,1.3C5,3.6,4.8,4.7,4.6,5.8
	c0.5-1.5,1.1-3,1.7-4.4c0.1-0.3,0.3-0.6,0.6-0.6c0.2,0,0.3,0.1,0.4,0.2c0.1,0.2,0,0.5-0.1,0.7C6.6,3,6.1,4.5,5.7,6
	c0.1,0,0.2,0,0.2,0c0.7-0.9,1.3-1.9,1.8-2.9C7.8,3,7.9,2.8,8.1,2.8c0,0,0.1,0,0.1,0.1c0.2,0.2,0.1,0.5,0,0.8C8.1,4.1,8,4.5,7.8,4.9
	C7.7,5.1,7.6,5.4,7.5,5.7C7.4,5.9,7.3,6.1,7.1,6.3C7,6.5,6.9,6.7,6.8,6.8C6.9,6.9,6.9,6.9,7,7c0.5-0.2,0.9-0.4,1.3-0.7
	c0.4-0.3,0.4-1,0.5-1.5c0-0.1,0-0.3,0.1-0.3c0.1-0.1,0.3,0,0.4,0.1C9.4,4.7,9.4,4.9,9.5,5c0.1,0.7,0,1.5-0.5,2.1
	C8.7,7.4,8.4,7.6,8.1,7.9c-0.7,0.6-0.9,1.6-1.3,2.5c-0.1,0.2-0.2,0.4-0.3,0.5c-0.1,0.2-0.3,0.3-0.5,0.5c-0.4,0.4-0.8,1.5-0.9,2.1
	H1.6z"/>
<path class="st1" d="M1.8,13.7l-0.4-0.1l0-0.2c0-0.1,0.1-0.3,0.1-0.4c0.3-1.1,0.8-3,0.5-3.9C2,8.9,1.9,8.8,1.8,8.6
	C1.7,8.2,1.5,7.9,1.5,7.5c0-0.1,0-0.3,0-0.4c0.1-0.4,0-0.8,0-1.2l0,0c0-0.1,0-0.2,0-0.4c0-0.1,0.1-0.3,0.1-0.4l0-0.1
	c0.1-0.3,0.2-0.6,0.2-1c0-0.2,0.2-0.4,0.4-0.4c0.1,0,0.2,0,0.2,0C2.7,3.7,2.9,3.9,3,4.1C3.1,4.4,3.1,4.7,3.1,5c0,0.1,0,0.3,0,0.4
	c0,0.1,0,0.2,0,0.3c0.1-0.4,0.2-0.7,0.3-1.1C3.4,4.5,3.5,4.3,3.6,4c0.3-1,0.7-2.3,0.8-2.6c0.1-0.3,0.3-0.6,0.6-0.7
	c0.2-0.1,0.5,0,0.6,0.1C5.7,1,5.7,1.1,5.7,1.3c0,0.4,0,0.9-0.2,1.3c0,0.1-0.1,0.2-0.1,0.3c0.2-0.5,0.4-1.1,0.7-1.7
	c0.1-0.2,0.3-0.7,0.8-0.7c0.2,0,0.5,0.1,0.6,0.3c0.2,0.3,0,0.7,0,0.9c-0.5,1.2-1,2.5-1.3,3.8C6.6,4.7,7.1,3.9,7.6,3
	C7.8,2.7,8,2.6,8.1,2.6c0.1,0,0.2,0.1,0.2,0.1c0.3,0.3,0.1,0.8,0.1,1L8,5C7.9,5.2,7.8,5.5,7.7,5.7C7.6,6,7.4,6.2,7.3,6.4L7.1,6.8
	c0.4-0.2,0.8-0.4,1.1-0.6C8.5,5.9,8.5,5.5,8.6,5c0-0.1,0-0.2,0-0.2c0-0.1,0-0.3,0.2-0.5C8.9,4.3,9,4.2,9.1,4.2
	c0.1,0,0.3,0.1,0.4,0.2C9.6,4.6,9.6,4.8,9.7,5c0.1,1-0.1,1.7-0.5,2.2C9,7.5,8.7,7.7,8.5,7.9C8.4,7.9,8.3,8,8.3,8
	c-0.5,0.4-0.7,1-0.9,1.6c-0.1,0.3-0.2,0.5-0.3,0.8c-0.1,0.2-0.2,0.4-0.3,0.6c-0.1,0.1-0.2,0.2-0.3,0.3c-0.1,0.1-0.1,0.1-0.2,0.2
	c-0.4,0.4-0.7,1.4-0.9,2l0,0.2l-0.4-0.1l0-0.2c0.1-0.5,0.5-1.6,1-2.1C6,11.2,6.1,11.1,6.1,11c0.1-0.1,0.2-0.2,0.3-0.3
	c0.1-0.1,0.2-0.3,0.3-0.5C6.8,10.1,6.9,9.8,7,9.5c0.2-0.6,0.5-1.3,1-1.8c0.1-0.1,0.2-0.1,0.2-0.2C8.5,7.4,8.7,7.2,8.8,7
	c0.3-0.4,0.5-1.1,0.4-2c0-0.1,0-0.3-0.1-0.3c0,0-0.1,0-0.1-0.1c0,0,0,0,0,0c0,0,0,0.1,0,0.2C9,4.9,9,5,9,5.1c0,0.5-0.1,1.1-0.5,1.4
	C8.1,6.7,7.6,7,7.1,7.2L7,7.2L6.9,7.2c0,0,0,0-0.1,0C6.8,7.1,6.7,7,6.6,6.9L6.6,6.8l0.4-0.6C7.1,6,7.2,5.8,7.3,5.6
	c0.1-0.2,0.2-0.5,0.3-0.7l0.4-1.2c0.1-0.3,0.1-0.5,0-0.6c0,0,0,0,0,0c0,0-0.1,0-0.1,0.2c-0.5,1-1.1,2-1.8,3L6.1,6.3L6,6.3
	c0,0-0.2,0-0.3-0.1L5.5,6.1l0-0.1C5.9,4.5,6.4,3,7,1.5C7.1,1.4,7.1,1.2,7.1,1C7,1,6.9,0.9,6.9,0.9C6.7,1,6.6,1.1,6.5,1.4
	C5.8,3,5.3,4.4,4.8,5.8L4.4,5.7c0.2-1.1,0.4-2.2,0.7-3.2c0.1-0.4,0.2-0.8,0.2-1.2c0-0.1,0-0.2-0.1-0.3c0,0-0.1,0-0.1,0
	C4.9,1.1,4.8,1.3,4.7,1.5C4.6,1.8,4.2,3,3.9,4.1C3.9,4.4,3.8,4.6,3.8,4.8C3.7,5.2,3.6,5.6,3.4,6C3.4,6.2,3.3,6.4,3.1,6.6L2.9,6.8
	L2.8,6.5C2.6,6.2,2.7,5.8,2.7,5.4c0-0.1,0-0.3,0-0.4c0-0.3,0-0.5-0.1-0.8C2.5,4.1,2.5,4,2.4,4c0,0-0.1,0-0.1,0
	c0,0.4-0.1,0.7-0.2,1.1l0,0.1c0,0.1-0.1,0.2-0.1,0.3c0,0.1,0,0.2,0,0.3l0,0c0,0.5,0.1,0.9,0,1.4c0,0.1,0,0.2,0,0.3
	c0,0.3,0.2,0.6,0.3,1C2.3,8.6,2.4,8.8,2.4,9c0.3,1-0.2,2.9-0.5,4.1c0,0.2-0.1,0.3-0.1,0.4L1.8,13.7z"/>
<path class="st0" d="M5.7,13.5c-0.1-0.2-0.4-0.4-0.5-0.4c-0.1,0-0.2-0.1-0.3-0.1c-0.1-0.1-0.3-0.1-0.4-0.2C4,12.3,3.5,11.9,3,11.4
	c-0.2-0.1-0.3-0.3-0.4-0.5c-0.2-0.2-0.3-0.4-0.4-0.6C2,10.1,2,9.8,2.1,9.6C2,9.5,1.9,9.3,1.9,9.1C1.9,9,2,8.8,2,8.7
	c0.1-0.1,0-0.2,0-0.3c0,0-0.5-0.3-0.3-0.7c0.3-0.5,0.8-0.1,1.1,0C3,7.9,3.6,8,3.9,8.1C3.8,7.9,3.9,7.7,4,7.5
	c0.1-0.1,0.1-0.1,0.2-0.1c0.7,0,1.4,0.5,2.1,0.7c0.2,0.1,0.5,0.2,0.7,0.3c0.4,0.2,0.8,0.6,1,1c0.2,0.3,0,0.7,0,1.1
	c0,0.6,0,0.7,0.2,1.3c0.1,0.2,0.8,1.5,0.9,1.7H5.7z"/>
<path class="st1" d="M9.2,13.7l-0.1-0.2c-0.2-0.2-0.9-1.5-1-1.7c-0.2-0.5-0.2-0.8-0.2-1.3c0-0.1,0-0.2,0-0.3c0-0.2,0.1-0.5,0-0.6
	C7.7,9.1,7.3,8.8,7,8.6C6.8,8.5,6.6,8.4,6.3,8.3C6.1,8.2,5.8,8.1,5.6,8C5.2,7.8,4.7,7.6,4.2,7.6c0,0-0.1,0-0.1,0
	C4.1,7.8,4,7.9,4.1,8l0.1,0.5L3.8,8.3C3.6,8.2,3.4,8.2,3.3,8.1C3,8,2.8,8,2.7,7.9c0,0-0.1,0-0.1-0.1C2.4,7.7,2.2,7.6,2,7.7
	c0,0-0.1,0-0.1,0.2C1.7,8.1,2.1,8.3,2.1,8.3l0,0c0.1,0.1,0.2,0.3,0.1,0.5C2.2,8.9,2.1,9,2.1,9.1c0,0.1,0.1,0.3,0.2,0.5l0.1,0.1
	L2.3,9.7c-0.1,0.1-0.1,0.3,0,0.5c0.1,0.2,0.2,0.4,0.4,0.5c0.1,0.1,0.3,0.3,0.4,0.4c0.5,0.5,1,0.9,1.6,1.3c0.1,0.1,0.2,0.2,0.4,0.2
	c0,0,0.1,0,0.1,0.1c0,0,0.1,0,0.1,0.1c0.1,0.1,0.4,0.3,0.6,0.5L6,13.5l-0.4,0.2l-0.1-0.2c-0.1-0.2-0.3-0.3-0.4-0.4
	c0,0-0.1,0-0.1-0.1c-0.1,0-0.1,0-0.2-0.1c-0.2-0.1-0.3-0.2-0.4-0.2c-0.6-0.4-1.1-0.8-1.6-1.3c-0.2-0.2-0.3-0.3-0.4-0.5
	c-0.2-0.2-0.4-0.4-0.5-0.7c-0.1-0.3-0.1-0.5,0-0.8C1.8,9.5,1.7,9.3,1.7,9.1c0-0.2,0.1-0.4,0.2-0.5c-0.2-0.2-0.6-0.5-0.3-1
	c0.1-0.2,0.2-0.3,0.4-0.4c0.3-0.1,0.6,0.1,0.8,0.2c0,0,0.1,0,0.1,0.1C3,7.6,3.2,7.7,3.4,7.7c0.1,0,0.2,0.1,0.3,0.1
	c0-0.2,0.1-0.3,0.2-0.4C4,7.3,4.1,7.2,4.2,7.2c0.5,0,1,0.2,1.5,0.4C6,7.8,6.2,7.9,6.4,7.9C6.7,8,7,8.1,7.2,8.2
	C7.6,8.5,8,8.9,8.3,9.3c0.2,0.3,0.1,0.6,0.1,0.9c0,0.1,0,0.2,0,0.3c0,0.5,0,0.7,0.2,1.2c0.1,0.2,0.8,1.4,0.9,1.7l0.1,0.2L9.2,13.7z"
	/>
<g>
	<path class="st1" d="M5.2,11.9L5,11.8c-0.7-0.3-1.4-0.8-1.9-1.2c-0.1-0.1-0.3-0.2-0.4-0.3C2.5,10.1,2.2,9.9,2,9.7L1.9,9.6l0.3-0.3
		l0.1,0.1C2.5,9.6,2.7,9.8,3,10c0.1,0.1,0.3,0.2,0.4,0.3c0.5,0.4,1.1,0.9,1.8,1.1l0.2,0.1L5.2,11.9z"/>
</g>
<g>
	<path class="st1" d="M6.1,11L5.9,11c-1-0.2-1.8-0.8-2.5-1.4C3.2,9.4,2.8,9.2,2.5,9C2.3,8.9,2.1,8.8,2,8.7L1.8,8.6l0.2-0.3l0.2,0.1
		c0.1,0.1,0.3,0.2,0.5,0.3c0.4,0.2,0.8,0.4,0.9,0.5c0.7,0.6,1.5,1.1,2.3,1.4l0.2,0.1L6.1,11z"/>
</g>
<g>
	<path class="st1" d="M6.9,10.1L6.7,10C6.4,9.9,6.2,9.7,5.9,9.5C5.8,9.5,5.7,9.4,5.7,9.3C5.4,9.2,5.1,9.1,4.9,8.9
		C4.4,8.7,4,8.5,3.7,8.2L3.5,8.1l0.3-0.3l0.2,0.1C4.3,8.2,4.6,8.4,5,8.6C5.3,8.7,5.6,8.8,5.9,9C6,9.1,6.1,9.1,6.2,9.2
		c0.2,0.2,0.4,0.3,0.7,0.4l0.2,0.1L6.9,10.1z"/>
</g>
<g id="XMLID_1312_">
	<path class="st2" d="M9.9,8.6c-0.1,0-0.2-0.1-0.2-0.1L9.6,7.9c0-0.1,0-0.1,0.1-0.2l0.4-0.2L10,7c0-0.1,0-0.1,0.1-0.2l0.4-0.3
		L10.3,6c0-0.1,0-0.1,0-0.2l0.4-0.4l-0.3-0.4c0-0.1,0-0.1,0-0.2l0.4-0.5c0.1-0.1,0.2-0.1,0.2,0c0.1,0.1,0.1,0.2,0,0.2L10.8,5L11,5.5
		c0,0.1,0,0.2,0,0.2L10.7,6l0.2,0.5c0,0.1,0,0.2-0.1,0.2L10.4,7l0.1,0.5c0,0.1,0,0.2-0.1,0.2L10,7.9l0.1,0.5
		C10.1,8.5,10,8.6,9.9,8.6C9.9,8.6,9.9,8.6,9.9,8.6z"/>
</g>
<path class="st2" d="M0.2,7.9C0.2,7.9,0.2,7.9,0.2,7.9C0.1,7.8,0,7.7,0.1,7.6l0.3-0.4L0,6.8c0-0.1,0-0.1,0-0.2l0.3-0.4L0.1,5.8
	c0-0.1,0-0.1,0-0.2l0.4-0.4L0.2,4.7c0-0.1,0-0.2,0.1-0.2c0.1,0,0.2,0,0.2,0.1l0.3,0.6c0,0.1,0,0.1,0,0.2L0.4,5.7l0.3,0.4
	c0,0.1,0,0.1,0,0.2L0.4,6.7l0.3,0.4c0,0.1,0,0.1,0,0.2L0.4,7.8C0.3,7.9,0.3,7.9,0.2,7.9z"/>
<path class="st2" d="M2.6,3.1C2.6,3.1,2.5,3.1,2.6,3.1C2.5,3,2.5,2.9,2.5,2.8l0.4-0.3L2.7,2c0-0.1,0-0.1,0.1-0.2l0.4-0.3L3,1.1
	c0-0.1,0-0.1,0.1-0.2l0.4-0.2L3.5,0.2c0-0.1,0-0.2,0.1-0.2c0.1,0,0.2,0,0.2,0.1l0.1,0.6c0,0.1,0,0.1-0.1,0.2L3.4,1.1l0.1,0.5
	c0,0.1,0,0.1-0.1,0.2L3.1,2l0.2,0.4c0,0.1,0,0.1,0,0.2L2.7,3.1C2.7,3.1,2.6,3.1,2.6,3.1z"/>
</svg>
