<?xml version="1.0" encoding="utf-8"?>
<!-- Generator: Adobe Illustrator 23.0.3, SVG Export Plug-In . SVG Version: 6.00 Build 0)  -->
<svg version="1.1" id="_x3C_레이어_x3E_" xmlns="http://www.w3.org/2000/svg" xmlns:xlink="http://www.w3.org/1999/xlink"
	 x="0px" y="0px" viewBox="0 0 55.2 80.4" style="enable-background:new 0 0 55.2 80.4;" xml:space="preserve">
<style type="text/css">
	.st0{fill:#1E1E1E;stroke:#1E1E1E;stroke-width:0.5;stroke-miterlimit:10;}
	.st1{fill:none;}
	.st2{fill:#26A8B2;}
	.st3{fill:#1E1E1E;stroke:#1E1E1E;stroke-miterlimit:10;}
</style>
<path class="st0" d="M15.9,61.4c-0.7,0-1.3,0.6-1.3,1.3v10.5c0,0.7,0.6,1.3,1.3,1.3c0.7,0,1.2-0.6,1.2-1.3V62.6
	C17.1,61.9,16.5,61.4,15.9,61.4z"/>
<path class="st1" d="M42.1,21.7C42.1,21.7,42.1,21.7,42.1,21.7c1-0.1,1.7-0.9,1.7-1.9v-1.8c0-1.6,1.3-2.9,2.9-2.9h3
	c0.7,0,1.4-0.3,1.9-0.8c0.5-0.5,0.8-1.2,0.8-2c-0.1-1.4-1.3-2.7-2.9-2.7h-2.9c-0.1,0-0.3,0-0.4,0v1.7c0,0.7-0.5,1.2-1.2,1.2
	c-0.7,0-1.3-0.5-1.3-1.2V6.9V4.6c0-1.1-0.9-1.9-2-1.8c-4.7,0.3-9.5,0.4-14.2,0.4c-4.7,0-9.5-0.2-14.3-0.4c-1.1-0.1-2,0.8-2,1.8v2.2
	c0,0,0,0.1,0,0.1V7v4.4c0,0.7-0.6,1.2-1.3,1.2c-0.7,0-1.2-0.5-1.2-1.2V9.8c-0.1,0-0.3,0-0.4,0H5.6c-1.5,0-2.8,1.2-2.8,2.7
	c0,0.7,0.3,1.4,0.8,2c0.5,0.5,1.2,0.8,1.9,0.8h3c1.6,0,2.9,1.3,2.9,2.9v1.8c0,1,0.7,1.8,1.7,1.9c0,0,0.1,0,0.1,0
	c4.8,0.3,9.6,0.5,14.5,0.5c4.7,0,9.5-0.2,14.2-0.4C41.9,21.7,42,21.7,42.1,21.7z M17.1,17.7c0,0.7-0.6,1.3-1.2,1.3
	c-0.7,0-1.3-0.6-1.3-1.3V7.2c0-0.7,0.6-1.2,1.3-1.2c0.7,0,1.2,0.5,1.2,1.2V17.7z"/>
<path class="st1" d="M27.6,56.1c4.4,0,9-0.1,13.4-0.4c0.7-1.5,0.5-2.9,0.3-3.7c-4.5,0.3-9.2,0.4-13.7,0.4c-4.6,0-9.2-0.2-13.7-0.4
	c-0.2,0.8-0.4,2.2,0.3,3.7C18.6,56,23.1,56.1,27.6,56.1z"/>
<path class="st1" d="M41.8,30.5c0,0-0.1,0-0.1,0c-4.7,0.3-9.4,0.5-14.1,0.5c-4.7,0-9.4-0.2-14.1-0.5c0,0-0.1,0-0.1,0
	c0,0-0.1,0-0.1,0h-0.1c-1,0-1.9,0.8-1.9,1.9v2.2c0,0,0,0.1,0,0.1v0.1v4.4c0,0.7-0.6,1.2-1.3,1.2c-0.7,0-1.2-0.6-1.2-1.2v-1.7
	c-0.1,0-0.3,0-0.4,0H5.6c-1.5,0-2.8,1.2-2.8,2.7c0,0.7,0.3,1.4,0.8,2c0.5,0.5,1.2,0.8,1.9,0.8h3c1.6,0,2.9,1.3,2.9,2.9v1.8
	c0,1,0.7,1.7,1.7,1.9c0,0,0.1,0,0.1,0c4.8,0.3,9.6,0.5,14.5,0.5c4.7,0,9.5-0.2,14.2-0.4c0.1,0,0.2,0,0.2,0c0,0,0,0,0.1,0
	c0.9-0.1,1.7-0.9,1.7-1.9v-1.8c0-1.6,1.3-2.9,2.9-2.9h3c0.7,0,1.4-0.3,1.9-0.8c0.5-0.5,0.8-1.2,0.8-2c-0.1-1.4-1.3-2.7-2.9-2.7h-2.9
	c-0.1,0-0.3,0-0.4,0v1.7c0,0.7-0.5,1.2-1.2,1.2c-0.7,0-1.3-0.6-1.3-1.2v-4.5v-2.3c0-1-0.8-1.9-1.9-1.9L41.8,30.5
	C41.8,30.5,41.8,30.5,41.8,30.5z M17.1,45.5c0,0.7-0.6,1.3-1.2,1.3c-0.7,0-1.3-0.6-1.3-1.3V34.9c0-0.7,0.6-1.2,1.3-1.2
	c0.7,0,1.2,0.5,1.2,1.2V45.5z"/>
<path class="st1" d="M41.8,58.2C41.8,58.2,41.8,58.2,41.8,58.2c-4.8,0.3-9.5,0.5-14.2,0.5c-4.7,0-9.5-0.2-14.2-0.5c0,0-0.1,0-0.1,0
	c-1.1-0.1-2,0.8-2,1.9v2.2c0,0,0,0.1,0,0.1v0.1v4.4c0,0.7-0.6,1.2-1.3,1.2c-0.7,0-1.2-0.6-1.2-1.2v-1.7c-0.1,0-0.3,0-0.4,0H5.6
	c-1.5,0-2.8,1.2-2.8,2.7c0,0.7,0.3,1.4,0.8,2c0.5,0.5,1.2,0.8,1.9,0.8h3c1.6,0,2.9,1.3,2.9,2.9v1.8c0,1,0.8,1.8,1.8,1.9
	c4.8,0.3,9.6,0.5,14.5,0.5c4.8,0,9.7-0.2,14.5-0.5c1-0.1,1.7-0.9,1.7-1.9v-1.8c0-1.6,1.3-2.9,2.9-2.9h3c0.7,0,1.4-0.3,1.9-0.8
	c0.5-0.5,0.8-1.2,0.8-2c-0.1-1.5-1.3-2.7-2.9-2.7h-2.9c-0.1,0-0.3,0-0.4,0v1.7c0,0.7-0.5,1.2-1.2,1.2c-0.7,0-1.3-0.6-1.3-1.2v-4.5
	V60C43.8,59,42.9,58.1,41.8,58.2z"/>
<path class="st2" d="M27.6,28.4c4.4,0,9-0.1,13.4-0.4c0.7-1.5,0.5-2.9,0.3-3.7c-4.5,0.3-9.2,0.4-13.7,0.4c-4.6,0-9.2-0.2-13.7-0.4
	c-0.2,0.8-0.4,2.2,0.3,3.7C18.6,28.3,23.1,28.4,27.6,28.4z"/>
<path class="st2" d="M27.6,56.1c4.4,0,9-0.1,13.4-0.4c0.7-1.5,0.5-2.9,0.3-3.7c-4.5,0.3-9.2,0.4-13.7,0.4c-4.6,0-9.2-0.2-13.7-0.4
	c-0.2,0.8-0.4,2.2,0.3,3.7C18.6,56,23.1,56.1,27.6,56.1z"/>
<path class="st0" d="M15.9,33.7c-0.7,0-1.3,0.5-1.3,1.2v10.5c0,0.7,0.6,1.3,1.3,1.3c0.7,0,1.2-0.6,1.2-1.3V34.9
	C17.1,34.2,16.5,33.7,15.9,33.7z"/>
<path class="st0" d="M15.9,6c-0.7,0-1.3,0.5-1.3,1.2v10.5c0,0.7,0.6,1.3,1.3,1.3c0.7,0,1.2-0.6,1.2-1.3V7.2C17.1,6.5,16.5,6,15.9,6z
	"/>
<path class="st3" d="M13.5,30.5h-0.2c0,0,0.1,0,0.1,0C13.4,30.5,13.5,30.5,13.5,30.5z"/>
<path class="st3" d="M41.8,30.5h-0.2C41.7,30.5,41.7,30.5,41.8,30.5C41.8,30.5,41.8,30.5,41.8,30.5z"/>
<path class="st3" d="M41.7,30.5H13.5c4.7,0.3,9.4,0.5,14.1,0.5C32.3,30.9,37,30.8,41.7,30.5z"/>
<path class="st0" d="M46.3,47.6v-1.8c0-0.2,0.2-0.4,0.4-0.4h3c1.4,0,2.7-0.6,3.7-1.6c1-1,1.5-2.4,1.5-3.7c-0.1-2.8-2.5-5.1-5.4-5.1
	h-2.9c-0.2,0-0.4-0.2-0.4-0.4v-2.3c0-0.7-0.1-1.3-0.4-1.9h-3.9c1,0,1.9,0.8,1.9,1.9v2.3v4.5c0,0.7,0.6,1.2,1.3,1.2
	c0.7,0,1.2-0.6,1.2-1.2v-1.7c0.1,0,0.3,0,0.4,0h2.9c1.5,0,2.8,1.2,2.9,2.7c0,0.7-0.3,1.4-0.8,2c-0.5,0.5-1.2,0.8-1.9,0.8h-3
	c-1.6,0-2.9,1.3-2.9,2.9v1.8c0,1-0.7,1.8-1.7,1.9c0,0,0,0-0.1,0c-0.1,0-0.2,0-0.2,0c-4.7,0.3-9.5,0.4-14.2,0.4
	c-4.8,0-9.7-0.2-14.5-0.5c0,0-0.1,0-0.1,0c-1-0.1-1.7-0.9-1.7-1.9v-1.8c0-1.6-1.3-2.9-2.9-2.9h-3c-0.7,0-1.4-0.3-1.9-0.8
	c-0.5-0.5-0.8-1.2-0.8-2c0-1.4,1.3-2.7,2.8-2.7h2.9c0.1,0,0.3,0,0.4,0v1.7c0,0.7,0.5,1.2,1.2,1.2c0.7,0,1.3-0.6,1.3-1.2v-4.4v-0.1
	c0,0,0-0.1,0-0.1v-2.2c0-1,0.9-1.9,1.9-1.9H9.3C9,31,8.9,31.7,8.9,32.3v2.3c0,0.2-0.2,0.4-0.4,0.4H5.6c-2.9,0-5.3,2.3-5.4,5.1
	c0,1.4,0.5,2.7,1.5,3.7c1,1,2.3,1.6,3.7,1.6h3c0.2,0,0.4,0.2,0.4,0.4v1.8c0,1.8,1,3.3,2.6,4c-0.3,1.1-0.5,2.7,0.2,4.4v0
	c-1.6,0.6-2.7,2.2-2.7,4v2.3c0,0.2-0.2,0.4-0.4,0.4H5.6c-2.9,0-5.3,2.3-5.4,5.1c0,1.4,0.5,2.8,1.5,3.8c1,1,2.3,1.5,3.7,1.5h3
	c0.2,0,0.4,0.2,0.4,0.4v1.8c0,2.3,1.8,4.2,4.1,4.4c4.8,0.3,9.8,0.5,14.7,0.5c4.8,0,9.8-0.2,14.6-0.5c2.3-0.2,4.1-2.1,4.1-4.4v-1.8
	c0-0.2,0.2-0.4,0.4-0.4h3c1.4,0,2.7-0.5,3.7-1.5c1-1,1.5-2.3,1.5-3.8c-0.1-2.8-2.5-5.1-5.4-5.1h-2.9c-0.2,0-0.4-0.2-0.4-0.4V60
	c0-1.8-1.1-3.4-2.7-4v0c0.6-1.8,0.4-3.4,0.2-4.4C45.3,50.9,46.3,49.4,46.3,47.6z M13.9,52c4.5,0.3,9.2,0.4,13.7,0.4
	c4.5,0,9.2-0.2,13.7-0.4c0.2,0.8,0.4,2.2-0.3,3.7c-4.4,0.3-9,0.4-13.4,0.4c-4.5,0-9-0.1-13.4-0.4C13.5,54.2,13.6,52.8,13.9,52z
	 M43.8,60v2.3v4.5c0,0.7,0.6,1.2,1.3,1.2c0.7,0,1.2-0.6,1.2-1.2v-1.7c0.1,0,0.3,0,0.4,0h2.9c1.5,0,2.8,1.2,2.9,2.7
	c0,0.7-0.3,1.4-0.8,2c-0.5,0.5-1.2,0.8-1.9,0.8h-3c-1.6,0-2.9,1.3-2.9,2.9v1.8c0,1-0.8,1.8-1.7,1.9c-4.8,0.3-9.7,0.5-14.5,0.5
	c-4.8,0-9.7-0.2-14.5-0.5c-1-0.1-1.8-0.9-1.8-1.9v-1.8c0-1.6-1.3-2.9-2.9-2.9h-3c-0.7,0-1.4-0.3-1.9-0.8c-0.5-0.5-0.8-1.2-0.8-2
	c0-1.5,1.3-2.7,2.8-2.7h2.9c0.1,0,0.3,0,0.4,0v1.7c0,0.7,0.5,1.2,1.2,1.2c0.7,0,1.3-0.6,1.3-1.2v-4.4v-0.1c0,0,0-0.1,0-0.1V60
	c0-1.1,0.9-1.9,2-1.9c0,0,0.1,0,0.1,0c4.7,0.3,9.5,0.5,14.2,0.5c4.7,0,9.5-0.2,14.2-0.5c0,0,0.1,0,0.1,0C42.9,58.1,43.8,59,43.8,60z
	"/>
<path class="st0" d="M13.1,21.7C13.1,21.7,13.1,21.7,13.1,21.7c-1-0.1-1.8-0.9-1.8-1.9v-1.8c0-1.6-1.3-2.9-2.9-2.9h-3
	c-0.7,0-1.4-0.3-1.9-0.8c-0.5-0.5-0.8-1.2-0.8-2c0-1.4,1.3-2.7,2.8-2.7h2.9c0.1,0,0.3,0,0.4,0v1.7c0,0.7,0.5,1.2,1.2,1.2
	c0.7,0,1.3-0.5,1.3-1.2V7V6.9c0,0,0-0.1,0-0.1V4.6c0-1.1,0.9-1.9,2-1.8c4.7,0.3,9.5,0.4,14.3,0.4c4.7,0,9.5-0.2,14.2-0.4
	c1.1-0.1,2,0.8,2,1.8v2.3v4.5c0,0.7,0.6,1.2,1.3,1.2c0.7,0,1.2-0.5,1.2-1.2V9.8c0.1,0,0.3,0,0.4,0h2.9c1.5,0,2.8,1.2,2.9,2.7
	c0,0.7-0.3,1.4-0.8,2c-0.5,0.5-1.2,0.8-1.9,0.8h-3c-1.6,0-2.9,1.3-2.9,2.9v1.8c0,1-0.7,1.8-1.7,1.9c0,0,0,0-0.1,0
	c-0.1,0-0.2,0-0.2,0c-4.7,0.3-9.5,0.4-14.2,0.4h18c0.4-0.7,0.7-1.5,0.7-2.3v-1.8c0-0.2,0.2-0.4,0.4-0.4h3c1.4,0,2.7-0.6,3.7-1.6
	c1-1,1.5-2.3,1.5-3.7c-0.1-2.8-2.5-5.1-5.4-5.1h-2.9c-0.2,0-0.4-0.2-0.4-0.4V4.6c0-2.5-2.1-4.5-4.6-4.4C37,0.6,32.3,0.7,27.6,0.7
	c-4.7,0-9.4-0.2-14.1-0.5C11,0.1,8.9,2.1,8.9,4.6v2.3c0,0.2-0.2,0.4-0.4,0.4H5.6c-2.9,0-5.3,2.3-5.4,5.1c0,1.4,0.5,2.7,1.5,3.7
	c1,1,2.3,1.6,3.7,1.6h3c0.2,0,0.4,0.2,0.4,0.4v1.8c0,0.9,0.2,1.6,0.7,2.3h18.1C22.8,22.2,17.9,22.1,13.1,21.7z"/>
<path class="st0" d="M13.3,30.5h0.2h28.1h0.2h0.1h3.9c-0.5-1-1.3-1.8-2.3-2.2v0c0.6-1.8,0.4-3.4,0.2-4.4c0.8-0.4,1.4-0.9,1.9-1.7
	h-18H9.5c0.4,0.7,1.1,1.3,1.9,1.7c-0.3,1.1-0.5,2.7,0.2,4.4v0c-1,0.4-1.8,1.2-2.3,2.2h3.9H13.3z M13.9,24.3
	c4.5,0.3,9.2,0.4,13.7,0.4c4.5,0,9.2-0.2,13.7-0.4c0.2,0.8,0.4,2.2-0.3,3.7c-4.4,0.3-9,0.4-13.4,0.4c-4.5,0-9-0.1-13.4-0.4
	C13.5,26.5,13.6,25.1,13.9,24.3z"/>
</svg>
