<?xml version="1.0" encoding="utf-8"?>
<!-- Generator: Adobe Illustrator 23.0.3, SVG Export Plug-In . SVG Version: 6.00 Build 0)  -->
<svg version="1.1" id="_xF91C_迹_x5F_1" xmlns="http://www.w3.org/2000/svg" xmlns:xlink="http://www.w3.org/1999/xlink" x="0px"
	 y="0px" viewBox="0 0 1945 1734" style="enable-background:new 0 0 1945 1734;" xml:space="preserve">
<style type="text/css">
	.st0{fill:#FFFFFF;}
</style>
<g>
	<g>
		<path class="st0" d="M1027.2,275.4C926.4,134.2,798.8,46.4,647.9,14.5c-171-36.1-332.6-4.1-455,90.2
			C84.6,188.2,34.6,296.2,11.7,372.1c-6.3,20.8,5.5,42.8,26.4,49.1c20.8,6.3,42.8-5.5,49.1-26.4c19.5-64.9,62.1-157,153.9-227.7
			c103.9-80,242.6-106.9,390.7-75.6C762.6,119.2,874.1,196.5,963,321.2c98.7,138.3,114.8,269.4,110.9,354.9
			c-9.8,217-152.5,362.8-181,389.8c-53.9,51.1-110.8,85.5-161.1,115.9c-68.5,41.4-127.7,77.2-152.8,139.8
			c-14,35.1-27.4,71-39.2,102.7c-13,34.9-27.7,74.5-33.2,84.1c-23.1,40-88.5,134.3-195.7,146c-18,2-111.3,8.2-177.2-62
			c-52.9-56.3-69.1-140.2-42.4-218.7c7-20.6-4-43-24.6-50c-20.6-7-43,4-50,24.6c-36.2,106.2-13.4,220.4,59.5,298.1
			c77.5,82.6,180.6,89.2,225.2,87.6c8-0.3,14.2-0.8,17.9-1.2c63-6.8,121-34,172.4-80.8c39.8-36.1,67.1-76.6,83-104.1
			c8.4-14.6,19.1-43,38.9-96c11.6-31.2,24.8-66.7,38.5-100.8c15.3-38.1,61.7-66.1,120.4-101.6c53.6-32.4,114.4-69.2,174.5-126.2
			c32.3-30.7,194.3-196.2,205.5-443.4C1157.1,581.7,1138.9,432,1027.2,275.4z"/>
		<path class="st0" d="M170.4,950.7c-23.3,24.2-47.4,49.2-48.3,93c-1.2,62.5,44.6,119.8,140.1,175.2c6.6,3.9,14,5.6,21.1,5.3
			c13.1-0.5,25.7-7.4,32.7-19.6c10.9-18.8,4.5-42.9-14.3-53.8c-65.6-38.1-101.4-75.6-100.9-105.6c0.2-11.6,5.5-18.3,26.2-39.8
			c19-19.7,45.1-46.8,67.1-91.4c42.1-85.4,39.7-173.5,33.8-228.4c95.2-21.9,158.3,1.8,195,26.3c49.9,33.3,72.5,80.9,77.1,114.3
			c11.9,87.4-8.3,152.6-56.7,183.6l-1.2,0.8c-18.3,11.8-23.5,36.2-11.6,54.5c7.8,12,21.1,18.4,34.5,18c6.9-0.2,13.8-2.3,20-6.3
			l0.8-0.5c43.9-28.1,114.2-99.3,92.3-260.6c-8.9-65.3-50.5-128.6-111.4-169.3c-49.1-32.8-131.8-64.9-251.7-38.6
			c-9-36.3-20.6-61.2-29.6-80.8c-11.4-24.6-16.6-35.8-13.1-56.6c12.5-73.8,109.8-134.7,192.8-148.9c134-22.9,282.4,66.9,337.8,204.5
			c59.7,148.2-18.5,286.4-34.8,312.6c-11.5,18.5-5.8,42.8,12.7,54.3c18.5,11.5,42.8,5.8,54.3-12.7c19.8-31.9,115-200.2,41-383.7
			c-32.8-81.5-93.8-152.4-171.7-199.7c-79.6-48.4-169.3-67.2-252.5-53c-110.4,18.9-238,100.1-257.2,213.4
			c-7.6,44.8,6.1,74.3,19.3,102.8c11.6,25,24.7,53.3,32,104.6c6.1,42.6,18.7,131.3-22.3,214.4C207,912.8,187.6,932.9,170.4,950.7z"
			/>
	</g>
	<g>
		<g>
			<path class="st0" d="M1675.6,1499.1c0.2,0.3,0.4,0.6,0.6,0.9c14.1,20,43.1,21.7,59.3,3.3c62.5-71.1,112.1-151.4,147.6-239.1
				c41.1-101.3,61.9-208.3,61.9-318.1c0-109.8-20.8-216.8-61.9-318.1c-34.8-85.8-83-164.5-143.6-234.5c-15.1-17.4-42-17.8-57.4-0.7
				l0,0c-12.9,14.3-13.3,36-0.7,50.6c250.3,289.2,249.2,721-3.2,1009C1666.7,1465.6,1665.6,1484.8,1675.6,1499.1z"/>
		</g>
		<g>
			<path class="st0" d="M1498.1,608.8l0.2,0.2l0,0c159.9,187.3,165.6,459.9,17,653.3c-9.7,12.7-10.6,30-2.2,43.6l0,0
				c14.2,23.1,47.2,24.7,63.7,3.1c32.1-42.1,58.4-88.1,78.4-137.4c29.1-71.7,43.8-147.6,43.8-225.5c0-77.9-14.7-153.8-43.8-225.5
				c-23.9-58.9-56.7-113.1-97.9-161.6c-11.7-13.7-31.2-17.6-47.2-9.4l0,0c-21.7,11.2-27.7,39.6-12.3,58.6
				C1497.8,608.4,1498,608.6,1498.1,608.8z"/>
		</g>
		<g>
			<path class="st0" d="M1329.4,792.1c61.7,92.4,61.8,215.4,0.1,307.9c-10.5,15.8-7.7,36.9,6.4,49.6l0,0
				c17.4,15.6,44.5,12.1,57.6-7.3c15.2-22.6,27.6-46.9,37.2-72.5c14.7-39.4,22.2-81,22.2-123.6c0-42.7-7.5-84.3-22.2-123.8
				c-9.6-25.6-22.1-49.9-37.3-72.6c-13-19.4-40.2-22.9-57.6-7.3l0,0C1321.7,755.1,1318.9,776.3,1329.4,792.1z"/>
		</g>
	</g>
</g>
</svg>
