<svg width="12" height="10" viewBox="0 0 12 10" fill="none" xmlns="http://www.w3.org/2000/svg">
<path d="M11.7496 1.5621C11.6812 1.25962 11.5473 0.983765 11.3612 0.762159C11.175 0.540553 10.9432 0.380964 10.6888 0.299363C9.75268 6.07436e-08 6 0 6 0C6 0 2.24732 -6.07436e-08 1.31116 0.297771C1.05672 0.379107 0.824765 0.538607 0.638579 0.760254C0.452393 0.981901 0.318535 1.25789 0.250446 1.56051C-5.10897e-08 2.67516 0 5 0 5C0 5 -5.10897e-08 7.32484 0.250446 8.4379C0.388393 9.05255 0.795536 9.53662 1.31116 9.70064C2.24732 10 6 10 6 10C6 10 9.75268 10 10.6888 9.70064C11.2058 9.53662 11.6116 9.05255 11.7496 8.4379C12 7.32484 12 5 12 5C12 5 12 2.67516 11.7496 1.5621ZM4.80804 7.13376V2.86624L7.91518 4.98408L4.80804 7.13376Z" fill="#FB3116"/>
</svg>
