<?xml version="1.0" encoding="utf-8"?>
<!-- Generator: Adobe Illustrator 23.0.3, SVG Export Plug-In . SVG Version: 6.00 Build 0)  -->
<svg version="1.1" id="Icons" xmlns="http://www.w3.org/2000/svg" xmlns:xlink="http://www.w3.org/1999/xlink" x="0px" y="0px"
	 viewBox="0 0 111.7 107.1" style="enable-background:new 0 0 111.7 107.1;" xml:space="preserve">
<style type="text/css">
	.st0{fill:none;stroke:#FFFFFF;stroke-width:3;stroke-linecap:round;stroke-linejoin:round;stroke-miterlimit:10;}
	.st1{fill:none;stroke:#FFFFFF;stroke-width:2;stroke-linecap:round;stroke-linejoin:round;stroke-miterlimit:10;}
</style>
<g>
	<path class="st0" d="M19,53.4L8.5,32.7c-1.1-2.3-4.1-3-6.2-1.4c-0.7,0.6-1,1.5-0.8,2.4l8.6,32.2c0.4,1.2,1,2.3,1.9,3.2l15.6,20.5
		c1.5,1.8,1.8,3.5,1.8,5.3v1.8"/>
	<path class="st0" d="M29.4,68.6l-9.4-13.8c-0.9-1.3-0.5-3,0.8-3.9c2.8-1.7,7.6-1.6,10.5,2.6l3.8,5.6c1.9,2.8,4,4.1,6.6,5.8
		c10.2,6.6,9.3,10.9,9.6,17.6v14.1"/>
	<path class="st0" d="M69.5,1.5c-5.3,0-10.1,2.1-13.7,5.5C52.2,3.6,47.3,1.5,42,1.5c-11,0-20,8.9-20,20c0,22.5,33.7,41.9,33.7,41.9
		s33.7-19.5,33.7-41.9C89.4,10.4,80.5,1.5,69.5,1.5z"/>
	<polyline class="st0" points="52.3,96.6 52.3,105.6 28.3,105.6 28.3,96.6 	"/>
	<line class="st1" x1="28.8" y1="97.1" x2="51.8" y2="97.1"/>
	<path class="st0" d="M92.7,53.4l10.5-20.7c1.1-2.3,4.1-3,6.2-1.4c0.7,0.6,1,1.5,0.8,2.4l-8.6,32.2c-0.4,1.2-1,2.3-1.9,3.2
		L84.1,89.5c-1.5,1.8-1.8,3.5-1.8,5.3v1.8"/>
	<path class="st0" d="M82.3,68.6l9.4-13.8c0.9-1.3,0.5-3-0.8-3.9c-2.8-1.7-7.6-1.6-10.5,2.6l-3.8,5.6c-1.9,2.8-4,4.1-6.6,5.8
		c-10.2,6.6-9.3,10.9-9.6,17.6v14.1"/>
	<polyline class="st0" points="59.3,96.6 59.3,105.6 83.3,105.6 83.3,96.6 	"/>
	<line class="st1" x1="82.8" y1="97.1" x2="59.8" y2="97.1"/>
</g>
</svg>
