<svg width="14" height="14" viewBox="0 0 14 14" fill="none" xmlns="http://www.w3.org/2000/svg">
<path d="M7 8.75C7.9665 8.75 8.75 7.9665 8.75 7C8.75 6.0335 7.9665 5.25 7 5.25C6.0335 5.25 5.25 6.0335 5.25 7C5.25 7.9665 6.0335 8.75 7 8.75Z" fill="#A2A2A2"/>
<path d="M13.422 6.52422C12.6984 5.40531 11.7597 4.45484 10.7075 3.77535C9.54351 3.02285 8.25836 2.625 6.99125 2.625C5.82859 2.625 4.68535 2.95723 3.59324 3.61238C2.47953 4.28039 1.47055 5.25629 0.594178 6.51273C0.495244 6.65473 0.440758 6.82294 0.437642 6.99597C0.434526 7.16901 0.482921 7.33906 0.576678 7.48453C1.29883 8.61465 2.22824 9.56648 3.26402 10.2367C4.43023 10.9922 5.68531 11.375 6.99125 11.375C8.26847 11.375 9.55637 10.9804 10.7155 10.2342C11.7671 9.55691 12.7039 8.60289 13.4247 7.47469C13.5152 7.3326 13.5631 7.16753 13.5626 6.99905C13.5621 6.83058 13.5133 6.66578 13.422 6.52422ZM7.00055 9.625C6.48137 9.625 5.97385 9.47105 5.54217 9.18261C5.11049 8.89417 4.77404 8.4842 4.57536 8.00454C4.37668 7.52489 4.3247 6.99709 4.42598 6.48789C4.52727 5.97869 4.77728 5.51096 5.14439 5.14384C5.5115 4.77673 5.97923 4.52673 6.48843 4.42544C6.99763 4.32415 7.52543 4.37614 8.00509 4.57482C8.48475 4.7735 8.89471 5.10995 9.18315 5.54163C9.47159 5.97331 9.62554 6.48082 9.62554 7C9.62475 7.69595 9.34793 8.36317 8.85582 8.85528C8.36371 9.34739 7.69649 9.6242 7.00055 9.625Z" fill="#A2A2A2"/>
</svg>
