<svg width="6" height="11" viewBox="0 0 6 11" fill="none" xmlns="http://www.w3.org/2000/svg">
<path d="M1.47604 5.13953L5.45729 9.12078C5.59271 9.2562 5.65825 9.41419 5.65392 9.59474C5.64958 9.7753 5.57953 9.93328 5.44375 10.0687C5.30833 10.2041 5.15035 10.2718 4.96979 10.2718C4.78924 10.2718 4.63125 10.2041 4.49583 10.0687L0.325 5.91141C0.216667 5.80308 0.135417 5.6812 0.08125 5.54578C0.0270834 5.41037 0 5.27495 0 5.13953C0 5.00412 0.0270834 4.8687 0.08125 4.73328C0.135417 4.59787 0.216667 4.47599 0.325 4.36766L4.49583 0.196826C4.63125 0.0614098 4.79158 -0.00413178 4.97683 0.000201551C5.16208 0.00453488 5.32224 0.0745904 5.45729 0.210368C5.59271 0.345785 5.66042 0.503771 5.66042 0.684326C5.66042 0.864882 5.59271 1.02287 5.45729 1.15828L1.47604 5.13953Z" fill="#333333"/>
</svg>
