<svg width="14" height="15" viewBox="0 0 14 15" fill="none" xmlns="http://www.w3.org/2000/svg">
<path d="M2.99985 3V0.75C2.99985 0.33579 3.33564 0 3.74985 0H12.7498C13.1641 0 13.4998 0.33579 13.4998 0.75V11.25C13.4998 11.6642 13.1641 12 12.7498 12H10.4998V14.2493C10.4998 14.6639 10.1624 15 9.74475 15H0.754995C0.337942 15 0 14.6665 0 14.2493L0.00194997 3.75065C0.00202497 3.33608 0.33948 3 0.757065 3H2.99985ZM1.50181 4.5L1.50014 13.5H8.99985V4.5H1.50181ZM4.49985 3H10.4998V10.5H11.9998V1.5H4.49985V3ZM3 6.75H7.5V8.25H3V6.75ZM3 9.75H7.5V11.25H3V9.75Z" fill="#333333"/>
</svg>
