<svg width="18" height="18" viewBox="0 0 18 18" fill="none" xmlns="http://www.w3.org/2000/svg">
<path fill-rule="evenodd" clip-rule="evenodd" d="M13.2744 1.82041L11.8815 2.60351C11.4742 2.38511 11.0457 2.20872 10.6026 2.07706L10.0872 0.526218C10.051 0.41686 9.98131 0.321667 9.888 0.254142C9.79468 0.186617 9.68248 0.150188 9.56729 0.150024H7.61942C7.49987 0.150127 7.38363 0.189294 7.2884 0.261561C7.19316 0.333829 7.12415 0.435237 7.09188 0.550347L6.66194 2.08912C6.21941 2.22304 5.79166 2.40163 5.38529 2.62215L3.92329 1.88841C3.8202 1.83677 3.70346 1.81894 3.58965 1.83744C3.47585 1.85595 3.37077 1.90986 3.28936 1.99151L1.91071 3.36906C1.82606 3.45373 1.77144 3.56378 1.7552 3.68241C1.73896 3.80103 1.76199 3.92172 1.82078 4.02602L2.60387 5.41893C2.38562 5.82473 2.20904 6.25248 2.07742 6.69777L0.526584 7.21325C0.417226 7.24942 0.322033 7.3191 0.254508 7.41242C0.186983 7.50573 0.150555 7.61794 0.150391 7.73312V9.68209C0.150493 9.80164 0.18966 9.91788 0.261928 10.0131C0.334195 10.1083 0.435603 10.1774 0.550713 10.2096L2.08949 10.6396C2.22329 11.0838 2.40207 11.5104 2.62252 11.9162L1.88878 13.3782C1.83714 13.4813 1.8193 13.5981 1.83781 13.7119C1.85632 13.8257 1.91023 13.9307 1.99187 14.0122L3.36942 15.3897C3.4541 15.4744 3.56415 15.529 3.68277 15.5452C3.8014 15.5615 3.92208 15.5384 4.02639 15.4796L5.41929 14.6965C5.8251 14.9148 6.25284 15.0914 6.69813 15.223L7.21362 16.7738C7.24978 16.8832 7.31947 16.9784 7.41278 17.0459C7.5061 17.1134 7.6183 17.1499 7.73349 17.15H9.68246C9.802 17.1499 9.91825 17.1108 10.0135 17.0385C10.1087 16.9662 10.1777 16.8648 10.21 16.7497L10.6399 15.2109C11.0825 15.077 11.5102 14.8984 11.9166 14.6779L13.3786 15.4116C13.4816 15.4634 13.5982 15.4814 13.712 15.4631C13.8258 15.4448 13.931 15.3911 14.0125 15.3096L15.3901 13.931C15.4747 13.8463 15.5293 13.7363 15.5456 13.6176C15.5618 13.499 15.5388 13.3783 15.48 13.274L14.6969 11.8811C14.9152 11.4753 15.0917 11.0476 15.2234 10.6023L16.7742 10.0868C16.8836 10.0506 16.9787 9.98095 17.0463 9.88763C17.1138 9.79432 17.1502 9.68211 17.1504 9.56693V7.61906C17.1503 7.49951 17.1111 7.38327 17.0389 7.28803C16.9666 7.1928 16.8652 7.12379 16.7501 7.09151L15.2113 6.66157C15.0774 6.21903 14.8988 5.79127 14.6783 5.38493L15.412 3.92293C15.4638 3.81995 15.4818 3.70327 15.4635 3.58947C15.4452 3.47567 15.3915 3.37053 15.31 3.28899L13.9314 1.91144C13.8467 1.82679 13.7366 1.77217 13.618 1.75593C13.4994 1.73969 13.3787 1.76163 13.2744 1.82041ZM12.1513 3.71125L13.4499 2.9797L14.2538 3.78364L13.5661 5.15461C13.5247 5.23733 13.5049 5.32918 13.5086 5.42161C13.5122 5.51404 13.5392 5.60404 13.587 5.68325C13.8776 6.16583 14.0959 6.69009 14.2341 7.23848C14.2576 7.33229 14.3054 7.41823 14.3728 7.48757C14.4403 7.55692 14.5248 7.6072 14.6179 7.63332L16.0536 8.03473V9.17209L14.5982 9.65467C14.5103 9.68377 14.4313 9.73464 14.3684 9.80252C14.3055 9.87041 14.2608 9.95311 14.2385 10.0429C14.1026 10.5909 13.8864 11.1157 13.5968 11.6003C13.5471 11.6833 13.5202 11.7779 13.5189 11.8746C13.5175 11.9713 13.5418 12.0666 13.5892 12.1509L14.3207 13.4495L13.5168 14.2534L12.1458 13.5658C12.0631 13.5244 11.9712 13.5046 11.8788 13.5082C11.7864 13.5119 11.6964 13.5388 11.6172 13.5866C11.1346 13.8773 10.6103 14.0955 10.0619 14.2337C9.96812 14.2572 9.88218 14.3051 9.81284 14.3725C9.7435 14.4399 9.69322 14.5245 9.6671 14.6176L9.26568 16.0533H8.12942L7.64684 14.5978C7.61764 14.5098 7.56661 14.4307 7.49852 14.3678C7.43043 14.3049 7.3475 14.2603 7.25749 14.2381C6.70954 14.1022 6.18471 13.886 5.70007 13.5965C5.61712 13.5468 5.5225 13.5199 5.42581 13.5185C5.32912 13.5172 5.23379 13.5414 5.14949 13.5888L3.85091 14.3203L3.04697 13.5164L3.73465 12.1454C3.77604 12.0627 3.79584 11.9709 3.7922 11.8784C3.78855 11.786 3.76159 11.696 3.71381 11.6168C3.42255 11.1332 3.20449 10.6091 3.06671 10.0616C3.04323 9.96776 2.99535 9.88182 2.92793 9.81248C2.86052 9.74313 2.77596 9.69285 2.68284 9.66673L1.24716 9.26532V8.12906L2.70258 7.64648C2.79037 7.61712 2.86929 7.56602 2.932 7.49794C2.99471 7.42986 3.03917 7.34701 3.06123 7.25712C3.19833 6.70873 3.41549 6.18338 3.70394 5.6997C3.75365 5.61676 3.78054 5.52214 3.78189 5.42545C3.78324 5.32875 3.759 5.23342 3.71162 5.14912L2.98007 3.85054L3.784 3.0466L5.15497 3.73428C5.23769 3.77568 5.32954 3.79547 5.42197 3.79183C5.5144 3.78819 5.60441 3.76122 5.68362 3.71344C6.1662 3.4228 6.69046 3.20454 7.23884 3.06635C7.33266 3.04286 7.4186 2.99498 7.48794 2.92757C7.55728 2.86015 7.60756 2.77559 7.63368 2.68248L8.0351 1.2468H9.17245L9.65504 2.70222C9.6843 2.78987 9.73523 2.8687 9.80311 2.9314C9.87098 2.9941 9.9536 3.03864 10.0433 3.06086C10.5917 3.19796 11.117 3.41512 11.6007 3.70357C11.6837 3.75328 11.7783 3.78018 11.875 3.78152C11.9717 3.78287 12.067 3.75863 12.1513 3.71125Z" fill="#333333" stroke="#333333" stroke-width="0.3"/>
</svg>
