<svg width="49" height="51" viewBox="0 0 49 51" fill="none" xmlns="http://www.w3.org/2000/svg">
<g clip-path="url(#clip0_336_3389)">
<path d="M33.587 5.00452H2.4043V45.9955H33.587V5.00452Z" fill="#D5E1EF"/>
<path d="M31.7793 5.00452H2.4043V45.9955H31.7793V5.00452Z" fill="white"/>
<path d="M33.587 5.00451H2.4043V3.20271C2.4043 2.21172 3.21776 1.40091 4.21199 1.40091H31.7793C32.7735 1.40091 33.587 2.21172 33.587 3.20271V5.00451Z" fill="#4F88FF"/>
<path d="M31.7793 5.00451H2.4043V3.20271C2.4043 2.21172 3.21776 1.40091 4.21199 1.40091H29.9716C30.9658 1.40091 31.7793 2.21172 31.7793 3.20271V5.00451Z" fill="#74AAFF"/>
<path d="M31.7793 45.9955H2.4043V47.7973C2.4043 48.7883 3.21776 49.5991 4.21199 49.5991H29.9716C30.9658 49.5991 31.7793 48.7883 31.7793 47.7973V45.9955Z" fill="#74AAFF"/>
<path d="M37.0654 45.9955H20.6154C18.7626 45.9955 17.3164 47.482 17.3164 49.2838V50.0495H40.3645V49.2838C40.3645 47.482 38.8731 45.9955 37.0654 45.9955Z" fill="#FFAA4C"/>
<path d="M36.0712 45.9955H19.802C18.4462 45.9955 17.3164 47.1216 17.3164 48.473V49.5991H38.5568V48.473C38.5568 47.1216 37.427 45.9955 36.0712 45.9955Z" fill="#FFC960"/>
<path d="M35.3948 45.545H22.2891V44.4189C22.2891 43.7883 22.7862 43.2928 23.4189 43.2928H34.2198C34.8525 43.2928 35.3496 43.7883 35.3496 44.4189V45.545H35.3948Z" fill="#FFAA4C"/>
<path d="M34.0391 45.545H22.2891V44.3739C22.2891 43.7883 22.7862 43.2928 23.3737 43.2928H32.9544C33.5419 43.2928 34.0391 43.7883 34.0391 44.3739V45.545Z" fill="#FFC960"/>
<path d="M28.841 16.2657C30.2138 16.2657 31.3266 15.1565 31.3266 13.7883C31.3266 12.42 30.2138 11.3108 28.841 11.3108C27.4683 11.3108 26.3555 12.42 26.3555 13.7883C26.3555 15.1565 27.4683 16.2657 28.841 16.2657Z" fill="#FFC960"/>
<path d="M15.962 28.4279H11.4428C9.68026 28.4279 8.2793 27.0315 8.2793 25.2748H19.1255C19.1255 27.0315 17.7245 28.4279 15.962 28.4279Z" fill="#FFAA4C"/>
<path d="M14.4255 28.4279H11.1716C9.58987 28.4279 8.2793 27.1216 8.2793 25.545V25.2748H17.3178V25.545C17.3178 27.1216 16.0072 28.4279 14.4255 28.4279Z" fill="#FFC960"/>
<path d="M44.4327 36.9865H39.9135C38.151 36.9865 36.75 35.5901 36.75 33.8333H47.5962C47.5962 35.5901 46.1952 36.9865 44.4327 36.9865Z" fill="#FFAA4C"/>
<path d="M42.8962 36.9865H39.6423C38.0606 36.9865 36.75 35.6802 36.75 34.1036V33.8333H45.7885V34.1036C45.7885 35.6802 44.4779 36.9865 42.8962 36.9865Z" fill="#FFC960"/>
<path d="M23.8703 37.2117H6.69727" stroke="#C5D5F0" stroke-width="1.2" stroke-miterlimit="10" stroke-linecap="round" stroke-linejoin="round"/>
<path d="M15.2838 41.2657H6.69727" stroke="#C5D5F0" stroke-width="1.2" stroke-miterlimit="10" stroke-linecap="round" stroke-linejoin="round"/>
<path d="M6.69727 33.1577H23.8703" stroke="#C5D5F0" stroke-width="1.2" stroke-miterlimit="10" stroke-linecap="round" stroke-linejoin="round"/>
<path d="M4.39216 49.8243C3.17197 49.8243 2.17773 48.8333 2.17773 47.6171V3.3829C2.17773 2.16668 3.17197 1.17569 4.39216 1.17569H31.5979C32.8181 1.17569 33.8124 2.16668 33.8124 3.3829V42.6171" stroke="#252D32" stroke-width="1.2" stroke-miterlimit="10" stroke-linecap="round" stroke-linejoin="round"/>
<path d="M2.85547 5.00452H33.5862" stroke="#252D32" stroke-width="1.2" stroke-miterlimit="10" stroke-linecap="round" stroke-linejoin="round"/>
<path d="M2.85547 45.9955H20.0285" stroke="#252D32" stroke-width="1.2" stroke-miterlimit="10" stroke-linecap="round" stroke-linejoin="round"/>
<path d="M4.16602 49.8243H40.5458" stroke="#252D32" stroke-width="1.2" stroke-miterlimit="10" stroke-linecap="round" stroke-linejoin="round"/>
<path d="M17.0918 49.3739C17.0918 47.3919 18.7187 45.7703 20.7072 45.7703H36.9764C38.9649 45.7703 40.5918 47.3919 40.5918 49.3739" stroke="#252D32" stroke-width="1.2" stroke-miterlimit="10" stroke-linecap="round" stroke-linejoin="round"/>
<path d="M28.8418 11.0856V8.38287" stroke="#252D32" stroke-width="1.2" stroke-miterlimit="10" stroke-linecap="round" stroke-linejoin="round"/>
<path d="M28.8418 43.0675V16.491" stroke="#252D32" stroke-width="1.2" stroke-miterlimit="10" stroke-linecap="round" stroke-linejoin="round"/>
<path d="M28.8404 16.491C30.338 16.491 31.552 15.2809 31.552 13.7883C31.552 12.2956 30.338 11.0856 28.8404 11.0856C27.3429 11.0856 26.1289 12.2956 26.1289 13.7883C26.1289 15.2809 27.3429 16.491 28.8404 16.491Z" stroke="#252D32" stroke-width="1.2" stroke-miterlimit="10" stroke-linecap="round" stroke-linejoin="round"/>
<path d="M15.7354 28.6532H11.6681C9.67966 28.6532 8.05273 27.0315 8.05273 25.0496H19.3508C19.3508 27.0315 17.7239 28.6532 15.7354 28.6532Z" stroke="#252D32" stroke-width="1.2" stroke-miterlimit="10" stroke-linecap="round" stroke-linejoin="round"/>
<path d="M8.73047 24.8243L13.7016 14.0135L18.6728 24.8243" stroke="#252D32" stroke-width="1.2" stroke-miterlimit="10" stroke-linecap="round" stroke-linejoin="round"/>
<path d="M11.2168 12.5721L12.9341 13.1126C14.4255 13.5631 16.0976 13.2928 17.3178 12.3468C18.538 11.4009 20.2101 11.1306 21.7014 11.5811L25.7687 12.8423" stroke="#252D32" stroke-width="1.2" stroke-miterlimit="10" stroke-linecap="round" stroke-linejoin="round"/>
<path d="M40.1388 37.2117H44.2061C46.1946 37.2117 47.8215 35.5901 47.8215 33.6081H36.5234C36.5234 35.5901 38.1504 37.2117 40.1388 37.2117Z" stroke="#252D32" stroke-width="1.2" stroke-miterlimit="10" stroke-linecap="round" stroke-linejoin="round"/>
<path d="M47.1454 33.3829L42.1743 22.5721L37.2031 33.3829" stroke="#252D32" stroke-width="1.2" stroke-miterlimit="10" stroke-linecap="round" stroke-linejoin="round"/>
<path d="M44.0261 22.7523L42.3088 22.2117C40.8175 21.7613 39.5973 20.5901 39.1002 19.1036C38.6031 17.6171 37.4281 16.446 35.8915 15.9955L31.8242 14.7343" stroke="#252D32" stroke-width="1.2" stroke-miterlimit="10" stroke-linecap="round" stroke-linejoin="round"/>
<path d="M35.6202 45.7703V44.464C35.6202 43.6982 34.9875 43.0676 34.2192 43.0676H23.4635C22.6952 43.0676 22.0625 43.6982 22.0625 44.464V45.7703" stroke="#252D32" stroke-width="1.2" stroke-miterlimit="10" stroke-linecap="round" stroke-linejoin="round"/>
</g>
<defs>
<clipPath id="clip0_336_3389">
<rect width="49" height="51" fill="white"/>
</clipPath>
</defs>
</svg>
