<svg width="46" height="55" viewBox="0 0 46 55" fill="none" xmlns="http://www.w3.org/2000/svg">
<g clip-path="url(#clip0_336_3445)">
<path d="M7.35992 37.5833C5.56592 37.5833 4.13992 36.1625 4.13992 34.375C4.13992 32.5875 5.56592 31.1666 7.35992 31.1666H45.0799V27.9583H7.35992C3.81792 27.9583 0.919922 30.8458 0.919922 34.375C0.919922 37.9041 3.81792 40.7916 7.35992 40.7916H45.0799V37.5833H7.35992Z" fill="#FFC960"/>
<path d="M41.8593 34.375C41.8593 32.7708 42.7793 31.1666 42.7793 31.1666H8.2793V37.5833H42.7793C42.7793 37.5833 41.8593 36.4833 41.8593 34.375Z" fill="#DCE6F6"/>
<path d="M42.2733 31.1666H8.2793V33.4583H41.7673L42.2733 31.1666Z" fill="#C5D5F0"/>
<path d="M24.4721 5.31665C24.4721 5.31665 22.3101 6.50832 20.4241 5.82082C18.5381 5.13332 17.6641 2.84165 17.6641 2.84165C17.6641 2.84165 19.8261 1.64999 21.7121 2.33749C23.5521 3.02499 24.4721 5.31665 24.4721 5.31665Z" fill="#FFC960"/>
<path d="M28.565 8.70831C27.139 8.70831 25.805 9.16665 24.655 9.89998C23.551 9.16665 22.217 8.70831 20.791 8.70831C16.651 8.70831 13.293 12.4208 13.293 16.9583C13.293 22.6416 18.997 29.3333 24.655 27.2708C30.359 29.2875 36.063 22.5958 36.063 16.9583C36.063 12.375 32.705 8.70831 28.565 8.70831Z" fill="#E23B3B"/>
<path d="M32.9818 16.9583C32.9818 12.9708 30.4518 9.67081 27.0478 8.89164C26.2198 9.07497 25.4378 9.44164 24.7018 9.89997C24.1958 9.57914 20.5158 8.61664 19.2738 8.89164C15.8698 9.67081 13.3398 12.9708 13.3398 16.9583C13.3398 21.3583 16.7898 26.4 20.9758 27.4541C22.6318 27.9125 24.0578 27.8208 25.3458 27.4541C29.5318 26.4 32.9818 21.3583 32.9818 16.9583Z" fill="#FF5F5F"/>
<path d="M7.36062 37.5833H8.28062V31.1666H7.36062C5.56662 31.1666 4.14062 32.5875 4.14062 34.375C4.14062 36.1625 5.56662 37.5833 7.36062 37.5833Z" fill="white"/>
<path d="M7.35992 50.875C5.56592 50.875 4.13992 49.4542 4.13992 47.6667C4.13992 45.8792 5.56592 44.4583 7.35992 44.4583H45.0799V41.25H7.35992C3.81792 41.25 0.919922 44.1375 0.919922 47.6667C0.919922 51.1958 3.81792 54.0833 7.35992 54.0833H45.0799V50.875H7.35992Z" fill="#74AAFF"/>
<path d="M41.8593 47.6666C41.8593 46.0625 42.7793 44.4583 42.7793 44.4583H8.2793V50.875H42.7793C42.7793 50.875 41.8593 49.775 41.8593 47.6666Z" fill="#DCE6F6"/>
<path d="M42.2733 44.4583H8.2793V46.75H41.7673L42.2733 44.4583Z" fill="#C5D5F0"/>
<path d="M7.36062 50.875H8.28062V44.4583H7.36062C5.56662 44.4583 4.14062 45.8791 4.14062 47.6666C4.14062 49.4541 5.56662 50.875 7.36062 50.875Z" fill="white"/>
<path d="M8.28031 38.0416C8.00431 38.0416 7.82031 37.8583 7.82031 37.5833V31.1666C7.82031 30.8916 8.00431 30.7083 8.28031 30.7083C8.55631 30.7083 8.74031 30.8916 8.74031 31.1666V37.5833C8.74031 37.8583 8.55631 38.0416 8.28031 38.0416Z" fill="#252D32"/>
<path d="M42.5035 38.0417C42.2735 38.0417 42.0895 37.95 41.9515 37.7667C41.2615 36.8042 40.9395 35.6583 40.9395 34.4667C40.9395 33.275 41.3075 32.0833 41.9975 31.1208C42.2275 30.8 42.6415 30.7542 42.9635 30.9375C43.2855 31.1667 43.3315 31.5792 43.1475 31.9C42.5955 32.6333 42.3195 33.55 42.3195 34.4667C42.3195 35.3833 42.5955 36.2542 43.1015 36.9875C43.3315 37.3083 43.2395 37.7208 42.9175 37.95C42.7795 38.0417 42.6415 38.0417 42.5035 38.0417Z" fill="#252D32"/>
<path d="M22.0795 28.4167C16.7435 28.2333 12.6035 22.0917 12.6035 16.9125C12.6035 12.0083 16.2835 7.97501 20.7915 7.97501C22.1255 7.97501 23.5055 8.34167 24.7015 9.07501C25.8975 8.38751 27.2315 7.97501 28.6115 7.97501C33.1195 7.97501 36.7995 11.9625 36.7995 16.9125C36.7995 21.9083 32.5675 28.1417 27.3235 28.4167H22.0795ZM20.7915 9.35001C17.0195 9.35001 13.9835 12.7417 13.9835 16.9125C13.9835 21.3583 17.6175 26.9042 22.1255 27.0417H27.2775C31.6475 26.8125 35.4195 21.2667 35.4195 16.9125C35.4195 12.7417 32.3835 9.35001 28.6115 9.35001C27.3695 9.35001 26.1735 9.71667 25.1155 10.45C24.8855 10.5875 24.5635 10.5875 24.3335 10.45C23.2295 9.71667 22.0335 9.35001 20.7915 9.35001Z" fill="#252D32"/>
<path d="M24.6099 10.5417C24.2419 10.5417 23.9199 10.2208 23.9199 9.85417V0.6875C23.9199 0.320833 24.2419 0 24.6099 0C24.9779 0 25.2999 0.320833 25.2999 0.6875V9.85417C25.2999 10.2208 24.9779 10.5417 24.6099 10.5417Z" fill="#252D32"/>
<path d="M21.6203 6.55417C21.1603 6.55417 20.7003 6.50833 20.2403 6.325C18.1243 5.59167 17.1123 3.07083 17.1123 2.97917C17.0203 2.75 17.1123 2.52083 17.2963 2.42917C17.3883 2.38333 19.7343 1.00833 21.8503 1.74167C23.9663 2.475 24.9783 4.99583 24.9783 5.0875C25.0703 5.31667 24.9783 5.54583 24.7943 5.6375C24.7023 5.72917 23.2763 6.55417 21.6203 6.55417ZM20.5623 5.5C21.8503 5.95833 23.3223 5.40833 23.9663 5.0875C23.6443 4.44583 22.8163 3.11667 21.5283 2.65833C20.2403 2.2 18.7683 2.75 18.1243 3.07083C18.4463 3.7125 19.2743 5.04167 20.5623 5.5Z" fill="#252D32"/>
<path d="M45.31 41.7084H7.36C3.312 41.7084 0 38.4084 0 34.375C0 30.3417 3.312 27.0417 7.36 27.0417H45.31C45.678 27.0417 46 27.3625 46 27.7292V30.9375C46 31.3042 45.678 31.625 45.31 31.625C44.942 31.625 44.62 31.3042 44.62 30.9375V28.4167H7.36C4.048 28.4167 1.38 31.075 1.38 34.375C1.38 37.675 4.048 40.3334 7.36 40.3334H44.62V37.8125C44.62 37.4459 44.942 37.125 45.31 37.125C45.678 37.125 46 37.4459 46 37.8125V41.0209C46 41.3875 45.678 41.7084 45.31 41.7084Z" fill="#252D32"/>
<path d="M45.0797 38.0416H7.35969C5.33569 38.0416 3.67969 36.3916 3.67969 34.375C3.67969 32.3583 5.33569 30.7083 7.35969 30.7083H45.0797C45.3557 30.7083 45.5397 30.8916 45.5397 31.1666C45.5397 31.4416 45.3557 31.625 45.0797 31.625H7.35969C5.84169 31.625 4.59969 32.8625 4.59969 34.375C4.59969 35.8875 5.84169 37.125 7.35969 37.125H45.0797C45.3557 37.125 45.5397 37.3083 45.5397 37.5833C45.5397 37.8583 45.3557 38.0416 45.0797 38.0416Z" fill="#252D32"/>
<path d="M8.28031 51.3333C8.00431 51.3333 7.82031 51.15 7.82031 50.875V44.4583C7.82031 44.1833 8.00431 44 8.28031 44C8.55631 44 8.74031 44.1833 8.74031 44.4583V50.875C8.74031 51.15 8.55631 51.3333 8.28031 51.3333Z" fill="#252D32"/>
<path d="M42.5035 51.3333C42.2735 51.3333 42.0895 51.2417 41.9515 51.0583C41.2615 50.0958 40.9395 48.95 40.9395 47.7583C40.9395 46.5667 41.3075 45.375 41.9975 44.4125C42.2275 44.0917 42.6415 44.0458 42.9635 44.2292C43.2855 44.4583 43.3315 44.8708 43.1475 45.1917C42.5955 45.925 42.3195 46.8417 42.3195 47.7583C42.3195 48.675 42.5955 49.5458 43.1015 50.2792C43.3315 50.6 43.2395 51.0125 42.9175 51.2417C42.7795 51.3333 42.6415 51.3333 42.5035 51.3333Z" fill="#252D32"/>
<path d="M45.31 55H7.36C3.312 55 0 51.7 0 47.6666C0 43.6333 3.312 40.3333 7.36 40.3333H45.31C45.678 40.3333 46 40.6541 46 41.0208V44.2291C46 44.5958 45.678 44.9166 45.31 44.9166C44.942 44.9166 44.62 44.5958 44.62 44.2291V41.7083H7.36C4.048 41.7083 1.38 44.3666 1.38 47.6666C1.38 50.9666 4.048 53.625 7.36 53.625H44.62V51.1041C44.62 50.7375 44.942 50.4166 45.31 50.4166C45.678 50.4166 46 50.7375 46 51.1041V54.3125C46 54.6791 45.678 55 45.31 55Z" fill="#252D32"/>
<path d="M45.0797 51.3333H7.35969C5.33569 51.3333 3.67969 49.6833 3.67969 47.6667C3.67969 45.65 5.33569 44 7.35969 44H45.0797C45.3557 44 45.5397 44.1833 45.5397 44.4583C45.5397 44.7333 45.3557 44.9167 45.0797 44.9167H7.35969C5.84169 44.9167 4.59969 46.1542 4.59969 47.6667C4.59969 49.1792 5.84169 50.4167 7.35969 50.4167H45.0797C45.3557 50.4167 45.5397 50.6 45.5397 50.875C45.5397 51.15 45.3557 51.3333 45.0797 51.3333Z" fill="#252D32"/>
</g>
<defs>
<clipPath id="clip0_336_3445">
<rect width="46" height="55" fill="white"/>
</clipPath>
</defs>
</svg>
