<svg width="15" height="15" viewBox="0 0 15 15" fill="none" xmlns="http://www.w3.org/2000/svg">
<path d="M4.5 1.5L2.25 0L0 1.5V12.75C0 13.9927 1.00736 15 2.25 15H12.75C13.9927 15 15 13.9927 15 12.75V10.5H13.5V1.5L11.25 0L9 1.5L6.75 0L4.5 1.5ZM12 10.5H3V12.75C3 13.1642 2.66421 13.5 2.25 13.5C1.83579 13.5 1.5 13.1642 1.5 12.75V2.30278L2.25 1.80277L4.5 3.30277L6.75 1.80277L9 3.30277L11.25 1.80277L12 2.30278V10.5ZM12.75 13.5H4.37197C4.45489 13.2654 4.5 13.013 4.5 12.75V12H13.5V12.75C13.5 13.1642 13.1642 13.5 12.75 13.5Z" fill="#333333"/>
</svg>
