<svg width="15" height="17" viewBox="0 0 15 17" fill="none" xmlns="http://www.w3.org/2000/svg">
<path d="M13.75 15.75V14.4107C13.75 12.1918 11.6711 10.3929 9.10683 10.3929H5.39317C2.82892 10.3929 0.75 12.1918 0.75 14.4107V15.75M10.5 3.96429C10.5 4.81677 10.1576 5.63433 9.5481 6.23713C8.9386 6.83992 8.11195 7.17857 7.25 7.17857C6.38805 7.17857 5.5614 6.83992 4.9519 6.23713C4.34241 5.63433 4 4.81677 4 3.96429C4 3.1118 4.34241 2.29424 4.9519 1.69144C5.5614 1.08865 6.38805 0.75 7.25 0.75C8.11195 0.75 8.9386 1.08865 9.5481 1.69144C10.1576 2.29424 10.5 3.1118 10.5 3.96429Z" stroke="#333333" stroke-width="1.5" stroke-linecap="round" stroke-linejoin="round"/>
</svg>
