<svg width="46" height="69" viewBox="0 0 46 69" fill="none" xmlns="http://www.w3.org/2000/svg">
<g clip-path="url(#clip0_569_789)">
<path d="M44.7392 7.59644H1.25977V61.4038H44.7392V7.59644Z" fill="#D5E1EF"/>
<path d="M40.9584 7.59644H1.25977V61.4038H40.9584V7.59644Z" fill="#EDF2F8"/>
<path d="M44.7392 7.59639H1.25977V3.79822C1.25977 2.40556 2.39401 1.26611 3.78031 1.26611H42.2187C43.605 1.26611 44.7392 2.40556 44.7392 3.79822V7.59639Z" fill="#4F88FF"/>
<path d="M40.9584 7.59639H1.25977V3.79822C1.25977 2.40556 2.39401 1.26611 3.78031 1.26611H38.4378C39.8241 1.26611 40.9584 2.40556 40.9584 3.79822V7.59639Z" fill="#74AAFF"/>
<path d="M44.7392 61.4037H1.25977V65.2019C1.25977 66.5945 2.39401 67.734 3.78031 67.734H42.2187C43.605 67.734 44.7392 66.5945 44.7392 65.2019V61.4037Z" fill="#4F88FF"/>
<path d="M40.9584 61.4037H1.25977V65.2019C1.25977 66.5945 2.39401 67.734 3.78031 67.734H38.4378C39.8241 67.734 40.9584 66.5945 40.9584 65.2019V61.4037Z" fill="#74AAFF"/>
<path d="M41.9671 69H4.03288C1.8274 69 0 67.1642 0 64.9486V4.05138C0 1.83578 1.8274 0 4.03288 0H41.9671C44.1726 0 46 1.83578 46 4.05138V64.9486C46 67.1642 44.1726 69 41.9671 69ZM4.03288 1.89908C2.83562 1.89908 1.89041 2.84862 1.89041 4.05138V64.9486C1.89041 66.1514 2.83562 67.1009 4.03288 67.1009H41.9671C43.1644 67.1009 44.1096 66.1514 44.1096 64.9486V4.05138C44.1096 2.84862 43.1644 1.89908 41.9671 1.89908H4.03288Z" fill="#252D32"/>
<path d="M44.7392 8.96326H1.8899C1.51182 8.96326 1.25977 8.56326 1.25977 7.96326C1.25977 7.36326 1.51182 6.96326 1.8899 6.96326H44.7392C45.1173 6.96326 45.3694 7.36326 45.3694 7.96326C45.3694 8.56326 45.1173 8.96326 44.7392 8.96326Z" fill="#252D32"/>
<path d="M44.7392 62.7706H1.8899C1.51182 62.7706 1.25977 62.3706 1.25977 61.7706C1.25977 61.1706 1.51182 60.7706 1.8899 60.7706H44.7392C45.1173 60.7706 45.3694 61.1706 45.3694 61.7706C45.3694 62.3706 45.1173 62.7706 44.7392 62.7706Z" fill="#252D32"/>
<path d="M10.9238 21.9854V36.3301C10.9238 39.7888 12.804 42.9927 15.8271 44.7039L22.5367 48.5631L29.2464 44.7039C32.2695 42.9927 34.1496 39.7524 34.1496 36.3301V21.9854C29.5413 22.3131 25.6335 21.4393 22.5367 19.4369C19.44 21.4393 15.5321 22.3131 10.9238 21.9854Z" fill="#FFC960" stroke="#252D32" stroke-width="1.4" stroke-miterlimit="10"/>
<path d="M22.5359 21.1844C22.4622 21.2209 22.4253 21.2573 22.3516 21.2937V46.7427L22.5359 46.8519L28.4714 43.4296C31.052 41.9369 32.6741 39.2063 32.6741 36.2573V23.5145C32.4529 23.5145 32.2317 23.5145 32.0474 23.5145C28.3976 23.551 25.2271 22.75 22.5359 21.1844Z" fill="#FFAA4C"/>
<path d="M21.7987 38.0048C21.4301 38.0048 21.0614 37.8227 20.8034 37.5679L16.7481 32.8349C16.3057 32.2888 16.3425 31.4878 16.8955 31.0509C17.4485 30.614 18.2596 30.6504 18.702 31.1965L21.7619 34.7645L27.0338 28.6116C27.513 28.0655 28.3241 27.9926 28.8402 28.4659C29.3932 28.9392 29.467 29.7402 28.9877 30.2499L22.7204 37.5315C22.5361 37.8227 22.2043 38.0048 21.7987 38.0048Z" fill="white" stroke="#252D32" stroke-width="1.2" stroke-miterlimit="10"/>
</g>
<defs>
<clipPath id="clip0_569_789">
<rect width="46" height="69" fill="white"/>
</clipPath>
</defs>
</svg>
