<?xml version="1.0" encoding="utf-8"?>
<!-- Generator: Adobe Illustrator 23.0.3, SVG Export Plug-In . SVG Version: 6.00 Build 0)  -->
<svg version="1.1" id="레이어_1" xmlns="http://www.w3.org/2000/svg" xmlns:xlink="http://www.w3.org/1999/xlink" x="0px"
	 y="0px" viewBox="0 0 202.6 130.9" style="enable-background:new 0 0 202.6 130.9;" xml:space="preserve">
<style type="text/css">
	.st0{fill:#EC7D7D;}
</style>
<path class="st0" d="M9.2,126.5c0-1.6-0.9-2.3-2.9-3.2l-1.1-0.5c-3-1.3-4.9-2.9-4.9-5.8c0-3.2,2.7-5.2,6.5-5.2
	c1.9,0,3.6,0.5,4.8,1.4l-0.2,3.7H9.4l-0.7-4.1l2,0.8v1.4c-1.4-1.2-2.4-1.7-3.9-1.7c-1.8,0-3.3,1-3.3,2.8c0,1.6,1,2.5,2.8,3.2
	l1.2,0.5c3.6,1.5,5,3,5,5.7c0,3.2-2.6,5.4-6.8,5.4c-2.1,0-4.2-0.6-5.6-1.4l0.2-4h2.1l0.7,4.3L1,129.2v-1.3c1.7,1.1,2.7,1.6,4.6,1.6
	C7.9,129.4,9.2,128.3,9.2,126.5"/>
<path class="st0" d="M14.3,113.6v-1.3h4.1v1.7h-0.4L14.3,113.6z M18.4,128.8v1.7h-4.1v-1.3l3.8-0.4H18.4z M16.6,120.8
	c0-2.8,0-5.7-0.1-8.5h3.7c-0.1,2.8-0.1,5.6-0.1,8.5v1c0,3,0,5.9,0.1,8.7h-3.7c0.1-2.8,0.1-5.6,0.1-8.5V120.8z M25.5,112.3l1.6,1.5
	h-8.7v-1.5h9.7l0.2,4.8h-1.9L25.5,112.3z M24.5,121.9h-6.1v-1.4h6.1V121.9z M28.8,125.7l-0.2,4.8H18.4V129h9.3l-1.6,1.4l0.8-4.8
	H28.8z M23.7,120.8l0.4-2.8h1.4v6.2h-1.4l-0.4-2.9V120.8z"/>
<path class="st0" d="M47.6,121.4c0,6.2-4.1,9.5-8.5,9.5c-4.4,0-8.5-3.2-8.5-9.5c0-6.2,4.2-9.5,8.5-9.5
	C43.4,111.9,47.6,115.1,47.6,121.4 M39.1,129.5c3.3,0,4.6-3.7,4.6-8.1c0-4.3-1.3-8.1-4.6-8.1c-3.3,0-4.7,3.8-4.7,8.1
	C34.4,125.7,35.8,129.5,39.1,129.5"/>
<path class="st0" d="M49.2,113.6v-1.3h8.2v1.3l-3.7,0.4H53L49.2,113.6z M53.7,128.8l3.6,0.4v1.3h-8v-1.3l3.8-0.4H53.7z M51.6,120.8
	c0-2.8,0-5.7-0.1-8.5h3.6c-0.1,2.8-0.1,5.6-0.1,8.5v1.6c0,2.4,0,5.2,0.1,8h-3.6c0.1-2.8,0.1-5.6,0.1-8.5V120.8z M53.3,124.2
	l9.6-11.8h1.8L53.3,126V124.2z M58.9,118.3l6.6,12.2h-3.8l-5-9.6L58.9,118.3z M59.2,129.2l3.5-0.4h0.5l3.4,0.4v1.3h-7.4V129.2z
	 M59.7,113.6v-1.3H66v1.3l-3.1,0.4l-0.7,0.1L59.7,113.6z"/>
<path class="st0" d="M73.1,129.2l2.8-0.4h0.5l2.8,0.4v1.3h-6.1V129.2z M81.1,112.2h2.2l6.2,18.2h-3.6L80.8,115l0.8-0.7l-5.4,16.2
	h-1.5L81.1,112.2z M78,123.5h7.4l0.5,1.4h-8.4L78,123.5z M83,129.2l3.3-0.4h1.2l3.5,0.4v1.3H83V129.2z"/>
<path class="st0" d="M92,129.2l2.9-0.4h0.7l3.3,0.4v1.3H92V129.2z M93.6,113.2l1.6,0.7l-3.1-0.3v-1.3h5.2l10.6,14.5v3.7h-1.6
	L93.6,113.2z M94.3,112.3l1.6,1.3v16.9h-1.6V112.3z M103.2,112.3h6.9v1.3l-2.8,0.4h-0.7l-3.5-0.4V112.3z M106.2,112.3h1.6v18.3
	l-1.6-1.6V112.3z"/>
<path class="st0" d="M111.9,113.6v-1.3h4.1v1.7h-0.4L111.9,113.6z M116,128.8v1.7h-4.1v-1.3l3.8-0.4H116z M114.2,120.8
	c0-2.8,0-5.7-0.1-8.5h3.7c-0.1,2.8-0.1,5.6-0.1,8.5v1c0,3,0,5.9,0.1,8.7h-3.7c0.1-2.8,0.1-5.6,0.1-8.7V120.8z M116,129.1h3.4
	c3.7,0,5.8-2.8,5.8-7.6c0-5-2.1-7.7-5.7-7.7H116v-1.4h4c5.5,0,9.1,3.3,9.1,9.1c0,5.8-3.9,9.1-9.6,9.1H116V129.1z"/>
<path class="st0" d="M137.1,129.2l3-0.4h0.7l2.7,0.4v1.3h-6.4V129.2z M137.2,112.3h3.8l0,1.7h-0.4l-3.4-0.4V112.3z M139.6,112.3h1.4
	l0.2,8.8v9.3h-1.6V112.3z M139.7,112.3h3.6l5.8,14.8h-0.9l5.5-14.8h1.6l-6.7,18.1h-1.7L139.7,112.3z M151.7,129.2l3.4-0.4h0.9
	l3.8,0.4v1.3h-8.1V129.2z M153.9,122.3l0-10h3.5c-0.1,2.8-0.1,5.6-0.1,8.5v1.2c0,2.8,0,5.7,0.1,8.5h-3.7
	C153.9,127.7,153.9,124.9,153.9,122.3 M155.7,112.3h4.1v1.3L156,114h-0.4V112.3z"/>
<path class="st0" d="M178.5,121.4c0,6.2-4.1,9.5-8.5,9.5c-4.4,0-8.5-3.2-8.5-9.5c0-6.2,4.2-9.5,8.5-9.5
	C174.3,111.9,178.5,115.1,178.5,121.4 M170,129.5c3.3,0,4.6-3.7,4.6-8.1c0-4.3-1.3-8.1-4.6-8.1c-3.3,0-4.7,3.8-4.7,8.1
	C165.3,125.7,166.7,129.5,170,129.5"/>
<path class="st0" d="M179.9,129.2l3-0.4h0.7l2.7,0.4v1.3h-6.4V129.2z M180,112.3h3.8l0,1.7h-0.4l-3.4-0.4V112.3z M182.4,112.3h1.4
	l0.2,8.8v9.3h-1.6V112.3z M182.5,112.3h3.6l5.8,14.8h-0.9l5.5-14.8h1.6l-6.7,18.1h-1.7L182.5,112.3z M194.5,129.2l3.4-0.4h0.9
	l3.8,0.4v1.3h-8.1V129.2z M196.7,122.3l0-10h3.5c-0.1,2.8-0.1,5.6-0.1,8.5v1.2c0,2.8,0,5.7,0.1,8.5h-3.7
	C196.7,127.7,196.7,124.9,196.7,122.3 M198.5,112.3h4.1v1.3l-3.7,0.4h-0.4V112.3z"/>
<path class="st0" d="M127.6,9.1c-7.1-5.7-15.3-8.9-24.4-9.1c-0.6,0-1.2,0-1.8,0c-0.6,0-1.2,0-1.8,0c-9.1,0.2-17.3,3.4-24.4,9.1
	c-12.3,9.9-18,23.1-18.3,38.8c0.1,1.9,0.1,3.9,0.4,5.8c1.4,12,6.3,22.4,15.2,30.6c8.4,7.7,18.1,11.6,29,11.5
	c10.9,0.1,20.6-3.8,29-11.5c8.9-8.2,13.8-18.6,15.2-30.6c0.2-1.9,0.3-3.8,0.4-5.8C145.5,32.2,139.9,19,127.6,9.1 M138.6,58.4
	c-2.1,10.5-7,19.6-15.4,26.4c-6.5,5.3-13.8,8.1-21.9,8c-8,0.1-15.3-2.7-21.9-8C71.1,77.9,66.2,68.9,64,58.4c-2.3-11.4-1.1-22.5,4-33
	c4.5-9.3,11.3-16.5,21.1-20.2c4.2-1.6,8.2-2.3,12.2-2.4c3.9,0,8,0.8,12.2,2.4c9.8,3.7,16.6,11,21.1,20.2
	C139.7,35.9,140.9,47,138.6,58.4"/>
<path class="st0" d="M109.4,59.1c-2.5-2.5-5.1-4.9-7.6-7.4c-8-8-16-16-24-23.9c-0.3-0.3-0.6-0.6-1-0.9v40.4h-2.1v0.5h7.7v-0.5h-2.1
	c0-10-0.1-22.7-0.1-32.9c0.4,0.4,3.4,3.3,3.5,3.4c4.3,4.3,8.6,8.6,12.8,12.9c2.5,2.6,5,5.2,7.4,7.9c3.1,3.6,3.3,8.8,0.7,12.7
	c-2.4,3.5-6.5,4.5-9.8,2.1c-1.6-1.1-2.7-2.7-3.2-4.6c-0.4-1.5-0.6-3-0.9-4.7v0h-0.2c-0.3,0-0.8,0-1.2,0c0,0-0.1,0-0.1,0h-2.5v0.5
	h0.7c0,0,0.6,0.3,0.6,0.9l0-0.1c-0.4,3.2,0.6,6,2.8,8.3c5,5.2,13.7,5.2,18.6-0.1c2.3-2.4,3.5-5.3,2.9-8.7
	C112.2,62.6,111,60.7,109.4,59.1"/>
<path class="st0" d="M125.5,65.1c0-12.8,0-25.6,0-38.3c-6.6,6.6-13.2,13.2-19.7,19.8c-2.4-2.3-4.3-4.4-6.5-6.6
	c-2.1-2.2-4.1-4.8-4.7-7.8c-0.4-2.1-0.1-4.2,0.7-6.2c0.7-1.5,1.7-2.9,3.1-3.8c2.6-1.7,6.4-1.3,8.6,0.9c2.2,2.2,2.7,5.4,3.1,8.5
	c0.9,0.5,2-0.1,2.5-1c0.5-0.9,0.4-2,0.2-2.9c-0.7-3.3-2.8-6.2-5.7-7.9c-0.6-0.4-1.3-0.7-2-0.9c-0.7-0.3-1.4-0.4-2.2-0.6
	c-0.7-0.1-1.5-0.2-2.2-0.2c-0.7,0-1.5,0.1-2.2,0.3c-0.3,0.1-0.7,0.2-1,0.2c-0.3,0-0.6,0.1-0.9,0.2c-0.7,0.2-1.3,0.5-1.9,0.8
	c-0.6,0.3-1.2,0.7-1.8,1.1c-0.6,0.4-1.1,0.9-1.6,1.4c-0.5,0.5-0.9,1-1.3,1.6c-1.7,2.6-2.3,5.9-1.2,8.8c0.9,2.3,2.7,4.1,4.4,5.8
	c4.3,4.2,8.3,8.5,12.6,12.7c4.4-4.5,9.2-9,13.6-13.4c0,9.9,0,19.8,0,29.7h-2.1v0.5h10.3v-0.5h-1.5C125.6,66.6,125.5,65.8,125.5,65.1
	"/>
</svg>
