<svg width="17" height="17" viewBox="0 0 17 17" fill="none" xmlns="http://www.w3.org/2000/svg">
<g clip-path="url(#clip0_475_2158)">
<path d="M6.93245 6.99364C6.30089 6.99364 5.68352 6.8063 5.15846 6.45532C4.6334 6.10435 4.22425 5.60551 3.98278 5.02193C3.7413 4.43836 3.67836 3.79626 3.80192 3.17691C3.92548 2.55755 4.22997 1.98876 4.67689 1.5425C5.1238 1.09625 5.69304 0.792595 6.31258 0.669956C6.93212 0.547318 7.57412 0.611208 8.15734 0.853544C8.74056 1.09588 9.23879 1.50577 9.58899 2.03135C9.93918 2.55693 10.1256 3.17458 10.1247 3.80614C10.1222 4.65157 9.78491 5.46158 9.18665 6.05895C8.5884 6.65632 7.77789 6.99239 6.93245 6.99364ZM6.93245 1.55836C6.48789 1.55836 6.0533 1.69019 5.68366 1.93718C5.31401 2.18417 5.02591 2.53522 4.85578 2.94595C4.68565 3.35668 4.64114 3.80863 4.72787 4.24466C4.8146 4.68068 5.02868 5.0812 5.34304 5.39556C5.65739 5.70991 6.05791 5.92399 6.49394 6.01073C6.92996 6.09746 7.38191 6.05294 7.79264 5.88281C8.20337 5.71268 8.55442 5.42458 8.80141 5.05494C9.0484 4.68529 9.18023 4.25071 9.18023 3.80614C9.18023 3.20999 8.94341 2.63826 8.52187 2.21672C8.10033 1.79518 7.5286 1.55836 6.93245 1.55836Z" fill="#444444"/>
<path d="M7.75476 14.96C7.65155 14.8567 7.57194 14.7324 7.5214 14.5954C7.47085 14.4585 7.45058 14.3122 7.46198 14.1666H1.88976V11.4372C2.55932 10.7227 3.37145 10.1569 4.27358 9.77616C5.1757 9.39546 6.14772 9.20844 7.1267 9.2272H7.4667C7.44502 9.06887 7.46017 8.90768 7.51095 8.75616C7.56172 8.60464 7.64677 8.46688 7.75948 8.35359L7.81614 8.30164C7.5942 8.30164 7.34392 8.27331 7.1267 8.27331C5.97467 8.24596 4.83095 8.47495 3.77825 8.94372C2.72556 9.4125 1.79018 10.1093 1.03976 10.9839C0.978452 11.0656 0.945312 11.165 0.945312 11.2672V14.1666C0.945313 14.4171 1.04482 14.6573 1.22193 14.8345C1.39905 15.0116 1.63927 15.1111 1.88976 15.1111H7.88698L7.75476 14.96Z" fill="#444444"/>
<path d="M12.6895 7.69247C12.7128 7.68763 12.7369 7.68763 12.7603 7.69247C12.7369 7.68822 12.7129 7.68822 12.6895 7.69247Z" fill="#444444"/>
<path d="M15.9053 11.0122L14.9608 10.7242C14.8933 10.4932 14.8015 10.27 14.6869 10.0583L15.1592 9.17999C15.1745 9.14486 15.1782 9.10573 15.1697 9.06834C15.1612 9.03094 15.141 8.99726 15.1119 8.97222L14.4272 8.28749C14.4013 8.25946 14.3667 8.24096 14.3291 8.23496C14.2914 8.22897 14.2528 8.23583 14.2194 8.25444L13.3505 8.72666C13.1366 8.60638 12.9102 8.50979 12.6753 8.43861L12.3872 7.49416C12.375 7.4594 12.3518 7.42955 12.3211 7.40911C12.2905 7.38866 12.254 7.37874 12.2172 7.38083H11.2492C11.212 7.3804 11.1757 7.39217 11.1458 7.41435C11.116 7.43653 11.0942 7.46788 11.0839 7.5036L10.7958 8.44805C10.5593 8.51686 10.3312 8.6119 10.1158 8.73138L9.25638 8.25916C9.22378 8.24091 9.18596 8.23424 9.14909 8.24024C9.11221 8.24625 9.07845 8.26457 9.05333 8.29222L8.35444 8.97222C8.32853 8.9995 8.31185 9.03425 8.30676 9.07154C8.30168 9.10882 8.30844 9.14676 8.3261 9.17999L8.79833 10.0394C8.67343 10.2523 8.5736 10.4789 8.50083 10.7147L7.55638 10.998C7.52066 11.0084 7.4893 11.0301 7.46713 11.06C7.44495 11.0898 7.43318 11.1261 7.43361 11.1633V12.1314C7.4364 12.1655 7.44971 12.1979 7.4717 12.2241C7.49369 12.2503 7.52328 12.2691 7.55638 12.2778L8.50083 12.5658C8.57062 12.7975 8.66564 13.0208 8.78416 13.2317L8.31194 14.1336C8.29392 14.1659 8.28694 14.2032 8.29205 14.2399C8.29716 14.2765 8.31409 14.3105 8.34027 14.3367L9.02499 15.0214C9.05174 15.0481 9.08622 15.0656 9.12353 15.0716C9.16084 15.0775 9.19907 15.0715 9.23277 15.0544L10.1158 14.5822C10.326 14.6952 10.5476 14.7855 10.7769 14.8514L11.0603 15.7958C11.0719 15.8308 11.094 15.8613 11.1235 15.8833C11.1531 15.9052 11.1887 15.9176 11.2255 15.9186H12.1936C12.2306 15.9183 12.2665 15.9062 12.2962 15.8841C12.326 15.8621 12.3479 15.8312 12.3589 15.7958L12.6469 14.8278C12.8732 14.7618 13.0917 14.6716 13.2986 14.5586L14.1911 15.0308C14.2239 15.0483 14.2615 15.0545 14.2982 15.0485C14.3349 15.0425 14.3686 15.0247 14.3942 14.9978L15.1119 14.3555C15.1312 14.3278 15.1416 14.2949 15.1416 14.2611C15.1416 14.2273 15.1312 14.1944 15.1119 14.1667L14.6397 13.2789C14.7544 13.0706 14.8462 12.8505 14.9136 12.6225L15.8581 12.3344C15.8938 12.3241 15.9251 12.3024 15.9473 12.2725C15.9695 12.2426 15.9813 12.2063 15.9808 12.1692V11.1775C15.9852 11.1456 15.9804 11.1132 15.967 11.0839C15.9536 11.0547 15.9322 11.0298 15.9053 11.0122ZM11.7355 13.2222C11.4232 13.2231 11.1176 13.1313 10.8575 12.9584C10.5974 12.7854 10.3945 12.5391 10.2746 12.2508C10.1546 11.9624 10.123 11.6448 10.1837 11.3385C10.2444 11.0321 10.3947 10.7506 10.6156 10.5297C10.8364 10.3089 11.1179 10.1586 11.4243 10.0979C11.7307 10.0371 12.0482 10.0688 12.3366 10.1887C12.625 10.3087 12.8713 10.5116 13.0442 10.7717C13.2172 11.0318 13.309 11.3374 13.308 11.6497C13.3068 12.0664 13.1407 12.4656 12.8461 12.7603C12.5515 13.0549 12.1522 13.221 11.7355 13.2222Z" fill="#444444"/>
</g>
<defs>
<clipPath id="clip0_475_2158">
<rect width="17" height="17" fill="white"/>
</clipPath>
</defs>
</svg>
