<svg width="25" height="25" viewBox="0 0 25 25" fill="none" xmlns="http://www.w3.org/2000/svg">
<g clip-path="url(#clip0_336_3245)">
<path d="M10.1944 10.2847C9.26567 10.2847 8.35777 10.0092 7.58563 9.49308C6.81348 8.97694 6.21179 8.24336 5.85668 7.38516C5.50157 6.52695 5.40901 5.5827 5.59071 4.67188C5.77241 3.76106 6.22021 2.9246 6.87743 2.26835C7.53466 1.6121 8.37177 1.16554 9.28286 0.985191C10.194 0.80484 11.1381 0.898797 11.9957 1.25517C12.8534 1.61155 13.5861 2.21433 14.1011 2.98724C14.6161 3.76015 14.8903 4.66846 14.8889 5.59722C14.8852 6.8405 14.3892 8.0317 13.5094 8.91018C12.6297 9.78866 11.4377 10.2829 10.1944 10.2847ZM10.1944 2.29167C9.54066 2.29167 8.90157 2.48554 8.35797 2.84875C7.81438 3.21197 7.3907 3.72823 7.14051 4.33224C6.89032 4.93625 6.82486 5.60089 6.9524 6.24211C7.07995 6.88332 7.39477 7.47231 7.85706 7.9346C8.31935 8.39689 8.90834 8.71172 9.54956 8.83926C10.1908 8.96681 10.8554 8.90135 11.4594 8.65116C12.0634 8.40097 12.5797 7.97729 12.9429 7.43369C13.3061 6.8901 13.5 6.251 13.5 5.59722C13.5 4.72054 13.1517 3.87975 12.5318 3.25984C11.9119 2.63993 11.0711 2.29167 10.1944 2.29167Z" fill="#999999" stroke="#999999" stroke-width="0.2"/>
<path d="M11.4026 22C11.2508 21.8482 11.1337 21.6653 11.0594 21.4639C10.9851 21.2625 10.9552 21.0474 10.972 20.8333H2.77756V16.8194C3.76222 15.7688 4.95653 14.9366 6.28318 14.3767C7.60984 13.8169 9.03927 13.5419 10.479 13.5694H10.979C10.9471 13.3366 10.9693 13.0996 11.044 12.8767C11.1187 12.6539 11.2438 12.4513 11.4095 12.2847L11.4928 12.2083C11.1664 12.2083 10.7984 12.1667 10.479 12.1667C8.78479 12.1264 7.10285 12.4632 5.55476 13.1526C4.00668 13.8419 2.63112 14.8667 1.52756 16.1528C1.43741 16.273 1.38867 16.4192 1.38867 16.5694V20.8333C1.38867 21.2017 1.535 21.555 1.79547 21.8154C2.05594 22.0759 2.4092 22.2222 2.77756 22.2222H11.597L11.4026 22Z" fill="#999999" stroke="#999999" stroke-width="0.2"/>
<path d="M18.6602 11.3125C18.6945 11.3054 18.73 11.3054 18.7643 11.3125C18.7299 11.3063 18.6946 11.3063 18.6602 11.3125Z" fill="#999999"/>
<path d="M23.388 16.1944L21.9991 15.7708C21.8999 15.4311 21.7649 15.1029 21.5964 14.7917L22.2908 13.5C22.3134 13.4483 22.3188 13.3908 22.3064 13.3358C22.2939 13.2808 22.2641 13.2313 22.2214 13.1944L21.2144 12.1875C21.1763 12.1463 21.1255 12.1191 21.0701 12.1102C21.0146 12.1014 20.9579 12.1115 20.9089 12.1389L19.6311 12.8333C19.3165 12.6565 18.9835 12.5144 18.638 12.4097L18.2144 11.0208C18.1964 10.9697 18.1623 10.9258 18.1173 10.8958C18.0722 10.8657 18.0185 10.8511 17.9644 10.8542H16.5408C16.4861 10.8535 16.4327 10.8709 16.3888 10.9035C16.3449 10.9361 16.3129 10.9822 16.2978 11.0347L15.8741 12.4236C15.5263 12.5248 15.1909 12.6646 14.8741 12.8403L13.6103 12.1458C13.5623 12.119 13.5067 12.1092 13.4525 12.118C13.3982 12.1268 13.3486 12.1538 13.3116 12.1944L12.2839 13.1944C12.2458 13.2346 12.2212 13.2857 12.2138 13.3405C12.2063 13.3953 12.2162 13.4511 12.2422 13.5L12.9366 14.7639C12.753 15.0769 12.6062 15.4101 12.4991 15.7569L11.1103 16.1736C11.0577 16.1888 11.0116 16.2208 10.979 16.2647C10.9464 16.3086 10.9291 16.362 10.9297 16.4167V17.8403C10.9338 17.8904 10.9534 17.9381 10.9857 17.9766C11.0181 18.0152 11.0616 18.0428 11.1103 18.0556L12.4991 18.4792C12.6018 18.8198 12.7415 19.1482 12.9158 19.4583L12.2214 20.7847C12.1949 20.8322 12.1846 20.8871 12.1921 20.941C12.1996 20.9949 12.2245 21.0449 12.263 21.0833L13.27 22.0903C13.3093 22.1295 13.36 22.1553 13.4149 22.1641C13.4698 22.1728 13.526 22.164 13.5755 22.1389L14.8741 21.4444C15.1832 21.6107 15.5091 21.7434 15.8464 21.8403L16.263 23.2292C16.2801 23.2806 16.3126 23.3255 16.3561 23.3578C16.3996 23.3901 16.4519 23.4082 16.5061 23.4097H17.9297C17.9841 23.4092 18.037 23.3915 18.0807 23.359C18.1243 23.3266 18.1566 23.2811 18.1728 23.2292L18.5964 21.8056C18.9292 21.7086 19.2505 21.5758 19.5547 21.4097L20.8672 22.1042C20.9154 22.1298 20.9708 22.1389 21.0247 22.1302C21.0786 22.1214 21.1282 22.0952 21.1658 22.0556L22.2214 21.1111C22.2497 21.0704 22.265 21.0219 22.265 20.9722C22.265 20.9226 22.2497 20.8741 22.2214 20.8333L21.5269 19.5278C21.6955 19.2214 21.8305 18.8978 21.9297 18.5625L23.3186 18.1389C23.3711 18.1237 23.4172 18.0917 23.4498 18.0478C23.4825 18.0039 23.4998 17.9505 23.4991 17.8958V16.4375C23.5055 16.3906 23.4985 16.3429 23.4788 16.2999C23.4591 16.2569 23.4277 16.2203 23.388 16.1944ZM17.2561 19.4444C16.7968 19.4458 16.3474 19.3108 15.9649 19.0564C15.5824 18.8021 15.284 18.4399 15.1076 18.0158C14.9312 17.5917 14.8847 17.1248 14.9739 16.6742C15.0632 16.2236 15.2843 15.8097 15.6091 15.4849C15.9339 15.1601 16.3478 14.9391 16.7984 14.8498C17.2489 14.7605 17.7159 14.807 18.14 14.9835C18.5641 15.1599 18.9263 15.4582 19.1806 15.8407C19.4349 16.2232 19.57 16.6726 19.5686 17.1319C19.5668 17.7447 19.3225 18.3318 18.8893 18.7651C18.456 19.1984 17.8688 19.4426 17.2561 19.4444Z" fill="#999999"/>
</g>
<defs>
<clipPath id="clip0_336_3245">
<rect width="25" height="25" fill="white"/>
</clipPath>
</defs>
</svg>
