<?xml version="1.0" encoding="utf-8"?>
<!-- Generator: Adobe Illustrator 23.0.3, SVG Export Plug-In . SVG Version: 6.00 Build 0)  -->
<svg version="1.1" id="Layer_1" xmlns="http://www.w3.org/2000/svg" xmlns:xlink="http://www.w3.org/1999/xlink" x="0px" y="0px"
	 viewBox="0 0 141.6 131.3" style="enable-background:new 0 0 141.6 131.3;" xml:space="preserve">
<style type="text/css">
	.st0{fill:#FFFFFF;}
</style>
<g>
	<path class="st0" d="M30.9,48.5c-2.7,0-4.9,2.2-4.9,4.9c0,2.7,2.2,4.9,4.9,4.9c2.7,0,4.9-2.2,4.9-4.9
		C35.8,50.6,33.6,48.5,30.9,48.5z"/>
	<path class="st0" d="M79,47.9c-2.9,0-5.2,2.4-5.2,5.2c0,2.9,2.4,5.2,5.2,5.2c2.9,0,5.2-2.3,5.2-5.2C84.3,50.3,81.9,47.9,79,47.9z"
		/>
	<path class="st0" d="M122.6,0H18.9C8.5,0,0,8.5,0,18.9v61.5c0,10.5,8.5,18.9,18.9,18.9h36.6L68,128.8c0,0,0.9,2.5,2.9,2.5l0,0
		c2.1,0,2.9-2.5,2.9-2.5l12.5-29.3h36.3c10.5,0,18.9-8.5,18.9-18.9V18.9C141.6,8.5,133.1,0,122.6,0z M44.5,54.4
		C44.4,65.6,32.8,66,32.8,66c-4.5,0-7-3-7-3v2h-8.5V30.1c0,0,0,0,0,0v0c0.5,0.1,8.5,0,8.5,0v13.4c2-3.4,7.8-3.3,7.8-3.3
		C46,41.3,44.5,54.4,44.5,54.4z M59.4,41.2v23.9h-8.3V41.4c0-3.2-4-4.1-4-4.1v-8.4C60.3,29.5,59.4,41.2,59.4,41.2z M79,66
		c-7.7,0-13.9-5.7-13.9-12.8c0-7.1,6.2-12.8,13.9-12.8c7.7,0,13.9,5.7,13.9,12.8C92.9,60.3,86.7,66,79,66z M124.5,66
		c0,0,0.1,12.2-12.2,12.2h-3.8v-7.9h2.3c0,0,5.2,0.5,5.1-7.5c0,0-1,3.2-8.3,3.2c0,0-10.3-0.7-10.3-10.8v-3.8c0,0,0.2-10.4,11.6-11.3
		c0,0,4.5-0.5,7.2,3.2v-2.6h8.4V66z"/>
	<path class="st0" d="M111.3,48.1c-2.8,0-5.1,2.3-5.1,5.1c0,2.8,2.3,5.1,5.1,5.1s5.1-2.3,5.1-5.1C116.4,50.4,114.1,48.1,111.3,48.1z
		"/>
</g>
</svg>
