<?xml version="1.0" encoding="utf-8"?>
<!-- Generator: Adobe Illustrator 23.0.3, SVG Export Plug-In . SVG Version: 6.00 Build 0)  -->
<svg version="1.1" id="icon" xmlns="http://www.w3.org/2000/svg" xmlns:xlink="http://www.w3.org/1999/xlink" x="0px" y="0px"
	 viewBox="0 0 23.3 23.3" style="enable-background:new 0 0 23.3 23.3;" xml:space="preserve">
<style type="text/css">
	.st0{fill:#FFFFFF;}
</style>
<path class="st0" d="M18.3,10h-2c0-1.7-1.3-3-3-3V5C16.1,5,18.3,7.2,18.3,10z"/>
<path class="st0" d="M22.3,10h-2c0-3.9-3.1-7-7-7V1C18.3,1,22.3,5,22.3,10z"/>
<path class="st0" d="M23.3,18.4c0,0.3-0.1,0.7-0.2,1.2s-0.2,0.9-0.3,1.1c-0.2,0.6-0.9,1.1-2,1.8c-1,0.6-2.1,0.8-3.1,0.8
	c-0.3,0-0.6,0-0.9-0.1c-0.3,0-0.6-0.1-1-0.2c-0.4-0.1-0.6-0.2-0.8-0.2c-0.2-0.1-0.5-0.2-0.9-0.3s-0.7-0.3-0.8-0.3
	c-1.1-0.4-2-0.8-2.9-1.4c-1.4-0.9-2.9-2.1-4.4-3.6s-2.7-3-3.6-4.4C2,12,1.5,11,1.1,10c0-0.1-0.1-0.4-0.3-0.8
	C0.7,8.7,0.6,8.4,0.5,8.2S0.4,7.8,0.3,7.4c-0.1-0.4-0.2-0.7-0.2-1C0,6.2,0,5.9,0,5.6c0-1,0.3-2,0.8-3.1c0.6-1.1,1.2-1.8,1.8-2
	c0.3-0.1,0.7-0.2,1.1-0.3S4.6,0,4.9,0c0.2,0,0.3,0,0.3,0c0.2,0.1,0.5,0.5,0.9,1.3c0.1,0.2,0.3,0.5,0.5,0.9C6.8,2.6,7,2.9,7.2,3.3
	c0.2,0.3,0.3,0.6,0.5,0.9c0,0,0.1,0.2,0.3,0.4C8.2,4.8,8.3,5,8.4,5.1c0.1,0.2,0.1,0.3,0.1,0.5c0,0.2-0.2,0.5-0.5,0.8
	C7.7,6.8,7.4,7.1,7,7.4S6.3,7.9,6,8.2S5.5,8.8,5.5,9c0,0.1,0,0.2,0.1,0.4c0.1,0.1,0.1,0.3,0.1,0.3c0,0.1,0.1,0.2,0.2,0.4
	c0.1,0.2,0.2,0.3,0.2,0.3C7,11.9,7.9,13.2,9,14.3s2.4,2,3.9,2.9c0,0,0.1,0.1,0.3,0.2c0.2,0.1,0.3,0.2,0.4,0.2s0.2,0.1,0.3,0.1
	s0.3,0.1,0.4,0.1c0.2,0,0.5-0.2,0.8-0.5s0.6-0.7,0.9-1c0.3-0.4,0.6-0.7,0.9-1c0.3-0.3,0.6-0.5,0.8-0.5c0.2,0,0.3,0,0.5,0.1
	c0.2,0.1,0.4,0.2,0.6,0.4c0.2,0.2,0.4,0.3,0.4,0.3c0.3,0.2,0.6,0.3,0.9,0.5c0.3,0.2,0.7,0.4,1.1,0.6c0.4,0.2,0.7,0.4,0.9,0.5
	c0.8,0.4,1.2,0.7,1.3,0.9C23.3,18.2,23.3,18.3,23.3,18.4z"/>
</svg>
