<svg width="65" height="65" viewBox="0 0 65 65" fill="none" xmlns="http://www.w3.org/2000/svg">
<rect width="65" height="65" rx="32.5" fill="#007DC3"/>
<rect width="65" height="65" rx="32.5" fill="url(#paint0_linear_336_8943)"/>
<path d="M39.4993 27.8333H38.3327V26.6667C38.3327 23.4502 35.7158 20.8333 32.4993 20.8333C29.2828 20.8333 26.666 23.4502 26.666 26.6667V27.8333H25.4993C24.8805 27.8333 24.287 28.0792 23.8494 28.5168C23.4118 28.9543 23.166 29.5478 23.166 30.1667V41.8333C23.166 42.4522 23.4118 43.0457 23.8494 43.4832C24.287 43.9208 24.8805 44.1667 25.4993 44.1667H39.4993C40.1182 44.1667 40.7117 43.9208 41.1493 43.4832C41.5868 43.0457 41.8327 42.4522 41.8327 41.8333V30.1667C41.8327 29.5478 41.5868 28.9543 41.1493 28.5168C40.7117 28.0792 40.1182 27.8333 39.4993 27.8333ZM28.9993 26.6667C28.9993 24.737 30.5697 23.1667 32.4993 23.1667C34.429 23.1667 35.9993 24.737 35.9993 26.6667V27.8333H28.9993V26.6667ZM33.666 36.8435V39.5H31.3327V36.8435C30.6385 36.4398 30.166 35.6955 30.166 34.8333C30.166 34.2145 30.4118 33.621 30.8494 33.1834C31.287 32.7458 31.8805 32.5 32.4993 32.5C33.1182 32.5 33.7117 32.7458 34.1493 33.1834C34.5868 33.621 34.8327 34.2145 34.8327 34.8333C34.8327 35.6943 34.3602 36.4387 33.666 36.8435Z" fill="white"/>
<defs>
<linearGradient id="paint0_linear_336_8943" x1="9" y1="3.49999" x2="69.6912" y2="29.3931" gradientUnits="userSpaceOnUse">
<stop stop-color="#3CB1F3"/>
<stop offset="1" stop-color="#006CD2"/>
</linearGradient>
</defs>
</svg>
