<svg width="224" height="224" viewBox="0 0 224 224" fill="none" xmlns="http://www.w3.org/2000/svg">
<g clip-path="url(#clip0_567_2146)">
<path d="M142.032 111.867L217.445 36.4321C219.483 34.4641 221.108 32.1101 222.226 29.5074C223.344 26.9046 223.933 24.1052 223.957 21.2726C223.982 18.44 223.442 15.6308 222.37 13.009C221.297 10.3872 219.713 8.00534 217.71 6.0023C215.707 3.99925 213.325 2.41519 210.703 1.34253C208.081 0.269867 205.272 -0.269903 202.439 -0.245288C199.607 -0.220674 196.808 0.367834 194.205 1.48589C191.602 2.60395 189.248 4.22917 187.28 6.26672L111.845 81.6801L36.4321 6.26672C34.4641 4.22917 32.1101 2.60395 29.5074 1.48589C26.9046 0.367834 24.1052 -0.220674 21.2726 -0.245288C18.44 -0.269903 15.6308 0.269867 13.009 1.34253C10.3872 2.41519 8.00534 3.99925 6.0023 6.0023C3.99925 8.00534 2.41519 10.3872 1.34253 13.009C0.269867 15.6308 -0.269903 18.44 -0.245288 21.2726C-0.220674 24.1052 0.367834 26.9046 1.48589 29.5074C2.60395 32.1101 4.22917 34.4641 6.26672 36.4321L81.6801 111.845L6.26672 187.28C4.22917 189.248 2.60395 191.602 1.48589 194.205C0.367834 196.808 -0.220674 199.607 -0.245288 202.439C-0.269903 205.272 0.269867 208.081 1.34253 210.703C2.41519 213.325 3.99925 215.707 6.0023 217.71C8.00534 219.713 10.3872 221.297 13.009 222.37C15.6308 223.442 18.44 223.982 21.2726 223.957C24.1052 223.933 26.9046 223.344 29.5074 222.226C32.1101 221.108 34.4641 219.483 36.4321 217.445L111.845 142.032L187.28 217.445C189.248 219.483 191.602 221.108 194.205 222.226C196.808 223.344 199.607 223.933 202.439 223.957C205.272 223.982 208.081 223.442 210.703 222.37C213.325 221.297 215.707 219.713 217.71 217.71C219.713 215.707 221.297 213.325 222.37 210.703C223.442 208.081 223.982 205.272 223.957 202.439C223.933 199.607 223.344 196.808 222.226 194.205C221.108 191.602 219.483 189.248 217.445 187.28L142.032 111.867Z" fill="#111111"/>
</g>
<defs>
<clipPath id="clip0_567_2146">
<rect width="224" height="224" fill="white"/>
</clipPath>
</defs>
</svg>
