<svg width="65" height="65" viewBox="0 0 65 65" fill="none" xmlns="http://www.w3.org/2000/svg">
<rect width="65" height="65" rx="32.5" fill="#007DC3"/>
<rect width="65" height="65" rx="32.5" fill="url(#paint0_linear_611_779)"/>
<path d="M32.5005 32.5C34.241 32.5 35.9102 31.8086 37.1409 30.5779C38.3716 29.3472 39.063 27.678 39.063 25.9375C39.063 24.197 38.3716 22.5278 37.1409 21.2971C35.9102 20.0664 34.241 19.375 32.5005 19.375C30.76 19.375 29.0908 20.0664 27.8601 21.2971C26.6294 22.5278 25.938 24.197 25.938 25.9375C25.938 27.678 26.6294 29.3472 27.8601 30.5779C29.0908 31.8086 30.76 32.5 32.5005 32.5ZM42.8583 45.625C44.2102 45.625 45.2493 44.3978 44.7658 43.1334C43.8175 40.6486 42.1369 38.5104 39.9464 37.0018C37.756 35.4932 35.1591 34.6855 32.4994 34.6855C29.8398 34.6855 27.2428 35.4932 25.0524 37.0018C22.862 38.5104 21.1813 40.6486 20.233 43.1334C19.7518 44.3978 20.7886 45.625 22.1405 45.625H42.8583Z" fill="white"/>
<defs>
<linearGradient id="paint0_linear_611_779" x1="9" y1="3.49999" x2="69.6912" y2="29.3931" gradientUnits="userSpaceOnUse">
<stop stop-color="#3CB1F3"/>
<stop offset="1" stop-color="#006CD2"/>
</linearGradient>
</defs>
</svg>
