<?xml version="1.0" encoding="utf-8"?>
<!-- Generator: Adobe Illustrator 23.0.3, SVG Export Plug-In . SVG Version: 6.00 Build 0)  -->
<svg version="1.1" id="Layer_3" xmlns="http://www.w3.org/2000/svg" xmlns:xlink="http://www.w3.org/1999/xlink" x="0px" y="0px"
	 viewBox="0 0 448 448" style="enable-background:new 0 0 448 448;" xml:space="preserve">
<style type="text/css">
	.st0{fill:#FFFFFF;}
</style>
<path class="st0" d="M438.3,341.8c-14-11.7-96-63.7-109.6-61.3c-6.4,1.1-11.3,6.6-24.4,22.2c-6.1,7.7-12.7,14.9-19.9,21.6
	c-13.2-3.2-25.9-7.9-38-14.1c-47.3-23-85.5-61.3-108.5-108.6c-6.2-12.1-10.9-24.8-14.1-38c6.7-7.2,13.9-13.8,21.6-19.9
	c15.6-13.1,21.1-18,22.2-24.4c2.4-13.7-49.6-95.6-61.3-109.6c-4.9-5.8-9.3-9.7-15-9.7C74.7,0,0,92.4,0,104.3c0,1,1.6,97.1,123,220.7
	c123.5,121.4,219.7,123,220.7,123c12,0,104.3-74.7,104.3-91.2C448,351.1,444.1,346.7,438.3,341.8L438.3,341.8z"/>
<path class="st0" d="M336,208h32c-0.1-70.7-57.3-127.9-128-128v32C293,112.1,335.9,155,336,208z"/>
<path class="st0" d="M416,208h32C447.9,93.2,354.8,0.1,240,0v32C337.2,32.1,415.9,110.8,416,208z"/>
</svg>
