<svg width="25" height="25" viewBox="0 0 25 25" fill="none" xmlns="http://www.w3.org/2000/svg">
<path d="M12.1544 5.42917C12.1849 5.36346 12.2336 5.30784 12.2947 5.26887C12.3558 5.2299 12.4267 5.2092 12.4992 5.2092C12.5716 5.2092 12.6426 5.2299 12.7037 5.26887C12.7648 5.30784 12.8134 5.36346 12.844 5.42917L13.6919 7.16667C13.7481 7.28125 13.8533 7.36146 13.9763 7.38229L15.8179 7.68854C16.1304 7.74062 16.2554 8.14062 16.0315 8.37396L14.7127 9.75521C14.6693 9.80132 14.637 9.85671 14.6183 9.91718C14.5995 9.97764 14.5947 10.0416 14.6044 10.1042L14.895 12.0312C14.944 12.3583 14.6179 12.6052 14.3367 12.4552L12.6752 11.5708C12.621 11.542 12.5606 11.5269 12.4992 11.5269C12.4378 11.5269 12.3773 11.542 12.3231 11.5708L10.6617 12.4552C10.3804 12.6052 10.0544 12.3583 10.1033 12.0312L10.394 10.1042C10.4036 10.0416 10.3989 9.97764 10.3801 9.91718C10.3613 9.85671 10.329 9.80132 10.2856 9.75521L8.96689 8.375C8.74397 8.14167 8.86793 7.74167 9.18043 7.68958L11.0221 7.38333C11.0834 7.37298 11.1412 7.34796 11.1907 7.31042C11.2403 7.27287 11.28 7.22391 11.3065 7.16771L12.1544 5.42917Z" stroke="#999999" stroke-width="1.5" stroke-linecap="round" stroke-linejoin="round"/>
<path d="M19.7904 9.375C19.7904 10.3326 19.6018 11.2807 19.2353 12.1654C18.8689 13.0501 18.3318 13.8539 17.6547 14.531C16.9776 15.2081 16.1738 15.7452 15.2891 16.1116C14.4044 16.4781 13.4563 16.6667 12.4987 16.6667C11.5411 16.6667 10.593 16.4781 9.7083 16.1116C8.82363 15.7452 8.0198 15.2081 7.34271 14.531C6.66562 13.8539 6.12852 13.0501 5.76208 12.1654C5.39564 11.2807 5.20703 10.3326 5.20703 9.375C5.20703 7.44113 5.97526 5.58646 7.34271 4.21901C8.71016 2.85156 10.5648 2.08333 12.4987 2.08333C14.4326 2.08333 16.2872 2.85156 17.6547 4.21901C19.0221 5.58646 19.7904 7.44113 19.7904 9.375Z" stroke="#999999" stroke-width="1.5" stroke-linecap="round" stroke-linejoin="round"/>
<path d="M13.5413 17.0229L15.2351 21.5125C15.5767 22.4156 15.7476 22.8687 16.0445 22.9167C16.3424 22.8729 16.707 22.375 17.0632 21.476C17.3184 20.8323 17.4455 20.5104 17.709 20.3365C17.7896 20.2837 17.8767 20.242 17.9705 20.2115C18.2747 20.1156 18.6236 20.2094 19.3226 20.399C20.0695 20.601 20.5882 20.5448 20.7934 20.399C20.8538 20.3562 20.7934 20.3958 20.7934 20.3958C20.9142 20.1812 20.7517 19.8479 20.4257 19.1802L18.183 14.5833M11.458 17.0229L9.76425 21.5104C9.42258 22.4146 9.08508 22.8687 8.7882 22.9167C8.49029 22.8729 8.31216 22.4229 7.95487 21.524C7.7007 20.8802 7.55383 20.5094 7.29029 20.3365C7.20938 20.2828 7.12138 20.2407 7.02883 20.2115C6.72466 20.1146 6.3757 20.2094 5.67675 20.3979C4.92987 20.6 4.41112 20.5406 4.20591 20.3948C4.08508 20.1802 4.24758 19.8469 4.57362 19.1792L6.81633 14.5833" stroke="#999999" stroke-width="1.5" stroke-linecap="round" stroke-linejoin="round"/>
</svg>
