<svg width="192" height="208" viewBox="0 0 192 208" fill="none" xmlns="http://www.w3.org/2000/svg">
<g clip-path="url(#clip0_524_2146)">
<path d="M176 0H48C39.2 0 32 7.2 32 16V40H16C7.2 40 0 47.2 0 56V152C0 160.8 7.2 168 16 168H32V192C32 200.8 39.2 208 48 208H176C184.8 208 192 200.8 192 192V16C192 7.2 184.8 0 176 0ZM45.2 134.4C41.7 131.7 40.9 126.7 43.6 123.2L58 104L43.6 84.8C40.9 81.3 41.7 76.3 45.2 73.6C48.7 70.9 53.7 71.7 56.4 75.2L68 90.7L79.6 75.2C82.3 71.7 87.3 70.9 90.8 73.6C94.3 76.3 95.1 81.3 92.4 84.8L78 104L92.4 123.2C95.1 126.7 94.3 131.7 90.8 134.4C89.4 135.5 87.7 136 86 136C83.5 136 81.1 134.8 79.6 132.8L68 117.3L56.4 132.8C54.9 134.8 52.5 136 50 136C48.3 136 46.6 135.5 45.2 134.4ZM104 192H48V168H104V192ZM104 40H48V16H104V40ZM176 192H120V168C128.8 168 136 160.8 136 152V144H176V192ZM176 128H136V80H176V128ZM176 64H136V56C136 47.2 128.8 40 120 40V16H176V64Z" fill="#0076FD"/>
</g>
<defs>
<clipPath id="clip0_524_2146">
<rect width="192" height="208" fill="white"/>
</clipPath>
</defs>
</svg>
