<svg width="27" height="24" viewBox="0 0 27 24" fill="none" xmlns="http://www.w3.org/2000/svg">
<path d="M13.6605 0.193458C13.5052 0.0680863 13.314 0 13.1171 0C12.9203 0 12.729 0.0680863 12.5737 0.193458L0 10.348L1.08763 11.7726L2.625 10.5311V21.7495C2.62592 22.2299 2.8106 22.6904 3.13858 23.0301C3.46657 23.3698 3.91116 23.5611 4.375 23.562H21.875C22.3388 23.5611 22.7834 23.3698 23.1114 23.0301C23.4394 22.6904 23.6241 22.2299 23.625 21.7495V10.5392L25.1624 11.7808L26.25 10.3561L13.6605 0.193458ZM14.875 21.7495H11.375V14.4995H14.875V21.7495ZM16.625 21.7495V14.4995C16.6245 14.019 16.44 13.5582 16.1119 13.2184C15.7838 12.8786 15.339 12.6875 14.875 12.687H11.375C10.911 12.6875 10.4662 12.8786 10.1381 13.2184C9.80999 13.5582 9.62546 14.019 9.625 14.4995V21.7495H4.375V9.11821L13.125 2.05852L21.875 9.12727V21.7495H16.625Z" fill="black"/>
</svg>
