<?xml version="1.0" encoding="utf-8"?>
<!-- Generator: Adobe Illustrator 23.0.3, SVG Export Plug-In . SVG Version: 6.00 Build 0)  -->
<svg version="1.1" id="Layer_1" xmlns="http://www.w3.org/2000/svg" xmlns:xlink="http://www.w3.org/1999/xlink" x="0px" y="0px"
	 viewBox="0 0 329.9 303.1" style="enable-background:new 0 0 329.9 303.1;" xml:space="preserve">
<style type="text/css">
	.st0{fill:#FFFFFF;}
</style>
<g id="XMLID_481_">
	<path id="XMLID_482_" class="st0" d="M115.6,265c5.9,5.2,12.1,10.6,18.4,16.2c0,0,0.1,0.1,0.1,0.1l21,18.2c2.8,2.4,6.3,3.6,9.8,3.6
		s7-1.2,9.8-3.6l21-18.2c0,0,0.1-0.1,0.1-0.1c41.6-36.8,72.8-65,95.4-92.4c26.4-32.1,38.6-61.1,38.6-91.3
		c0-54.6-42.8-97.5-97.4-97.5c-24.6,0-48.8,9.2-67.5,25.3C146.3,9.2,122,0,97.5,0C42.8,0,0,42.8,0,97.5C0,163.5,46,203.9,115.6,265z
		 M105,121.6h40v-40h40v40h40v40h-40v40h-40v-40h-40L105,121.6L105,121.6z"/>
</g>
</svg>
