<?xml version="1.0" encoding="utf-8"?>
<!-- Generator: Adobe Illustrator 23.0.3, SVG Export Plug-In . SVG Version: 6.00 Build 0)  -->
<svg version="1.1" id="레이어_1" xmlns="http://www.w3.org/2000/svg" xmlns:xlink="http://www.w3.org/1999/xlink" x="0px"
	 y="0px" viewBox="0 0 368.5 368.5" style="enable-background:new 0 0 368.5 368.5;" xml:space="preserve">
<style type="text/css">
	.st0{fill:#FFFFFF;}
</style>
<path class="st0" d="M184.3,33.2c49.2,0,55,0.2,74.5,1.1c18,0.8,27.7,3.8,34.2,6.3c8.6,3.3,14.7,7.3,21.2,13.8
	c6.4,6.4,10.4,12.6,13.8,21.2c2.5,6.5,5.5,16.2,6.3,34.2c0.9,19.4,1.1,25.3,1.1,74.5c0,49.2-0.2,55-1.1,74.5
	c-0.8,18-3.8,27.7-6.3,34.2c-3.3,8.6-7.3,14.7-13.8,21.2s-12.6,10.4-21.2,13.8c-6.5,2.5-16.3,5.5-34.2,6.3
	c-19.4,0.9-25.3,1.1-74.5,1.1c-49.2,0-55-0.2-74.5-1.1c-18-0.8-27.7-3.8-34.2-6.3c-8.6-3.3-14.7-7.3-21.2-13.8
	c-6.4-6.4-10.4-12.6-13.8-21.2c-2.5-6.5-5.5-16.2-6.3-34.2c-0.9-19.4-1.1-25.3-1.1-74.5c0-49.2,0.2-55,1.1-74.5
	c0.8-18,3.8-27.7,6.3-34.2C44,67,48,60.8,54.4,54.4C60.8,48,67,44,75.6,40.6c6.5-2.5,16.2-5.5,34.2-6.3
	C129.2,33.4,135.1,33.2,184.3,33.2 M184.3,0c-50,0-56.3,0.2-76,1.1c-19.6,0.9-33,4-44.7,8.6c-12.1,4.7-22.4,11-32.6,21.3
	C20.7,41.2,14.4,51.4,9.7,63.6C5.1,75.3,2,88.7,1.1,108.3c-0.9,19.7-1.1,25.9-1.1,76s0.2,56.3,1.1,76c0.9,19.6,4,33,8.6,44.7
	c4.7,12.1,11,22.4,21.3,32.6c10.2,10.2,20.5,16.5,32.6,21.3c11.7,4.6,25.1,7.7,44.7,8.6c19.7,0.9,25.9,1.1,76,1.1
	c50,0,56.3-0.2,76-1.1c19.6-0.9,33-4,44.7-8.6c12.1-4.7,22.4-11,32.6-21.3c10.2-10.2,16.5-20.5,21.3-32.6
	c4.6-11.7,7.7-25.1,8.6-44.7c0.9-19.7,1.1-25.9,1.1-76s-0.2-56.3-1.1-76c-0.9-19.6-4-33-8.6-44.7c-4.7-12.1-11-22.4-21.3-32.6
	c-10.2-10.2-20.5-16.5-32.6-21.3c-11.7-4.6-25.1-7.7-44.7-8.6C240.6,0.2,234.3,0,184.3,0"/>
<path class="st0" d="M184.3,89.6c-52.3,0-94.6,42.4-94.6,94.6s42.4,94.6,94.6,94.6c52.3,0,94.6-42.4,94.6-94.6
	S236.5,89.6,184.3,89.6 M184.3,245.7c-33.9,0-61.4-27.5-61.4-61.4c0-33.9,27.5-61.4,61.4-61.4c33.9,0,61.4,27.5,61.4,61.4
	C245.7,218.2,218.2,245.7,184.3,245.7"/>
<path class="st0" d="M304.7,85.9c0,12.2-9.9,22.1-22.1,22.1c-12.2,0-22.1-9.9-22.1-22.1c0-12.2,9.9-22.1,22.1-22.1
	C294.8,63.8,304.7,73.7,304.7,85.9"/>
</svg>
