<?xml version="1.0" encoding="utf-8"?>
<!-- Generator: Adobe Illustrator 23.0.3, SVG Export Plug-In . SVG Version: 6.00 Build 0)  -->
<svg version="1.1" id="레이어_1" xmlns="http://www.w3.org/2000/svg" xmlns:xlink="http://www.w3.org/1999/xlink" x="0px"
	 y="0px" viewBox="0 0 98.7 90.7" style="enable-background:new 0 0 98.7 90.7;" xml:space="preserve">
<style type="text/css">
	.st0{fill:#FFFFFF;}
</style>
<g>
	<polygon class="st0" points="36.2,41.6 42.1,41.6 39.2,32.7 	"/>
	<path class="st0" d="M49.3,0C22.1,0,0,17.5,0,39c0,14,9.4,26.3,23.4,33.2c-1,3.9-3.7,14-4.3,16.1c-0.7,2.7,1,2.6,2.1,1.9
		c0.8-0.6,13.5-9.2,19-12.9c3,0.4,6,0.7,9.2,0.7c27.3,0,49.3-17.5,49.3-39C98.7,17.5,76.6,0,49.3,0z M24.3,49.1c0,2.4-5.3,2.3-5.3,0
		c0-3.3,0-17.2,0-17.2h-5.1c-3,0-3-4.9,0-4.9c0,0,11.9,0.1,15.4,0.1c3.2,0,3.2,5,0,5c-3.4,0-5.1,0-5.1,0L24.3,49.1z M44.7,49.7
		c-1.2-3.3-0.9-3.4-0.9-3.4h-9.3l-1,3.6c-1.1,2.5-5.8,0.5-4.7-2c1.5-3.4,6-16.4,7.3-19.2c0.5-1.1,1.7-1.5,2.9-1.5
		c1.4,0,2.9,0.6,3.3,1.5c0.9,1.9,5.8,15.5,7.3,19.3C50.5,50.5,45.7,52.3,44.7,49.7z M63.5,50.9c-2.1,0-6.6,0-9.3,0
		c-0.3,0-0.6,0-0.9,0c0,0,0,0,0,0c-2.4,0-2-2.8-2-2.8s0-14.2,0-18.7c0-1.6,1.4-2.3,2.8-2.3c1.4,0,2.7,0.8,2.7,2.3
		c0,3.2,0,16.4,0,16.4s4.4,0,6.7,0C65.9,45.8,65.9,50.9,63.5,50.9z M80,50.5l-6.7-9.1l-1.5,1.2c0,0,0,4.5,0,6.9c0,2-5.2,2.1-5.2,0
		c0-1.3,0.1-18.8,0.1-20.8c0-1.1,1.3-1.6,2.7-1.6c1.3,0,2.5,0.5,2.5,1.5c0.1,2.6,0,7.4,0,7.4s7.6-7.6,8.6-8.6
		c1.1-1.1,4.5,2.4,3.4,3.5c-1.9,1.9-6.7,7.1-6.7,7.1l7.1,9.4C85.6,49,81.3,52.2,80,50.5z"/>
</g>
</svg>
