<svg width="59" height="41" viewBox="0 0 59 41" fill="none" xmlns="http://www.w3.org/2000/svg">
<g clip-path="url(#clip0_336_3339)">
<path d="M27.9314 3.776C15.4234 3.776 5.27539 13.924 5.27539 26.432V33.984H50.5874V26.432C50.5874 13.924 40.4394 3.776 27.9314 3.776Z" fill="#FFAA4C"/>
<path d="M44.4514 39.176H5.03936C3.62336 39.176 2.44336 37.996 2.44336 36.58C2.44336 35.164 3.62336 33.984 5.03936 33.984H44.4514V39.176Z" fill="#FFAA4C"/>
<path d="M44.4514 39.176H7.87139C6.45539 39.176 5.27539 37.996 5.27539 36.58C5.27539 35.164 6.45539 33.984 7.87139 33.984H44.4514V39.176Z" fill="#FFC960"/>
<path d="M24.3455 4.0592C24.4399 4.0592 24.5343 4.012 24.6287 4.012C24.7703 2.3128 26.1863 0.944 27.9327 0.944C29.6791 0.944 31.0951 2.3128 31.2367 4.012C42.1871 5.6168 50.5887 15.0096 50.5887 26.432V33.04H9.05273V25.488C9.05273 15.5288 15.4719 7.1272 24.3455 4.0592Z" fill="#FFC960"/>
<path d="M33.5957 15.104V26.196C33.5957 32.096 37.1357 37.3824 42.4693 39.648H45.1125C50.6349 37.4768 54.3637 32.096 54.3637 26.0544V15.104H33.5957Z" fill="#FFAA4C"/>
<path d="M46.3863 39.0816L46.1031 39.176C40.0615 37.2408 35.9551 31.624 35.9551 25.252V15.104H56.7231V25.1104C56.7231 31.5296 52.5223 37.1936 46.3863 39.0816Z" fill="#74AAFF"/>
<path d="M50.1158 19.824H44.9238L42.0918 27.376H46.3398L44.9238 33.512L51.5318 24.544H46.8118L50.1158 19.824Z" fill="#FF5F5F"/>
<path d="M46.254 40.12H5.06324C4.7816 40.12 4.53516 39.7896 4.53516 39.412C4.53516 39.0344 4.7816 38.704 5.06324 38.704H46.254C46.5356 38.704 46.7821 39.0344 46.7821 39.412C46.7821 39.7896 46.5356 40.12 46.254 40.12Z" fill="#252D32"/>
<path d="M5.04 40.12C3.1048 40.12 1.5 38.5152 1.5 36.58C1.5 34.6448 3.1048 33.04 5.04 33.04H38.08C38.4576 33.04 38.788 33.3704 38.788 33.748C38.788 34.1256 38.4576 34.456 38.08 34.456H5.04C3.86 34.456 2.916 35.4 2.916 36.58C2.916 37.76 3.86 38.704 5.04 38.704C5.4176 38.704 5.748 39.0344 5.748 39.412C5.748 39.7896 5.4176 40.12 5.04 40.12Z" fill="#252D32"/>
<path d="M47.5205 15.2928C47.2845 15.2928 47.0485 15.1512 46.9069 14.9624C43.6029 9.48721 38.0805 5.71121 31.8029 4.57841C31.4253 4.53121 31.1893 4.15361 31.2365 3.77601C31.2837 3.39841 31.6613 3.11521 32.0389 3.20961C38.7413 4.38961 44.5941 8.40161 48.1341 14.2544C48.3229 14.5848 48.2285 15.0096 47.8981 15.2456C47.8037 15.2928 47.6621 15.2928 47.5205 15.2928Z" fill="#252D32"/>
<path d="M5.04003 33.984C4.66243 33.984 4.33203 33.6536 4.33203 33.276V26.432C4.33203 14.868 12.592 5.05039 24.0144 3.16239C24.392 3.11519 24.7696 3.35119 24.8168 3.72879C24.864 4.10639 24.628 4.48399 24.2504 4.53119C13.536 6.37199 5.74803 15.576 5.74803 26.432V33.276C5.74803 33.6536 5.41763 33.984 5.04003 33.984Z" fill="#252D32"/>
<path d="M31.4716 33.984C31.094 33.984 30.7636 33.6536 30.7636 33.276V4.248C30.7636 2.6904 29.4892 1.416 27.9316 1.416C26.374 1.416 25.0996 2.6904 25.0996 4.248V33.276C25.0996 33.6536 24.7692 33.984 24.3916 33.984C24.014 33.984 23.6836 33.6536 23.6836 33.276V4.248C23.6836 1.888 25.5716 0 27.9316 0C30.2916 0 32.1796 1.888 32.1796 4.248V33.276C32.1796 33.6536 31.8492 33.984 31.4716 33.984Z" fill="#252D32"/>
<path d="M46.1037 40.12C46.0093 40.12 45.9621 40.12 45.8677 40.0728C39.3541 37.996 35.0117 32.0016 35.0117 25.2048V14.868C35.0117 14.4904 35.3421 14.16 35.7197 14.16H56.9597C57.3373 14.16 57.6677 14.4904 57.6677 14.868V25.0632C57.6677 32.0016 53.2309 37.996 46.6229 39.9784L46.3397 40.0728C46.2453 40.12 46.1509 40.12 46.1037 40.12ZM36.4277 15.576V25.2048C36.4277 31.3408 40.2981 36.7216 46.1037 38.6568L46.1981 38.6096C52.1925 36.816 56.2517 31.3408 56.2517 25.0632V15.576H36.4277Z" fill="#252D32"/>
<path d="M44.6866 34.456C44.6394 34.456 44.545 34.456 44.4978 34.4088C44.309 34.3144 44.1674 34.0784 44.2618 33.8896L45.6778 27.848H42.0906C41.949 27.848 41.8074 27.7536 41.713 27.6592C41.6186 27.5176 41.6186 27.376 41.6658 27.2344L44.4978 19.6824C44.545 19.4936 44.7338 19.3992 44.9226 19.3992H50.0674C50.2562 19.3992 50.3978 19.4936 50.4922 19.6352C50.5866 19.7768 50.5866 19.9656 50.4922 20.1072L47.849 24.072H51.8138C52.0026 24.072 52.1442 24.1664 52.2386 24.3552C52.333 24.4968 52.2858 24.6856 52.1914 24.8272L45.1114 34.2672C44.9698 34.4088 44.8282 34.456 44.6866 34.456ZM42.7514 26.904H46.2914C46.433 26.904 46.5746 26.9512 46.669 27.0928C46.7634 27.1872 46.8106 27.376 46.7634 27.5176L45.6778 31.9072L50.8226 25.016H46.9522C46.7634 25.016 46.6218 24.9216 46.5274 24.78C46.433 24.6384 46.433 24.4496 46.5274 24.308L49.1706 20.296H45.253L42.7514 26.904Z" fill="#252D32"/>
</g>
<defs>
<clipPath id="clip0_336_3339">
<rect width="59" height="40.12" fill="white"/>
</clipPath>
</defs>
</svg>
