<svg width="60" height="45" viewBox="0 0 60 45" fill="none" xmlns="http://www.w3.org/2000/svg">
<path d="M54.6781 6.29031H4.35547V40.6452H54.6781V6.29031Z" fill="#EDF2F8"/>
<path d="M52.2578 8.70969H7.25781V36.7742H52.2578V8.70969Z" fill="#4F88FF"/>
<path d="M52.2579 10.6452H9.19336V36.7742H52.2579V10.6452Z" fill="#74AAFF"/>
<path d="M33.3874 39.6774V41.6129H26.1293V39.6774H1.74219C1.74219 42.3387 3.82283 44.5161 6.38735 44.5161H53.0325C55.597 44.5161 57.6777 42.3387 57.6777 39.6774H33.3874Z" fill="#DCE6F6"/>
<path d="M31.3558 28.5484H49.8397V0.967743H31.3558C30.0493 0.967743 29.0332 1.98387 29.0332 3.29032V26.2742C29.0332 27.5323 30.0493 28.5484 31.3558 28.5484Z" fill="#FFC960"/>
<path d="M30 25.6452H46.9355V0.967743H31.6452C30.7258 0.967743 30 1.69355 30 2.6129V25.6452Z" fill="white"/>
<path d="M28.1616 28.5484H9.67773V0.967743H28.1616C29.4681 0.967743 30.4842 1.98387 30.4842 3.29032V26.2742C30.4842 27.5323 29.4681 28.5484 28.1616 28.5484Z" fill="#FFC960"/>
<path d="M29.5156 25.6452H12.5801V0.967743H27.8704C28.7898 0.967743 29.5156 1.69355 29.5156 2.6129V25.6452Z" fill="white"/>
<path d="M25.4042 6.77418H16.6946C16.3075 6.77418 15.9688 6.43547 15.9688 6.04838C15.9688 5.66128 16.3075 5.32257 16.6946 5.32257H25.4042C25.7913 5.32257 26.13 5.66128 26.13 6.04838C26.13 6.43547 25.7913 6.77418 25.4042 6.77418Z" fill="#C5D5F0"/>
<path d="M25.4042 11.6129H16.6946C16.3075 11.6129 15.9688 11.2742 15.9688 10.8871C15.9688 10.5 16.3075 10.1613 16.6946 10.1613H25.4042C25.7913 10.1613 26.13 10.5 26.13 10.8871C26.13 11.2742 25.7913 11.6129 25.4042 11.6129Z" fill="#C5D5F0"/>
<path d="M42.8222 6.77418H34.1125C33.7254 6.77418 33.3867 6.43547 33.3867 6.04838C33.3867 5.66128 33.7254 5.32257 34.1125 5.32257H42.8222C43.2093 5.32257 43.548 5.66128 43.548 6.04838C43.548 6.43547 43.2093 6.77418 42.8222 6.77418Z" fill="#C5D5F0"/>
<path d="M42.8224 11.6129H39.9192C39.5321 11.6129 39.1934 11.2742 39.1934 10.8871C39.1934 10.5 39.5321 10.1613 39.9192 10.1613H42.8224C43.2095 10.1613 43.5482 10.5 43.5482 10.8871C43.5482 11.2742 43.2095 11.6129 42.8224 11.6129Z" fill="#C5D5F0"/>
<path d="M36.048 11.6129H34.1125C33.7254 11.6129 33.3867 11.2742 33.3867 10.8871C33.3867 10.5 33.7254 10.1613 34.1125 10.1613H36.048C36.4351 10.1613 36.7738 10.5 36.7738 10.8871C36.7738 11.2742 36.4351 11.6129 36.048 11.6129Z" fill="#C5D5F0"/>
<path d="M42.8222 16.4516H34.1125C33.7254 16.4516 33.3867 16.1129 33.3867 15.7258C33.3867 15.3387 33.7254 15 34.1125 15H42.8222C43.2093 15 43.548 15.3387 43.548 15.7258C43.548 16.1129 43.2093 16.4516 42.8222 16.4516Z" fill="#C5D5F0"/>
<path d="M42.8222 21.2903H34.1125C33.7254 21.2903 33.3867 20.9516 33.3867 20.5645C33.3867 20.1774 33.7254 19.8387 34.1125 19.8387H42.8222C43.2093 19.8387 43.548 20.1774 43.548 20.5645C43.548 20.9516 43.2093 21.2903 42.8222 21.2903Z" fill="#C5D5F0"/>
<path d="M25.4042 21.2903H16.6946C16.3075 21.2903 15.9688 20.9516 15.9688 20.5645C15.9688 20.1774 16.3075 19.8387 16.6946 19.8387H25.4042C25.7913 19.8387 26.13 20.1774 26.13 20.5645C26.13 20.9516 25.7913 21.2903 25.4042 21.2903Z" fill="#C5D5F0"/>
<path d="M20.5655 16.4516H16.6946C16.3075 16.4516 15.9688 16.1129 15.9688 15.7258C15.9688 15.3387 16.3075 15 16.6946 15H20.5655C20.9526 15 21.2913 15.3387 21.2913 15.7258C21.2913 16.1129 20.9526 16.4516 20.5655 16.4516Z" fill="#C5D5F0"/>
<path d="M52.8389 45H6.726C3.726 45 1.30664 42.4838 1.30664 39.4355C1.30664 39.0484 1.64535 38.7097 2.03245 38.7097H25.8873C26.2744 38.7097 26.6131 39.0484 26.6131 39.4355V40.6451H32.4195V39.4355C32.4195 39.0484 32.7583 38.7097 33.1454 38.7097H57.5324C57.9195 38.7097 58.2583 39.0484 58.2583 39.4355C58.2583 42.4838 55.8389 45 52.8389 45ZM2.80664 40.1613C3.14535 42.0968 4.74212 43.5484 6.67761 43.5484H52.8389C54.7744 43.5484 56.3712 42.0968 56.7099 40.1613H33.8712V41.3709C33.8712 41.758 33.5324 42.0968 33.1454 42.0968H25.8873C25.5002 42.0968 25.1615 41.758 25.1615 41.3709V40.1613H2.80664Z" fill="#252D32"/>
<path d="M51.7739 37.2581H7.74168C7.45136 37.2581 7.25781 37.0645 7.25781 36.7742C7.25781 36.4839 7.45136 36.2903 7.74168 36.2903H51.7739C52.0643 36.2903 52.2578 36.4839 52.2578 36.7742C52.2578 37.0645 52.0643 37.2581 51.7739 37.2581Z" fill="#252D32"/>
<path d="M4.5969 39.6774C4.2098 39.6774 3.87109 39.3387 3.87109 38.9516V7.30644C3.87109 6.19354 4.74206 5.32257 5.85496 5.32257H8.95174C9.33884 5.32257 9.67755 5.66128 9.67755 6.04838C9.67755 6.43547 9.33884 6.77418 8.95174 6.77418H5.85496C5.56464 6.77418 5.32271 7.01612 5.32271 7.30644V38.9516C5.32271 39.3387 4.984 39.6774 4.5969 39.6774Z" fill="#252D32"/>
<path d="M54.919 39.6774C54.5319 39.6774 54.1932 39.3387 54.1932 38.9516V7.30644C54.1932 7.01612 53.9513 6.77418 53.661 6.77418H51.0481C50.661 6.77418 50.3223 6.43547 50.3223 6.04838C50.3223 5.66128 50.661 5.32257 51.0481 5.32257H53.661C54.7739 5.32257 55.6448 6.19354 55.6448 7.30644V38.9516C55.6448 39.3387 55.3061 39.6774 54.919 39.6774Z" fill="#252D32"/>
<path d="M46.9345 26.129H29.5151C29.2248 26.129 29.0312 25.9355 29.0312 25.6452C29.0312 25.3548 29.2248 25.1613 29.5151 25.1613H46.4506V1.45161C46.4506 1.16129 46.6442 0.967743 46.9345 0.967743C47.2248 0.967743 47.4183 1.16129 47.4183 1.45161V25.6452C47.4183 25.9355 47.2248 26.129 46.9345 26.129Z" fill="#252D32"/>
<path d="M50.0796 29.5161H31.6925C30.2409 29.5161 29.0312 28.3064 29.0312 26.8548V2.66129C29.0312 1.20968 30.2409 0 31.6925 0H50.0796C50.4667 0 50.8054 0.33871 50.8054 0.725806V28.7903C50.8054 29.1774 50.4667 29.5161 50.0796 29.5161ZM31.6925 1.45161C31.0151 1.45161 30.4829 1.98387 30.4829 2.66129V26.8548C30.4829 27.5323 31.0151 28.0645 31.6925 28.0645H49.3538V1.45161H31.6925Z" fill="#252D32"/>
<path d="M29.9989 26.129H12.5796C12.2893 26.129 12.0957 25.9355 12.0957 25.6452V1.45161C12.0957 1.16129 12.2893 0.967743 12.5796 0.967743C12.8699 0.967743 13.0634 1.16129 13.0634 1.45161V25.1613H29.9989C30.2893 25.1613 30.4828 25.3548 30.4828 25.6452C30.4828 25.9355 30.2893 26.129 29.9989 26.129Z" fill="#252D32"/>
<path d="M27.8219 29.5161H9.43479C9.04769 29.5161 8.70898 29.1774 8.70898 28.7903V0.725806C8.70898 0.33871 9.04769 0 9.43479 0H27.8219C29.2735 0 30.4832 1.20968 30.4832 2.66129C30.4832 3.04839 30.1445 3.3871 29.7574 3.3871C29.3703 3.3871 29.0316 3.04839 29.0316 2.66129C29.0316 1.98387 28.4993 1.45161 27.8219 1.45161H10.1606V28.0645H27.8219C28.4993 28.0645 29.0316 27.5323 29.0316 26.8548C29.0316 26.4677 29.3703 26.129 29.7574 26.129C30.1445 26.129 30.4832 26.4677 30.4832 26.8548C30.4832 28.3064 29.2735 29.5161 27.8219 29.5161Z" fill="#252D32"/>
</svg>
