<svg width="41" height="52" viewBox="0 0 41 52" fill="none" xmlns="http://www.w3.org/2000/svg">
<g clip-path="url(#clip0_336_3369)">
<path d="M0.451172 5V30.0909C0.451172 36.1364 3.65007 41.7273 8.78634 44.7727L20.2753 51.5L31.7644 44.7727C36.9006 41.7273 40.0995 36.0909 40.0995 30.0909V5C32.2149 5.54545 25.5468 4.04545 20.2753 0.5C15.0039 4.04545 8.33579 5.54545 0.451172 5Z" fill="#C5D5F0"/>
<path d="M36.9463 7.63635C30.7288 7.63635 25.2771 6.27272 20.7266 3.63635V48.4545L30.7288 42.5909C35.0991 39.9545 37.8474 35.1818 37.8474 30V7.5909C37.5321 7.63635 37.2617 7.63635 36.9463 7.63635Z" fill="#DCE6F6"/>
<path d="M25.4111 14.5C23.6089 14.5 21.9418 15.2273 20.7253 16.4545C19.5089 15.2273 17.8418 14.5 16.0396 14.5C12.3001 14.5 9.23633 17.6818 9.23633 21.5909C9.23633 29.5909 20.7253 36.5 20.7253 36.5C20.7253 36.5 32.2143 29.5909 32.2143 21.6364C32.2143 17.6818 29.1506 14.5 25.4111 14.5Z" fill="#FF5F5F"/>
<path d="M20.5 52C20.3648 52 20.2747 51.9545 20.1396 51.9091L8.78571 45.2273C3.37912 42.0909 0 36.1818 0 29.8636V5.04545C0 4.86364 0.0901099 4.68182 0.225275 4.54545C0.36044 4.40909 0.540659 4.36364 0.720879 4.36364C8.56044 5.09091 15.0934 3.63636 20.0945 0.136364C20.3198 -0.0454545 20.6352 -0.0454545 20.8604 0.136364C25.9066 3.68182 32.3945 5.09091 40.2341 4.40909C40.4143 4.40909 40.5945 4.45455 40.7297 4.59091C40.8648 4.72727 40.9549 4.90909 40.9549 5.09091V29.9091C40.9549 36.2273 37.5758 42.0909 32.1692 45.2727L20.7703 51.9091C20.7253 51.9545 20.6352 52 20.5 52ZM1.35165 5.81818V29.9091C1.35165 35.7273 4.46044 41.1818 9.46154 44.0909L20.5 50.5455L31.5385 44.0455C36.5396 41.1364 39.6483 35.6818 39.6483 29.8636V5.77273C32.0341 6.36364 25.5912 4.90909 20.5 1.5C15.4088 4.90909 8.96593 6.36364 1.35165 5.81818Z" fill="#252D32"/>
<path d="M20.8151 36.7273C20.725 36.7273 20.6799 36.7273 20.5898 36.6818C20.0942 36.4091 8.69531 29.6818 8.69531 21.6818C8.69531 17.5909 11.9843 14.2727 16.0393 14.2727C17.7964 14.2727 19.4634 14.9091 20.77 16.0455C22.1217 14.9091 23.7887 14.2727 25.5008 14.2727C29.5558 14.2727 32.8448 17.5909 32.8448 21.6818C32.8448 29.6818 21.4459 36.4091 20.9503 36.6818C20.9503 36.7273 20.9052 36.7273 20.8151 36.7273ZM16.0843 15.1818C12.525 15.1818 9.64147 18.0909 9.64147 21.6818C9.64147 28.5909 19.2382 34.7727 20.8601 35.7727C22.4821 34.7727 32.0788 28.5909 32.0788 21.6818C32.0788 18.0909 29.1953 15.1818 25.636 15.1818C23.9689 15.1818 22.392 15.8182 21.2206 16.9546C21.0404 17.1364 20.77 17.1364 20.5898 16.9546C19.2832 15.8182 17.7063 15.1818 16.0843 15.1818Z" fill="#252D32" stroke="#252D32" stroke-width="0.5"/>
<path d="M20.3639 30.3636C20.0935 30.3636 19.8683 30.2273 19.7782 30L15.3628 21.7727L13.3353 26.5C13.2452 26.7273 12.9749 26.9091 12.7045 26.9091H5.6309C5.27046 26.9091 4.95508 26.5909 4.95508 26.2273C4.95508 25.8636 5.27046 25.5455 5.6309 25.5455H12.254L14.6869 19.9091C14.7771 19.6818 15.0023 19.5 15.2727 19.5C15.543 19.5 15.7683 19.6364 15.9034 19.8636L20.454 28.3182L24.0584 22.5909C24.1935 22.4091 24.4188 22.2727 24.6441 22.2727C24.9144 22.2727 25.0946 22.4091 25.2298 22.6364L26.8518 25.5455H35.8628C36.2232 25.5455 36.5386 25.8636 36.5386 26.2273C36.5386 26.5909 36.2232 26.9091 35.8628 26.9091H26.4012C26.176 26.9091 25.9507 26.7727 25.8155 26.5455L24.554 24.2727L20.9496 30C20.8144 30.2273 20.6342 30.3636 20.3639 30.3636Z" fill="#252D32"/>
</g>
<defs>
<clipPath id="clip0_336_3369">
<rect width="41" height="52" fill="white"/>
</clipPath>
</defs>
</svg>
