<svg width="55" height="55" viewBox="0 0 55 55" fill="none" xmlns="http://www.w3.org/2000/svg">
<g clip-path="url(#clip0_336_3568)">
<path d="M42.5027 26.7555C42.232 26.4848 41.871 26.3495 41.465 26.3495C41.0589 26.3495 40.7431 26.5299 40.4723 26.8007C38.9834 28.3798 36.6372 30.9967 34.9227 32.9368C33.9301 34.0648 33.3887 35.5086 33.3887 37.0427V45.0738H40.2016C40.2468 44.2617 40.4272 42.863 40.6077 41.9606C40.8333 41.1034 41.7808 39.9754 43.4953 38.1255C44.9842 36.4561 46.6988 34.6062 47.6463 32.8917C49.6766 29.192 49.5864 28.3347 49.4961 27.6128C49.4961 27.4323 49.2705 26.6653 49.0449 25.8983C48.684 24.5898 48.1877 22.8302 47.8267 21.0706C47.6463 20.2133 47.5109 19.2658 47.4207 18.4537C47.2853 17.4159 47.1048 16.0172 46.8792 15.7465C46.789 15.7014 46.6988 15.6563 46.6085 15.7014C46.428 15.7465 46.2025 15.8819 46.022 16.1526C44.7586 17.9573 44.8489 20.1231 44.9391 22.4692C45.0294 24.9508 45.1647 27.5677 43.4051 29.598L40.337 33.5234C40.1114 33.8392 39.6602 33.8843 39.3895 33.6587C39.0737 33.4331 39.0285 32.982 39.2541 32.7112L42.3222 28.7408C42.4576 28.5603 42.5929 28.3798 42.7283 28.1993C43.1795 27.4323 42.5478 26.8458 42.5027 26.7555Z" fill="#FFBFB4"/>
<path d="M22.0187 37.0878C22.0187 35.5989 21.4773 34.1099 20.4847 32.982C18.7701 31.0418 16.4239 28.3798 14.935 26.8458C14.6643 26.5751 14.3034 26.3946 13.9424 26.3946C13.5815 26.3946 13.1754 26.53 12.9047 26.8007C12.8144 26.8458 12.2279 27.4774 12.634 28.2445C12.634 28.2445 12.634 28.2445 12.634 28.2896C12.7242 28.4701 12.8596 28.6505 12.9949 28.7859L16.1081 32.7564C16.3337 33.0722 16.2886 33.4783 15.9728 33.7039C15.6569 33.9295 15.2509 33.8843 15.0253 33.5685L11.9572 29.598C10.2427 27.5677 10.3329 24.9959 10.4682 22.5144C10.5585 20.2133 10.6487 18.0025 9.38539 16.1977C9.20492 15.9721 8.97932 15.7916 8.79885 15.7465C8.70861 15.7465 8.57325 15.7465 8.48301 15.8368C8.25742 16.0624 8.07694 17.5062 7.94159 18.4988C7.85135 19.3109 7.71599 20.2133 7.53552 21.1157C7.17456 22.8753 6.67826 24.635 6.3173 25.9434C6.09171 26.7104 5.91123 27.4774 5.86612 27.6579C5.821 28.3798 5.73076 29.2371 7.71599 32.9368C8.66349 34.6514 10.3329 36.5464 11.8669 38.1706C13.5815 40.0656 14.529 41.1485 14.7545 42.0057C14.9801 42.9081 15.1155 44.3068 15.1606 45.119H21.9736V37.0878H22.0187Z" fill="#FFBFB4"/>
<path d="M33.7937 13.0845C33.0267 12.6333 32.1243 12.4077 31.222 12.4077C29.9135 12.4077 28.6502 12.904 27.7027 13.7613C26.7101 12.904 25.4919 12.4077 24.1834 12.4077C23.281 12.4077 22.3787 12.6333 21.6116 13.0845C19.8971 14.032 18.8594 15.8368 18.8594 17.7769C18.8594 18.3183 18.9496 18.8597 19.1301 19.4012C20.0325 23.1911 27.071 27.6579 27.3417 27.8384C27.4771 27.9286 27.6125 27.9738 27.7478 27.9738C27.8832 27.9738 28.0185 27.9286 28.1539 27.8384C28.4697 27.6579 35.5083 23.1911 36.3655 19.4012C36.546 18.8597 36.6362 18.3183 36.6362 17.7769C36.546 15.8368 35.4632 14.032 33.7937 13.0845Z" fill="#F86464" stroke="#252D32" stroke-width="1.2" stroke-miterlimit="10"/>
<path d="M43.7662 49.1345H29.7793V54.0976H43.7662V49.1345Z" fill="#74AAFF"/>
<path d="M32.7119 45.9762C32.351 45.9762 32.0352 45.6604 32.0352 45.2994V37.0878C32.0352 35.2379 32.7119 33.4783 33.9302 32.0796C35.6447 30.1395 37.9909 27.4774 39.5249 25.8983C40.0212 25.3569 40.7431 25.041 41.465 25.041C42.232 24.9959 42.9088 25.3117 43.4503 25.808C44.127 26.4848 44.5782 27.6579 43.9917 28.831C43.8112 29.1468 43.4051 29.2822 43.0893 29.1468C42.7735 28.9664 42.6381 28.5603 42.7735 28.2445C43.1795 27.4774 42.5479 26.8909 42.5028 26.8007C42.232 26.5299 41.8711 26.3946 41.465 26.3946C41.0589 26.3946 40.7431 26.5751 40.4724 26.8458C38.9835 28.4249 36.6373 31.0418 34.9228 32.982C33.9302 34.1099 33.3887 35.5537 33.3887 37.0878V45.3445C33.3887 45.7055 33.0729 45.9762 32.7119 45.9762Z" fill="#252D32"/>
<path d="M40.8334 46.4274C40.4274 46.3823 40.1567 46.0665 40.1567 45.7055C40.1567 45.6153 40.292 43.2691 40.6078 41.9606C40.8334 41.1034 41.7809 39.9754 43.4955 38.1255C44.9844 36.4561 46.6989 34.6062 47.6464 32.8917C49.6768 29.192 49.5865 28.3347 49.4963 27.6128C49.4963 27.4323 49.2707 26.6653 49.0451 25.8983C48.6841 24.5898 48.1878 22.8302 47.8269 21.0706C47.6464 20.2133 47.511 19.2658 47.4208 18.4537C47.2854 17.4159 47.105 16.0172 46.8794 15.7465C46.7891 15.7014 46.6989 15.6563 46.6087 15.7014C46.4282 15.7465 46.2026 15.8819 46.0221 16.1526C44.7588 17.9573 44.849 20.1231 44.9393 22.4692C45.0295 24.9508 45.1649 27.5677 43.4052 29.598L40.3371 33.5234C40.1115 33.8392 39.6603 33.8843 39.3896 33.6587C39.0738 33.4331 39.0287 32.982 39.2543 32.7112L42.3224 28.7408C43.7211 27.0714 43.6308 24.8605 43.5406 22.5144C43.4503 20.0779 43.315 17.5513 44.849 15.3856C45.21 14.8441 45.7514 14.4832 46.338 14.393C46.7891 14.3027 47.2854 14.4381 47.6464 14.7088C48.2781 15.16 48.4585 16.2428 48.7293 18.3183C48.8195 19.1304 48.9549 19.9877 49.1353 20.845C49.4963 22.5595 49.9475 24.274 50.3084 25.5825C50.6243 26.6653 50.7596 27.2067 50.8047 27.5226C50.895 28.6505 50.8498 29.8236 48.7744 33.5685C47.7818 35.4184 46.0221 37.3585 44.443 39.073C43.315 40.3363 42.0065 41.735 41.8712 42.3216C41.6005 43.4947 41.42 45.7957 41.42 45.7957C41.4651 46.1567 41.1944 46.4274 40.8334 46.4274Z" fill="#252D32"/>
<path d="M42.6382 49.5857C42.2772 49.5857 41.9614 49.2699 41.9614 48.909V46.4274H31.584V48.909C31.584 49.2699 31.2682 49.5857 30.9073 49.5857C30.5463 49.5857 30.2305 49.2699 30.2305 48.909V45.7506C30.2305 45.3897 30.5463 45.0739 30.9073 45.0739H42.6382C42.9991 45.0739 43.315 45.3897 43.315 45.7506V48.909C43.315 49.315 42.9991 49.5857 42.6382 49.5857Z" fill="#252D32"/>
<path d="M43.9918 55H29.5537C29.1928 55 28.877 54.6842 28.877 54.3232V48.909C28.877 48.548 29.1928 48.2322 29.5537 48.2322H43.9918C44.3528 48.2322 44.6686 48.548 44.6686 48.909V54.3232C44.6686 54.7293 44.3528 55 43.9918 55ZM30.2305 53.6465H43.315V49.5857H30.2305V53.6465Z" fill="#252D32"/>
<path d="M11.601 54.1205H25.5879V49.1574H11.601V54.1205Z" fill="#74AAFF"/>
<path d="M22.6952 45.9762C22.3343 45.9762 22.0184 45.6604 22.0184 45.2994V37.0878C22.0184 35.5989 21.477 34.1099 20.4844 32.982C18.7699 31.0418 16.4237 28.3798 14.9347 26.8458C14.664 26.5751 14.3031 26.3946 13.9421 26.3946C13.5812 26.3946 13.1751 26.5299 12.9044 26.8007C12.8142 26.8458 12.2276 27.4774 12.6337 28.2445C12.8142 28.5603 12.6788 28.9664 12.3178 29.1468C12.002 29.3273 11.5959 29.192 11.4155 28.831C10.8289 27.6579 11.2801 26.4848 11.9569 25.808C12.4983 25.3117 13.1751 24.9959 13.9421 25.041C14.7091 25.041 15.3859 25.3569 15.8822 25.8983C17.3712 27.4774 19.7174 30.1395 21.477 32.0796C22.6952 33.4783 23.372 35.2379 23.372 37.0878V45.3445C23.372 45.7055 23.0562 45.9762 22.6952 45.9762Z" fill="#252D32"/>
<path d="M14.5732 46.4274C14.2122 46.4274 13.9415 46.1567 13.8964 45.7957C13.8964 45.7506 13.7611 43.4947 13.4452 42.3216C13.3099 41.735 12.0014 40.3363 10.8734 39.073C9.3394 37.3585 7.57976 35.4184 6.54203 33.5685C4.51167 29.8236 4.42144 28.6505 4.55679 27.5226C4.60191 27.2519 4.73727 26.7104 5.0531 25.5825C5.41405 24.3191 5.91036 22.5595 6.22619 20.845C6.40667 20.0328 6.49691 19.1756 6.63227 18.3183C6.90298 16.2879 7.08345 15.16 7.71512 14.7088C8.12119 14.4381 8.57238 14.3027 9.02357 14.393C9.565 14.4832 10.1064 14.8441 10.5125 15.3856C12.0465 17.5513 11.9112 20.0779 11.8209 22.5144C11.7307 24.8605 11.6405 27.0714 13.0392 28.6957L16.1524 32.6661C16.378 32.982 16.3328 33.388 16.017 33.6136C15.7012 33.8392 15.2951 33.7941 15.0695 33.4783L12.0014 29.5078C10.2869 27.4774 10.3771 24.9057 10.5125 22.4241C10.6027 20.1231 10.693 17.9122 9.42964 16.1075C9.24916 15.8819 9.02357 15.7014 8.84309 15.6563C8.75286 15.6563 8.6175 15.6563 8.52726 15.7465C8.30167 15.9721 8.12119 17.4159 7.98583 18.4085C7.8956 19.2207 7.76024 20.1231 7.57976 21.0254C7.21881 22.7851 6.7225 24.5447 6.36155 25.8532C6.13596 26.6202 5.95548 27.3872 5.91036 27.5677C5.86524 28.2896 5.77501 29.1469 7.76024 32.8466C8.70774 34.5611 10.3771 36.4561 11.9112 38.0804C13.6257 39.9754 14.5732 41.0583 14.7988 41.9155C15.1146 43.224 15.25 45.525 15.25 45.6604C15.25 46.1116 14.9793 46.4274 14.5732 46.4274Z" fill="#252D32"/>
<path d="M24.4995 49.5857C24.1386 49.5857 23.8227 49.2699 23.8227 48.909V46.4274H13.4454V48.909C13.4454 49.2699 13.1295 49.5857 12.7686 49.5857C12.4076 49.5857 12.0918 49.2699 12.0918 48.909V45.7506C12.0918 45.3897 12.4076 45.0739 12.7686 45.0739H24.4995C24.8605 45.0739 25.1763 45.3897 25.1763 45.7506V48.909C25.1763 49.315 24.8605 49.5857 24.4995 49.5857Z" fill="#252D32"/>
<path d="M25.8531 55H11.4151C11.0541 55 10.7383 54.6842 10.7383 54.3232V48.909C10.7383 48.548 11.0541 48.2322 11.4151 48.2322H25.8531C26.2141 48.2322 26.5299 48.548 26.5299 48.909V54.3232C26.5299 54.7293 26.2141 55 25.8531 55ZM12.0918 53.6465H25.1763V49.5857H12.0918V53.6465Z" fill="#252D32"/>
<path d="M8.39213 47.014C8.21165 47.014 8.03117 46.9688 7.89582 46.8335C7.67022 46.6079 7.44463 46.3372 7.17391 46.1116C6.9032 45.8409 6.94832 45.3897 7.21903 45.1641C7.48975 44.8934 7.94094 44.9385 8.16653 45.2092C8.39213 45.4348 8.61772 45.6604 8.84332 45.9311C9.11403 46.2018 9.11403 46.6079 8.84332 46.8786C8.70796 46.9237 8.5726 47.014 8.39213 47.014ZM47.2395 46.3823C47.0591 46.3823 46.9237 46.3372 46.7884 46.2018C46.5176 45.9311 46.5176 45.525 46.7432 45.2543C46.8786 45.0738 47.0591 44.8934 47.1944 44.758C47.42 44.4873 47.8712 44.4422 48.1419 44.7129C48.4126 44.9385 48.4578 45.3897 48.187 45.6604C48.0066 45.8409 47.8712 46.0213 47.6907 46.2018C47.6005 46.292 47.42 46.3823 47.2395 46.3823ZM5.63987 43.7203C5.41427 43.7203 5.2338 43.63 5.09844 43.4496C4.91797 43.1788 4.69237 42.9081 4.5119 42.5923C4.2863 42.2765 4.37654 41.8704 4.69237 41.6448C5.0082 41.4192 5.41427 41.5094 5.63987 41.8253C5.82034 42.096 6.00082 42.3667 6.1813 42.6374C6.40689 42.9532 6.31665 43.3593 6.00082 43.5849C5.91058 43.6751 5.77523 43.7203 5.63987 43.7203ZM49.7211 43.224C49.5857 43.224 49.4504 43.1788 49.3601 43.0886C49.0443 42.863 48.9541 42.4569 49.1797 42.1411C49.3601 41.8704 49.5406 41.5997 49.7211 41.329C49.9016 41.0131 50.3528 40.9229 50.6686 41.1034C50.9844 41.2838 51.0747 41.735 50.8942 42.0509C50.7137 42.3216 50.5332 42.6374 50.3527 42.9081C50.1723 43.1337 49.9467 43.224 49.7211 43.224ZM3.42904 40.0205C3.15833 40.0205 2.93273 39.8852 2.84249 39.6596C2.70714 39.3437 2.52666 39.0279 2.3913 38.7572C2.25595 38.3962 2.3913 38.0353 2.75226 37.8548C3.11321 37.7194 3.47416 37.8548 3.65464 38.2158C3.78999 38.5316 3.92535 38.8023 4.06071 39.073C4.24118 39.3888 4.10582 39.7949 3.74487 39.9754C3.60952 40.0205 3.51928 40.0205 3.42904 40.0205ZM51.8417 39.5242C51.7514 39.5242 51.6612 39.5242 51.571 39.4791C51.21 39.2986 51.0747 38.9377 51.2551 38.5767C51.3905 38.306 51.5258 37.9902 51.6612 37.6743C51.7966 37.3134 52.2026 37.178 52.5636 37.3134C52.9245 37.4487 53.0599 37.8548 52.9245 38.2158C52.7892 38.5316 52.6538 38.8474 52.5185 39.1633C52.338 39.3437 52.1124 39.5242 51.8417 39.5242ZM1.84988 36.05C1.57916 36.05 1.30845 35.8696 1.21821 35.5537C1.12797 35.2379 1.03774 34.9221 0.947498 34.5611C0.85726 34.2002 1.08285 33.8392 1.44381 33.749C1.80476 33.6587 2.16571 33.8843 2.25595 34.2453C2.34619 34.5611 2.43642 34.877 2.52666 35.1928C2.6169 35.5537 2.43642 35.9147 2.07547 36.05C1.98523 36.05 1.895 36.05 1.84988 36.05ZM53.3306 35.4635C53.2855 35.4635 53.1952 35.4635 53.1501 35.4184C52.7892 35.3281 52.5636 34.9221 52.6989 34.5611C52.7892 34.2453 52.8794 33.9295 52.9245 33.6136C53.0148 33.2527 53.3757 33.0271 53.7367 33.1173C54.0976 33.2076 54.3232 33.5685 54.233 33.9295C54.1427 34.2453 54.0525 34.6062 53.9623 34.9221C53.9171 35.283 53.6464 35.4635 53.3306 35.4635ZM0.902379 31.854C0.586546 31.854 0.270714 31.6284 0.225595 31.2674C0.180476 30.9516 0.135357 30.5907 0.0902379 30.2748C0.045119 29.9139 0.315833 29.5529 0.676784 29.5529C1.03774 29.5078 1.39869 29.7785 1.39869 30.1395C1.44381 30.4553 1.48893 30.7711 1.53404 31.087C1.57916 31.4479 1.30845 31.8089 0.947498 31.854C0.992617 31.854 0.947498 31.854 0.902379 31.854ZM54.1879 31.2674C54.1427 31.2674 54.1427 31.2674 54.0976 31.2674C53.7367 31.2223 53.466 30.9065 53.5111 30.5004C53.5562 30.1846 53.6013 29.8688 53.6013 29.5529C53.6464 29.192 53.9623 28.9213 54.3232 28.9213C54.6842 28.9664 54.9549 29.2822 54.9549 29.6432C54.9098 30.0041 54.9098 30.3199 54.8646 30.6358C54.8195 31.0418 54.5037 31.2674 54.1879 31.2674ZM0.676784 27.5677C0.270714 27.5677 0 27.2519 0 26.8909C0 26.5299 0 26.2141 0.045119 25.8532C0.045119 25.4922 0.406071 25.1764 0.767022 25.2215C1.12797 25.2215 1.44381 25.5825 1.39869 25.9434C1.35357 26.2592 1.35357 26.5751 1.35357 26.8909C1.35357 27.297 1.03774 27.5677 0.676784 27.5677ZM54.3232 26.9811C53.9623 26.9811 53.6464 26.7104 53.6464 26.3495C53.6464 26.0336 53.6013 25.7178 53.6013 25.402C53.5562 25.041 53.8269 24.7252 54.233 24.6801C54.5939 24.635 54.9098 24.9057 54.9549 25.3117C55 25.6276 55 25.9885 55 26.3044C55.0451 26.6653 54.7293 26.9811 54.3232 26.9811C54.3683 26.9811 54.3683 26.9811 54.3232 26.9811ZM1.12797 23.3265C1.08285 23.3265 1.03774 23.3265 0.992617 23.3265C0.631665 23.2814 0.360952 22.9204 0.45119 22.5595C0.496308 22.2436 0.586546 21.8827 0.631665 21.5669C0.721903 21.2059 1.08285 20.9803 1.44381 21.0706C1.80476 21.1608 2.03035 21.5217 1.94011 21.8827C1.84988 22.1985 1.80476 22.5144 1.75964 22.8302C1.71452 23.0558 1.44381 23.3265 1.12797 23.3265ZM53.8269 22.74C53.5111 22.74 53.2404 22.5144 53.1501 22.1985C53.105 21.8827 53.0148 21.5669 52.9245 21.251C52.8343 20.8901 53.0599 20.5291 53.4208 20.4389C53.7818 20.3487 54.1427 20.5742 54.233 20.9352C54.3232 21.251 54.3683 21.612 54.4586 21.9278C54.5488 22.2888 54.2781 22.6497 53.9171 22.74C53.9171 22.74 53.872 22.74 53.8269 22.74ZM2.21083 19.1756C2.12059 19.1756 2.07547 19.1756 1.98523 19.1304C1.62428 18.9951 1.44381 18.6341 1.57916 18.2732C1.71452 17.9573 1.80476 17.5964 1.94011 17.2806C2.07547 16.9196 2.48154 16.7843 2.79737 16.9196C3.15833 17.055 3.29368 17.461 3.15833 17.7769C3.02297 18.0927 2.93273 18.3634 2.79737 18.6793C2.75226 18.9951 2.48154 19.1756 2.21083 19.1756ZM52.6087 18.589C52.338 18.589 52.0673 18.4085 51.977 18.1378C51.8417 17.822 51.7514 17.5513 51.6161 17.2354C51.4807 16.8745 51.6161 16.5135 51.977 16.3331C52.338 16.1977 52.6989 16.3331 52.8794 16.694C53.0148 17.0098 53.1501 17.3257 53.2404 17.6415C53.3757 18.0025 53.1952 18.3634 52.8343 18.4988C52.7892 18.589 52.6989 18.589 52.6087 18.589ZM3.97047 15.2502C3.88023 15.2502 3.74487 15.2051 3.65464 15.16C3.3388 14.9795 3.20345 14.5734 3.38392 14.2576C3.5644 13.9418 3.69975 13.671 3.88023 13.3552C4.06071 13.0394 4.46678 12.9491 4.82773 13.1296C5.14356 13.3101 5.2338 13.7162 5.05332 14.0771C4.87285 14.3478 4.73749 14.6185 4.55701 14.9344C4.46678 15.1149 4.19606 15.2502 3.97047 15.2502ZM50.7588 14.7539C50.5332 14.7539 50.3076 14.6185 50.1723 14.393C49.9918 14.1222 49.8564 13.8515 49.676 13.5808C49.4955 13.265 49.5857 12.8589 49.9016 12.6333C50.2174 12.4528 50.6235 12.5431 50.8491 12.8589C51.0295 13.1296 51.21 13.4455 51.3905 13.7162C51.571 14.032 51.4807 14.4381 51.1649 14.6185C50.9844 14.7088 50.8942 14.7539 50.7588 14.7539ZM6.36177 11.6407C6.22642 11.6407 6.09106 11.5956 5.9557 11.5053C5.63987 11.2797 5.59475 10.8286 5.82034 10.5578C6.04594 10.2871 6.22642 10.0164 6.45201 9.79082C6.67761 9.52011 7.12879 9.47499 7.39951 9.70058C7.67022 9.92618 7.71534 10.3774 7.48975 10.6481C7.26415 10.8737 7.08368 11.1444 6.9032 11.4151C6.72272 11.5505 6.54225 11.6407 6.36177 11.6407ZM48.3224 11.2346C48.1419 11.2346 47.9163 11.1444 47.781 10.9639C47.5554 10.6932 47.3749 10.4676 47.1493 10.242C46.9237 9.9713 46.9237 9.52011 47.1944 9.29451C47.4651 9.06892 47.9163 9.06892 48.1419 9.33963C48.3675 9.61034 48.5931 9.83594 48.8187 10.1067C49.0443 10.3774 48.9992 10.8286 48.7285 11.0542C48.6382 11.1444 48.5029 11.2346 48.3224 11.2346ZM9.24938 8.48237C9.06891 8.48237 8.88843 8.39213 8.75308 8.25677C8.48236 7.98606 8.52748 7.53487 8.7982 7.30928C9.02379 7.08368 9.2945 6.85809 9.56522 6.63249C9.83593 6.4069 10.2871 6.4069 10.5127 6.72273C10.7383 6.99344 10.7383 7.44463 10.4225 7.67023C10.1969 7.89582 9.92617 8.0763 9.70057 8.30189C9.56522 8.43725 9.38474 8.48237 9.24938 8.48237ZM45.3897 8.12142C45.2092 8.12142 45.0738 8.0763 44.9385 7.94094C44.7129 7.71535 44.4422 7.53487 44.2166 7.30928C43.9459 7.08368 43.9007 6.63249 44.1263 6.36178C44.3519 6.09107 44.8031 6.04595 45.0738 6.27154C45.3445 6.49714 45.5701 6.72273 45.8409 6.94833C46.1116 7.21904 46.1567 7.62511 45.886 7.89582C45.7506 8.03118 45.5701 8.12142 45.3897 8.12142ZM12.5882 5.82035C12.3626 5.82035 12.137 5.73011 12.0468 5.50452C11.8212 5.18869 11.9114 4.78262 12.2272 4.55702C12.4979 4.42166 12.8138 4.24119 13.0845 4.06071C13.4003 3.88024 13.8064 3.97047 14.032 4.28631C14.2125 4.60214 14.1222 5.00821 13.8064 5.23381C13.5357 5.41428 13.265 5.59476 12.9943 5.77523C12.8589 5.82035 12.7235 5.82035 12.5882 5.82035ZM41.9606 5.50452C41.8253 5.50452 41.6899 5.4594 41.5997 5.41428C41.329 5.23381 41.0582 5.05333 40.7875 4.91797C40.4717 4.7375 40.3363 4.33143 40.5619 3.97047C40.7424 3.65464 41.1485 3.51929 41.5094 3.74488C41.7801 3.92536 42.096 4.10583 42.3667 4.28631C42.6825 4.46678 42.7728 4.91797 42.5923 5.23381C42.4118 5.41428 42.1862 5.50452 41.9606 5.50452ZM16.3331 3.74488C16.0623 3.74488 15.8368 3.60952 15.7014 3.33881C15.566 2.97786 15.7014 2.61691 16.0172 2.43643C16.3331 2.30107 16.6489 2.16572 16.9647 2.03036C17.3257 1.895 17.6866 2.03036 17.8671 2.39131C18.0025 2.75226 17.8671 3.11321 17.5062 3.29369C17.1903 3.42905 16.9196 3.5644 16.6038 3.69976C16.5135 3.74488 16.4233 3.74488 16.3331 3.74488ZM38.1706 3.51929C38.0804 3.51929 37.9902 3.51929 37.8999 3.47417C37.5841 3.33881 37.3134 3.20345 36.9975 3.11321C36.6366 2.97786 36.4561 2.57179 36.5915 2.25595C36.7268 1.895 37.1329 1.71453 37.4487 1.84988C37.7646 1.98524 38.0804 2.1206 38.3962 2.25595C38.7572 2.39131 38.8925 2.79738 38.7572 3.15833C38.6669 3.33881 38.4413 3.51929 38.1706 3.51929ZM20.3938 2.30107C20.0779 2.30107 19.8072 2.1206 19.7621 1.80477C19.6719 1.44381 19.8523 1.08286 20.2133 0.992624C20.5291 0.902386 20.8901 0.812148 21.2059 0.721911C21.5669 0.631673 21.9278 0.857267 22.018 1.21822C22.1083 1.57917 21.8827 1.94012 21.5217 2.03036C21.2059 2.1206 20.8901 2.16572 20.5742 2.25595C20.484 2.25595 20.4389 2.30107 20.3938 2.30107ZM34.1099 2.1206C34.0648 2.1206 34.0197 2.1206 33.9295 2.1206C33.6136 2.03036 33.2978 1.98524 32.982 1.895C32.621 1.80477 32.3954 1.44381 32.4405 1.08286C32.5308 0.721911 32.8917 0.496316 33.2527 0.541435C33.5685 0.631673 33.9295 0.676792 34.2453 0.76703C34.6062 0.857267 34.8318 1.21822 34.7416 1.57917C34.6514 1.94012 34.3806 2.1206 34.1099 2.1206ZM24.5898 1.48893C24.2289 1.48893 23.9582 1.21822 23.913 0.902386C23.8679 0.541435 24.1386 0.180483 24.4996 0.135364C24.8154 0.0902453 25.1764 0.0902453 25.4922 0.0451263C25.8532 7.37933e-06 26.169 0.31584 26.2141 0.676792C26.2592 1.03774 25.9434 1.35358 25.5824 1.39869C25.2666 1.44381 24.9508 1.44381 24.6349 1.48893H24.5898ZM29.8687 1.39869H29.8236C29.4627 1.39869 29.1468 1.35358 28.831 1.35358C28.4701 1.35358 28.1542 1.03774 28.1993 0.631673C28.1993 0.270721 28.5152 -0.0451116 28.9212 7.37794e-06C29.2822 7.37794e-06 29.598 0.0451263 29.9139 0.0902453C30.2748 0.135364 30.5455 0.451197 30.5455 0.812148C30.5004 1.1731 30.2297 1.39869 29.8687 1.39869Z" fill="#252D32"/>
</g>
<defs>
<clipPath id="clip0_336_3568">
<rect width="55" height="55" fill="white"/>
</clipPath>
</defs>
</svg>
