<svg width="100" height="20" viewBox="0 0 100 20" fill="none" xmlns="http://www.w3.org/2000/svg">
<path d="M61.176 0.411119C57.7618 -0.879898 55.2748 1.04604 53.378 3.7339C53.2305 3.94554 53.1251 3.7339 53.1251 3.7339C51.9238 1.30002 49.3947 0.834403 49.3947 0.834403C49.3947 0.834403 48.1723 0.601596 47.4979 0.91906C47.4979 0.91906 47.1818 1.06721 47.4979 1.25769C47.4979 1.25769 48.341 1.7233 48.4253 2.73918C48.6149 5.23656 50.1745 6.23128 50.7647 6.18895C50.8068 6.18895 50.7436 6.06196 50.7436 6.06196C49.9216 4.19951 51.2283 3.33178 51.9027 3.94554C52.6825 4.66512 52.4296 5.70217 52.3242 6.0408C52.3242 6.0408 52.2821 6.12545 52.3242 6.12545C53.1251 6.0408 53.926 5.63868 55.1695 4.6228C55.7807 4.13602 57.003 3.01432 57.7407 2.35823C58.0357 2.04076 58.5205 1.80796 58.1201 2.59103C57.5932 3.62808 56.3286 5.59635 54.3897 7.14134C54.0946 7.37414 54.5161 7.37414 54.5161 7.37414C57.7407 7.14134 59.2581 4.41115 59.2581 4.41115C59.5532 3.94554 60.1012 2.73918 60.1012 2.73918C60.6702 1.46933 61.3025 1.23652 61.3025 1.23652C62.1455 0.77091 61.176 0.411119 61.176 0.411119Z" fill="#C1D82F"/>
<path d="M57.6427 16.6017L56.4238 18.5277C58.2521 19.4589 60.9944 19.5012 60.9944 19.5012C64.8541 19.5012 66.6569 17.8293 66.6569 15.861C66.6569 14.2102 65.5143 13.1308 63.0258 12.3477C61.1722 11.7763 60.4104 11.4377 60.4104 10.6969C60.4104 10.1043 61.0706 9.55406 62.4672 9.55406C63.1528 9.55406 63.7622 9.63872 64.2447 9.74454C64.2447 9.74454 65.3873 10.062 65.9206 9.27892L66.6062 8.17839C65.0318 7.39531 62.4926 7.37415 62.4926 7.37415C59.1916 7.37415 57.1602 8.89797 57.1602 10.9086C57.1602 12.6229 58.7091 13.7022 61.0452 14.4007C62.7465 14.8874 63.4067 15.3107 63.4067 16.0303C63.4067 16.7922 62.645 17.3002 61.1722 17.3002C59.8264 17.3213 58.4806 16.9615 57.6427 16.6017Z" fill="white"/>
<path d="M46.7501 16.6017L45.5312 18.5277C47.3595 19.4589 50.1019 19.5012 50.1019 19.5012C53.9615 19.5012 55.7644 17.8293 55.7644 15.861C55.7644 14.2102 54.6217 13.1308 52.1333 12.3477C50.2796 11.7763 49.5178 11.4377 49.5178 10.6969C49.5178 10.1043 50.178 9.55406 51.5746 9.55406C52.2602 9.55406 52.8696 9.63872 53.3521 9.74454C53.3521 9.74454 54.4947 10.062 55.028 9.27892L55.739 8.17839C54.1393 7.41647 51.6254 7.39531 51.6254 7.39531C48.3244 7.39531 46.293 8.91913 46.293 10.9297C46.293 12.644 47.842 13.7234 50.178 14.4218C51.8793 14.9086 52.5395 15.3319 52.5395 16.0515C52.5395 16.8134 51.7778 17.3213 50.305 17.3213C48.9338 17.3213 47.588 16.9615 46.7501 16.6017Z" fill="white"/>
<path d="M71.5588 18.2102V11.5223C74.1742 13.4694 75.9771 15.5012 77.399 19.3319H80.4715V7.60696H78.4655C77.3737 7.60696 77.4244 8.43237 77.4244 8.43237V14.1467C75.6724 11.6493 73.3871 10.0408 71.6096 9.08846C69.8321 8.13607 68.4609 7.79744 68.4102 7.79744V19.3531H70.3146C70.2892 19.3319 71.5588 19.3319 71.5588 18.2102Z" fill="white"/>
<path d="M27.735 12.0935C27.395 12.5835 27.045 13.1185 26.685 13.6985C26.335 14.2785 26 14.8085 25.68 15.2885C25.54 15.4785 25.39 15.6085 25.23 15.6785C25.07 15.7385 24.895 15.7685 24.705 15.7685C24.545 15.7685 24.375 15.7335 24.195 15.6635C24.015 15.5935 23.87 15.4635 23.76 15.2735L21.735 12.0185V18.2435C21.735 18.6535 21.6 18.9485 21.33 19.1285C21.07 19.3085 20.775 19.3985 20.445 19.3985C20.275 19.3985 20.11 19.3735 19.95 19.3235C19.8 19.2835 19.665 19.2135 19.545 19.1135C19.425 19.0235 19.325 18.9035 19.245 18.7535C19.175 18.6135 19.14 18.4435 19.14 18.2435V9.15346C19.14 8.78346 19.27 8.50346 19.53 8.31346C19.8 8.12346 20.105 8.02846 20.445 8.02846C20.655 8.02846 20.845 8.04346 21.015 8.07346C21.185 8.09346 21.34 8.14346 21.48 8.22346C21.62 8.29346 21.755 8.39346 21.885 8.52346C22.015 8.65346 22.145 8.81846 22.275 9.01846L24.705 12.8285L27.225 9.01846C27.475 8.64846 27.725 8.39346 27.975 8.25346C28.235 8.10346 28.585 8.02846 29.025 8.02846C29.385 8.02846 29.69 8.12346 29.94 8.31346C30.19 8.50346 30.315 8.78346 30.315 9.15346V18.2435C30.315 18.4435 30.275 18.6135 30.195 18.7535C30.125 18.9035 30.03 19.0235 29.91 19.1135C29.79 19.2135 29.65 19.2835 29.49 19.3235C29.34 19.3735 29.185 19.3985 29.025 19.3985C28.865 19.3985 28.705 19.3735 28.545 19.3235C28.395 19.2835 28.26 19.2135 28.14 19.1135C28.02 19.0235 27.92 18.9035 27.84 18.7535C27.77 18.6135 27.735 18.4435 27.735 18.2435V12.0935ZM38.1069 14.9135V18.2435C38.1069 18.6235 37.9769 18.9085 37.7169 19.0985C37.4669 19.2985 37.1619 19.3985 36.8019 19.3985C36.4419 19.3985 36.1369 19.2985 35.8869 19.0985C35.6369 18.9085 35.5119 18.6235 35.5119 18.2435V14.9135L31.8069 9.58846C31.6969 9.41846 31.6419 9.23846 31.6419 9.04846C31.6419 8.87846 31.6869 8.71346 31.7769 8.55346C31.8669 8.39346 31.9969 8.25846 32.1669 8.14846C32.4269 7.98846 32.6869 7.90846 32.9469 7.90846C33.1169 7.90846 33.2719 7.94346 33.4119 8.01346C33.5519 8.07346 33.6669 8.16846 33.7569 8.29846L36.8019 12.8735L39.7869 8.37346C39.9769 8.08346 40.2469 7.93846 40.5969 7.93846C40.8469 7.93846 41.1019 8.00846 41.3619 8.14846C41.5419 8.23846 41.6919 8.36846 41.8119 8.53846C41.9319 8.70846 41.9919 8.88846 41.9919 9.07846C41.9919 9.26846 41.9369 9.43846 41.8269 9.58846L38.1069 14.9135Z" fill="white"/>
</svg>
