<svg width="21" height="27" viewBox="0 0 21 27" fill="none" xmlns="http://www.w3.org/2000/svg">
<path d="M2.45753 26.15C1.80039 26.15 1.25182 25.9276 0.811819 25.4827C0.370867 25.0368 0.150391 24.4817 0.150391 23.8172V8.26058C0.150391 7.59614 0.370867 7.04147 0.811819 6.59658C1.25182 6.15073 1.80039 5.9278 2.45753 5.9278H5.15039V5.20558C5.15039 3.80158 5.63658 2.60799 6.60896 1.6248C7.58134 0.641617 8.76182 0.150024 10.1504 0.150024C11.539 0.150024 12.7194 0.641617 13.6918 1.6248C14.6642 2.60799 15.1504 3.80158 15.1504 5.20558V5.9278H17.8432C18.5004 5.9278 19.049 6.15073 19.489 6.59658C19.9299 7.04147 20.1504 7.59614 20.1504 8.26058V23.8172C20.1504 24.4817 19.9304 25.0364 19.4904 25.4812C19.0494 25.9271 18.5004 26.15 17.8432 26.15H2.45753ZM2.45753 24.7056H17.8432C18.0623 24.7056 18.2637 24.6131 18.4475 24.4282C18.6304 24.2424 18.7218 24.0387 18.7218 23.8172V8.26058C18.7218 8.0391 18.6304 7.83543 18.4475 7.64958C18.2637 7.46469 18.0623 7.37225 17.8432 7.37225H15.1504V10.9834C15.1504 11.1885 15.0823 11.3604 14.9461 11.499C14.809 11.6367 14.639 11.7056 14.4361 11.7056C14.2332 11.7056 14.0632 11.6367 13.9261 11.499C13.7899 11.3604 13.7218 11.1885 13.7218 10.9834V7.37225H6.57896V10.9834C6.57896 11.1885 6.51087 11.3604 6.37468 11.499C6.23753 11.6367 6.06753 11.7056 5.86468 11.7056C5.66182 11.7056 5.49182 11.6367 5.35468 11.499C5.21849 11.3604 5.15039 11.1885 5.15039 10.9834V7.37225H2.45753C2.23849 7.37225 2.03706 7.46469 1.85325 7.64958C1.67039 7.83543 1.57896 8.0391 1.57896 8.26058V23.8172C1.57896 24.0387 1.67039 24.2424 1.85325 24.4282C2.03706 24.6131 2.23849 24.7056 2.45753 24.7056ZM6.57896 5.9278H13.7218V5.20558C13.7218 4.18869 13.378 3.33262 12.6904 2.63736C12.0028 1.9421 11.1561 1.59447 10.1504 1.59447C9.14468 1.59447 8.29801 1.9421 7.61039 2.63736C6.92277 3.33262 6.57896 4.18869 6.57896 5.20558V5.9278Z" fill="black"/>
<path d="M1.57896 24.7056V7.37225M2.45753 26.15C1.80039 26.15 1.25182 25.9276 0.811819 25.4827C0.370867 25.0368 0.150391 24.4817 0.150391 23.8172V8.26058C0.150391 7.59614 0.370867 7.04147 0.811819 6.59658C1.25182 6.15073 1.80039 5.9278 2.45753 5.9278H5.15039V5.20558C5.15039 3.80158 5.63658 2.60799 6.60896 1.6248C7.58134 0.641617 8.76182 0.150024 10.1504 0.150024C11.539 0.150024 12.7194 0.641617 13.6918 1.6248C14.6642 2.60799 15.1504 3.80158 15.1504 5.20558V5.9278H17.8432C18.5004 5.9278 19.049 6.15073 19.489 6.59658C19.9299 7.04147 20.1504 7.59614 20.1504 8.26058V23.8172C20.1504 24.4817 19.9304 25.0364 19.4904 25.4812C19.0494 25.9271 18.5004 26.15 17.8432 26.15H2.45753ZM2.45753 24.7056H17.8432C18.0623 24.7056 18.2637 24.6131 18.4475 24.4282C18.6304 24.2424 18.7218 24.0387 18.7218 23.8172V8.26058C18.7218 8.0391 18.6304 7.83543 18.4475 7.64958C18.2637 7.46469 18.0623 7.37225 17.8432 7.37225H15.1504V10.9834C15.1504 11.1885 15.0823 11.3604 14.9461 11.499C14.809 11.6367 14.639 11.7056 14.4361 11.7056C14.2332 11.7056 14.0632 11.6367 13.9261 11.499C13.7899 11.3604 13.7218 11.1885 13.7218 10.9834V7.37225H6.57896V10.9834C6.57896 11.1885 6.51087 11.3604 6.37468 11.499C6.23753 11.6367 6.06753 11.7056 5.86468 11.7056C5.66182 11.7056 5.49182 11.6367 5.35468 11.499C5.21849 11.3604 5.15039 11.1885 5.15039 10.9834V7.37225H2.45753C2.23849 7.37225 2.03706 7.46469 1.85325 7.64958C1.67039 7.83543 1.57896 8.0391 1.57896 8.26058V23.8172C1.57896 24.0387 1.67039 24.2424 1.85325 24.4282C2.03706 24.6131 2.23849 24.7056 2.45753 24.7056ZM6.57896 5.9278H13.7218V5.20558C13.7218 4.18869 13.378 3.33262 12.6904 2.63736C12.0028 1.9421 11.1561 1.59447 10.1504 1.59447C9.14468 1.59447 8.29801 1.9421 7.61039 2.63736C6.92277 3.33262 6.57896 4.18869 6.57896 5.20558V5.9278Z" stroke="black" stroke-width="0.3"/>
</svg>
