<svg width="28" height="28" viewBox="0 0 28 28" fill="none" xmlns="http://www.w3.org/2000/svg">
<path d="M13.4167 25.6667C8.74183 25.6667 6.405 25.6667 4.9525 23.9575C3.5 22.2507 3.5 19.4997 3.5 14C3.5 8.50034 3.5 5.75051 4.9525 4.04134C6.405 2.33218 8.74183 2.33334 13.4167 2.33334C18.0915 2.33334 20.4283 2.33334 21.8808 4.04134C23.0498 5.41801 23.2785 7.46784 23.3228 11.0833M9.33333 9.33334H17.5M9.33333 15.1667H12.8333" stroke="black" stroke-width="2" stroke-linecap="round" stroke-linejoin="round"/>
<path d="M22.8778 21.1225C23.5504 20.6336 24.0509 19.9443 24.3077 19.1535C24.5645 18.3626 24.5643 17.5107 24.3072 16.72C24.0501 15.9292 23.5493 15.2402 22.8765 14.7515C22.2037 14.2629 21.3934 13.9998 20.5619 14H20.2691C19.4377 14.0001 18.6276 14.2634 17.955 14.7521C17.2824 15.2408 16.7818 15.9298 16.5248 16.7205C16.2679 17.5112 16.2678 18.363 16.5246 19.1537C16.7814 19.9445 17.2819 20.6337 17.9544 21.1225M17.9544 21.1225C18.6266 21.6126 19.4372 21.8761 20.2691 21.875H20.5608C21.3926 21.8761 22.2033 21.6126 22.8754 21.1225L23.5556 23.2633C23.8146 24.08 23.9453 24.4883 23.9091 24.7427C23.8356 25.2723 23.4039 25.6643 22.8941 25.6667C22.6491 25.6667 22.2828 25.4753 21.5489 25.0903C21.2339 24.9247 21.0776 24.843 20.9166 24.794C20.5893 24.6961 20.2405 24.6961 19.9133 24.794C19.7523 24.843 19.5948 24.9247 19.2809 25.0903C18.5471 25.4753 18.1808 25.6678 17.9358 25.6667C17.4259 25.6643 16.9943 25.2723 16.9208 24.7427C16.8858 24.4883 17.0141 24.08 17.2743 23.2633L17.9544 21.1225Z" stroke="black" stroke-width="2" stroke-linecap="round" stroke-linejoin="round"/>
</svg>
