<svg width="28" height="28" viewBox="0 0 28 28" fill="none" xmlns="http://www.w3.org/2000/svg">
<g clip-path="url(#clip0_313_3272)">
<path d="M-0.000199405 14.0432C-0.104096 7.79988 4.41538 1.47005 11.6881 0.207538C19.2552 -1.10685 26.6318 4.21989 27.8093 11.8641C28.2422 14.5967 27.8786 17.26 26.7011 19.7678C26.2336 20.7536 26.147 21.6702 26.5626 22.6733C26.8223 23.3305 27.0301 24.0395 27.2379 24.714C27.4803 25.4923 27.2898 26.2014 26.7011 26.7721C26.1297 27.3255 25.4024 27.6022 24.6405 27.2563C22.476 26.2705 20.502 26.4781 18.2162 27.2736C10.2162 30.0581 1.59287 24.6967 0.224909 16.3607C0.121013 15.5825 0.0863807 14.8042 -0.000199405 14.0432ZM25.437 25.4577C25.1946 24.6967 25.0734 24.1779 24.8483 23.6763C24.1037 21.9815 24.2249 20.3731 25.0388 18.6955C26.095 16.4818 26.2855 14.1124 25.818 11.6912C24.5712 5.39593 18.476 1.15874 12.2595 2.09265C6.1643 3.02656 0.917549 8.6992 2.14699 15.9456C3.53227 24.0568 11.7574 28.2421 19.2206 24.8351C20.45 24.2817 21.6448 24.2125 22.9089 24.6448C23.6708 24.887 24.4327 25.1291 25.437 25.4577Z" fill="black"/>
<path d="M11.3069 13.9914C11.2203 14.5621 11.1684 15.1155 11.0472 15.6343C10.8913 16.2743 10.4238 16.5683 9.7658 16.551C9.14242 16.5337 8.64026 16.2397 8.58831 15.6343C8.50173 14.5102 8.50173 13.3688 8.60563 12.2446C8.65757 11.6566 9.17705 11.3626 9.81775 11.3799C10.4584 11.3799 10.8913 11.6566 11.0299 12.2619C11.1684 12.8153 11.2203 13.4206 11.3069 13.9914Z" fill="black"/>
<path d="M19.6371 14.0086C19.5678 14.5275 19.5505 15.0809 19.4293 15.5997C19.2734 16.2742 18.7886 16.5855 18.0959 16.551C17.4206 16.5164 16.9704 16.1359 16.9185 15.5133C16.8319 14.4929 16.8319 13.4725 16.9185 12.4521C16.9704 11.7949 17.4033 11.3799 18.1479 11.3799C18.8752 11.3626 19.3081 11.7085 19.4466 12.3829C19.5505 12.8845 19.5678 13.4379 19.6371 14.0086Z" fill="black"/>
</g>
<defs>
<clipPath id="clip0_313_3272">
<rect width="28" height="28" fill="white"/>
</clipPath>
</defs>
</svg>
