<svg width="7" height="12" viewBox="0 0 7 12" fill="none" xmlns="http://www.w3.org/2000/svg">
<path d="M5.17464 6.00423L0.251196 10.6553C0.0837319 10.8135 0.00267866 10.9981 0.00803752 11.209C0.0133964 11.4199 0.100031 11.6045 0.267942 11.7627C0.435406 11.9209 0.630781 12 0.854067 12C1.07735 12 1.27273 11.9209 1.44019 11.7627L6.59809 6.90597C6.73206 6.77941 6.83254 6.63703 6.89952 6.47883C6.96651 6.32063 7 6.16243 7 6.00423C7 5.84603 6.96651 5.68783 6.89952 5.52963C6.83254 5.37143 6.73206 5.22905 6.59809 5.10249L1.44019 0.229941C1.27273 0.0717417 1.07445 -0.00482693 0.845358 0.00023546C0.616267 0.00529785 0.418214 0.0871398 0.251196 0.245761C0.0837319 0.403961 -1.79199e-07 0.588527 -1.79199e-07 0.79946C-1.79199e-07 1.01039 0.0837319 1.19496 0.251196 1.35316L5.17464 6.00423Z" fill="#333333"/>
</svg>
