<svg width="17" height="17" viewBox="0 0 17 17" fill="none" xmlns="http://www.w3.org/2000/svg">
<path d="M4.54167 15.1667V8.36524C4.54167 7.60874 4.54167 7.23049 4.71521 6.91316C4.88804 6.59582 5.20608 6.39111 5.84287 5.9817L7.31762 5.03395C7.6895 4.79524 7.87508 4.67553 8.08333 4.67553C8.29158 4.67553 8.47717 4.79524 8.84975 5.03395L10.3238 5.9817C10.9606 6.39111 11.2786 6.59582 11.4515 6.91316C11.625 7.23049 11.625 7.60874 11.625 8.36524V15.1667M8.08333 8.79166H8.08971M14.4583 15.1667V11.0314C14.4583 9.40862 13.5658 9.27686 11.625 8.79166M1.70833 15.1667V11.0314C1.70833 9.40862 2.60083 9.27686 4.54167 8.79166M1 15.1667H15.1667M8.08333 15.1667V12.3333M8.08333 4.54166V3.11224M8.08333 3.11224V1.68707C8.08333 1.35132 8.08333 1.18345 8.18675 1.07932C8.51258 0.751365 9.85417 1.52628 10.3642 1.84078C10.7948 2.1057 10.9167 2.63553 10.9167 3.11224H8.08333Z" stroke="#444444" stroke-width="1.2" stroke-linecap="round" stroke-linejoin="round"/>
</svg>
