<svg width="31" height="17" viewBox="0 0 31 17" fill="none" xmlns="http://www.w3.org/2000/svg">
<path d="M29.5779 0.931063C22.2699 -1.99271 16.9468 2.36898 12.8868 8.45618C12.571 8.93549 12.3454 8.45618 12.3454 8.45618C9.77411 2.94415 4.36075 1.88968 4.36075 1.88968C4.36075 1.88968 1.7443 1.36244 0.300742 2.0814C0.300742 2.0814 -0.375927 2.41691 0.300742 2.84829C0.300742 2.84829 2.10519 3.90277 2.28564 6.20344C2.69164 11.8593 6.02987 14.112 7.29298 14.0161C7.38321 14.0161 7.24787 13.7286 7.24787 13.7286C5.48854 9.51066 8.28543 7.5455 9.72899 8.93549C11.3981 10.5651 10.8568 12.9137 10.6312 13.6806C10.6312 13.6806 10.541 13.8724 10.6312 13.8724C12.3454 13.6806 14.0597 12.7699 16.7212 10.4693C18.0295 9.36687 20.6459 6.82654 22.2248 5.34069C22.8564 4.62173 23.8939 4.09449 23.0368 5.86792C21.909 8.21653 19.2024 12.6741 15.0521 16.173C14.4206 16.7003 15.3228 16.7003 15.3228 16.7003C22.2248 16.173 25.4728 9.98996 25.4728 9.98996C26.1044 8.93549 27.2773 6.20344 27.2773 6.20344C28.4953 3.3276 29.8486 2.80036 29.8486 2.80036C31.6531 1.74588 29.5779 0.931063 29.5779 0.931063Z" fill="#C1D82F"/>
</svg>
