<svg width="10" height="10" viewBox="0 0 10 10" fill="none" xmlns="http://www.w3.org/2000/svg">
<path fill-rule="evenodd" clip-rule="evenodd" d="M1.29387 0.201292C1.15222 0.0688118 0.964877 -0.00331137 0.7713 0.000116847C0.577723 0.00354506 0.393029 0.0822571 0.256128 0.21967C0.119228 0.357083 0.0408089 0.542468 0.0373935 0.736769C0.0339781 0.93107 0.105832 1.11912 0.237819 1.26129L3.94395 4.98129L0.237819 8.70129C0.164406 8.76995 0.105525 8.85275 0.0646854 8.94475C0.0238463 9.03675 0.00188645 9.13607 0.000116286 9.23677C-0.00165387 9.33747 0.0168017 9.4375 0.0543821 9.53089C0.0919625 9.62428 0.147898 9.70911 0.218851 9.78033C0.289804 9.85155 0.374322 9.90769 0.467362 9.94541C0.560402 9.98314 0.660058 10.0017 0.760386 9.99988C0.860713 9.99811 0.959656 9.97606 1.05131 9.93507C1.14297 9.89408 1.22546 9.83498 1.29387 9.76129L5 6.04129L8.70613 9.76129C8.77454 9.83498 8.85703 9.89408 8.94869 9.93507C9.04034 9.97606 9.13929 9.99811 9.23961 9.99988C9.33994 10.0017 9.4396 9.98314 9.53264 9.94541C9.62568 9.90769 9.71019 9.85155 9.78115 9.78033C9.8521 9.70911 9.90804 9.62428 9.94562 9.53089C9.9832 9.4375 10.0017 9.33747 9.99988 9.23677C9.99811 9.13607 9.97615 9.03675 9.93531 8.94475C9.89447 8.85275 9.83559 8.76995 9.76218 8.70129L6.05605 4.98129L9.76218 1.26129C9.89417 1.11912 9.96602 0.93107 9.96261 0.736769C9.95919 0.542468 9.88077 0.357083 9.74387 0.21967C9.60697 0.0822571 9.42228 0.00354506 9.2287 0.000116847C9.03512 -0.00331137 8.84778 0.0688118 8.70613 0.201292L5 3.92129L1.29387 0.201292Z" fill="#555555"/>
</svg>
