<svg width="490" height="89" viewBox="0 0 490 89" fill="none" xmlns="http://www.w3.org/2000/svg">
<g clip-path="url(#clip0_1_2656)">
<path d="M157.6 41C157.6 40.7 157.8 40.3 157.9 40.2H154.1C154.2 40.3 154.4 40.8 154.4 41V47.7C154.4 48.6 155.1 49.3 156 49.3H169.6V46.6H157.5V41H157.6Z" fill="#75796D"/>
<path d="M162.9 31.4C162.9 30 162.5 28.8 161.9 27.9H163.6V25.4H159.2V24.4C159.2 24.1 159.4 23.7 159.5 23.6H155.7C155.8 23.7 156 24.2 156 24.4V25.4H151.6V27.9H153.3C152.6 28.8 152.3 30 152.3 31.4C152.3 34.8 154.4 37.5 157.6 37.5C160.9 37.5 162.9 34.8 162.9 31.4ZM155.2 31.4C155.2 29.4 156.3 27.9 157.6 27.9C158.9 27.9 160 29.5 160 31.4C160 33.3 158.9 34.9 157.6 34.9C156.3 34.9 155.2 33.3 155.2 31.4Z" fill="#75796D"/>
<path d="M305.5 37.8C305.6 37.9 305.7 38.1 305.7 38.4V40.2H297V38.6C297 38.3 297.2 37.9 297.3 37.8H293.5C293.6 37.9 293.8 38.4 293.8 38.6V47.6C293.8 48.5 294.5 49.2 295.4 49.2H308.8V38.6C308.8 38.3 309 37.9 309.1 37.8H305.5ZM305.7 46.6H297V42.8H305.7V46.6Z" fill="#75796D"/>
<path d="M301.9 30.7C301.9 29.5 301.6 28.6 301 27.8H302.6V25.3H298.2V24.3C298.2 24 298.4 23.6 298.5 23.5H294.7C294.8 23.6 295 24.1 295 24.3V25.3H290.6V27.8H292.2C291.6 28.6 291.3 29.5 291.3 30.7C291.3 33.7 293.4 36 296.6 36C299.8 36 301.9 33.6 301.9 30.7ZM294.2 30.7C294.2 29.1 295.3 27.8 296.6 27.8C297.9 27.8 299 29.1 299 30.7C299 32.3 297.9 33.6 296.6 33.6C295.3 33.6 294.2 32.3 294.2 30.7Z" fill="#75796D"/>
<path d="M241.6 24.7C241.6 24.4 241.8 24 241.9 23.9H238.1C238.2 24 238.4 24.5 238.4 24.7V39.8H231V36.2C233.6 35.6 235.2 33.4 235.2 30.8C235.2 29.6 234.8 28.5 234.2 27.7H235.9V25.2H231V24.2C231 23.9 231.2 23.5 231.3 23.4H227.5C227.6 23.5 227.8 24 227.8 24.2V25.2H223V27.7H224.7C224 28.5 223.7 29.6 223.7 30.8C223.7 33.4 225.3 35.6 227.9 36.2V39.8H223.1V42.5H238.4V49.3H241.5V24.7H241.6ZM226.9 30.9C226.9 29.2 228.1 27.8 229.6 27.8C231.1 27.8 232.3 29.2 232.3 30.9C232.3 32.6 231.1 34 229.6 34C228.1 34 226.9 32.6 226.9 30.9Z" fill="#75796D"/>
<path d="M354.3 24.8C354.3 24.5 354.5 24.1 354.6 24H350.8C350.9 24.1 351.1 24.6 351.1 24.8V40H343.7V36.4C346.3 35.8 347.9 33.6 347.9 31C347.9 29.8 347.5 28.7 346.9 27.9H348.6V25.4H343.7V24.4C343.7 24.1 343.9 23.7 344 23.6H340.2C340.3 23.7 340.5 24.2 340.5 24.4V25.4H335.7V27.9H337.4C336.7 28.7 336.4 29.8 336.4 31C336.4 33.6 338 35.8 340.6 36.4V40H335.8V42.7H351.1V49.3H354.2V24.8H354.3ZM339.6 31C339.6 29.3 340.8 27.9 342.3 27.9C343.8 27.9 345 29.3 345 31C345 32.7 343.8 34.1 342.3 34.1C340.7 34.1 339.6 32.7 339.6 31Z" fill="#75796D"/>
<path d="M193.1 39.9001C193.1 39.6001 193.3 39.2 193.4 39.1H185.8V35.4001H194.7V32.7001H193.1V24.7001C193.1 24.4001 193.3 24 193.4 23.8H176.6V26.5H190V32.7001H175.5V35.4001H182.7V39.1H176.6V41.8H190V49.3H193.1V39.9001Z" fill="#75796D"/>
<path d="M286.4 24.7C286.4 24.4 286.6 24 286.7 23.9H282.9C283 24 283.2 24.5 283.2 24.7V49.2H286.3V24.7H286.4Z" fill="#75796D"/>
<path d="M274.1 35.9001C276 40.7001 280.4 42.3 280.4 42.3V39.2001C275.7 36.4001 275.7 29.8 275.7 29.8V27.4H279.7V24.8H268.4V27.4H272.4V29.8C272.4 29.8 272.4 36.3001 267.7 39.2001V42.3C267.8 42.3 272.3 40.7001 274.1 35.9001Z" fill="#75796D"/>
<path d="M331.5 24.8C331.5 24.5 331.7 24.1 331.8 24H328C328.1 24.1 328.3 24.6 328.3 24.8V39.9H313V42.6H328.3V49.3H331.4V24.8H331.5Z" fill="#75796D"/>
<path d="M319.3 36.4C322.9 36.4 325.2 33.6 325.2 30.2C325.2 26.8 322.9 24 319.3 24C315.7 24 313.4 26.8 313.4 30.2C313.4 33.6 315.7 36.4 319.3 36.4ZM319.3 26.6C320.8 26.6 322.1 28.2 322.1 30.2C322.1 32.2 320.8 33.8 319.3 33.8C317.8 33.8 316.5 32.2 316.5 30.2C316.5 28.2 317.8 26.6 319.3 26.6Z" fill="#75796D"/>
<path d="M204.2 36C206.2 41.2 211.3 42.3 211.3 42.3V39.4C205.7 37.5 205.8 27.2 205.8 27.2V25.2C205.8 24.9 206 24.5 206.1 24.4H202.1C202.2 24.5 202.4 25 202.4 25.2V27.2C202.4 27.2 202.6 37.6 196.9 39.4V42.3C197.1 42.3 202.2 41.1 204.2 36Z" fill="#75796D"/>
<path d="M215.9 32.6H219V29.9H215.9V24.7C215.9 24.4 216.1 24 216.2 23.9H212.4C212.5 24 212.7 24.5 212.7 24.7V49.2H215.8V32.6H215.9Z" fill="#75796D"/>
<path d="M263.1 40.3C263.1 40 263.3 39.6 263.4 39.5H246.6V42.2H260V49.4H263.1V40.3Z" fill="#75796D"/>
<path d="M264.7 35H256.6V32.9H263V24.8C263 24.5 263.2 24.1 263.3 24H259.7C259.8 24.1 259.9 24.3 259.9 24.6V25.8H250.1V24.8C250.1 24.5 250.3 24.1 250.4 24H246.6C246.7 24.1 246.9 24.6 246.9 24.8V31.3C246.9 32.2 247.6 32.9 248.5 32.9H253.4V35H245.4V37.7H264.6V35H264.7ZM250.2 30.2V28.3H260V30.2H250.2Z" fill="#75796D"/>
<path d="M305.8 36.7H308.9V24.7C308.9 24.4 309.1 24 309.2 23.9H305.4C305.5 24 305.7 24.5 305.7 24.7V26.9H303.1V29.6H305.7V31.2H303.1V33.9H305.7V36.7H305.8Z" fill="#75796D"/>
<path d="M169.5 29V24.8C169.5 24.5 169.7 24.1 169.8 24H166C166.1 24.1 166.3 24.6 166.3 24.8V41.3H169.4V31.6H172.5V29H169.5Z" fill="#75796D"/>
<path d="M47.7 75L42.9 84.1C50.1 88.5 60.9 88.7 60.9 88.7C76.1 88.7 83.2 80.8 83.2 71.5C83.2 63.7 78.7 58.6 68.9 54.9C61.6 52.2 58.6 50.6 58.6 47.1C58.6 44.3 61.2 41.7 66.7 41.7C69.4 41.7 71.8 42.1 73.7 42.6C73.7 42.6 78.2 44.1 80.3 40.4L83 35.2C76.8 31.5 66.8 31.4 66.8 31.4C53.8 31.4 45.8 38.6 45.8 48.1C45.8 56.2 51.9 61.3 61.1 64.6C67.8 66.9 70.4 68.9 70.4 72.3C70.4 75.9 67.4 78.3 61.6 78.3C56.3 78.4 51 76.7 47.7 75Z" fill="#007DC3"/>
<path d="M4.8 75L0 84.1C7.2 88.5 18 88.7 18 88.7C33.2 88.7 40.3 80.8 40.3 71.5C40.3 63.7 35.8 58.6 26 54.9C18.7 52.2 15.7 50.6 15.7 47.1C15.7 44.3 18.3 41.7 23.8 41.7C26.5 41.7 28.9 42.1 30.8 42.6C30.8 42.6 35.3 44.1 37.4 40.4L40.2 35.2C33.9 31.6 24 31.5 24 31.5C11 31.5 3 38.7 3 48.2C3 56.3 9.1 61.4 18.3 64.7C25 67 27.6 69 27.6 72.4C27.6 76 24.6 78.4 18.8 78.4C13.4 78.4 8.1 76.7 4.8 75Z" fill="#007DC3"/>
<path d="M102.5 82.6V51C112.8 60.2 119.9 69.8 125.5 87.9H137.6V32.5H129.7C125.4 32.5 125.6 36.4 125.6 36.4V63.4C118.7 51.6 109.7 44 102.7 39.5C95.7 35 90.3 33.4 90.1 33.4V88H97.6C97.5 87.9 102.5 87.9 102.5 82.6Z" fill="#007DC3"/>
<path d="M138.5 1.89998C122.3 -4.20002 110.5 4.89998 101.5 17.6C100.8 18.6 100.3 17.6 100.3 17.6C94.6 6.09998 82.6 3.89998 82.6 3.89998C82.6 3.89998 76.8 2.79998 73.6 4.29998C73.6 4.29998 72.1 4.99998 73.6 5.89998C73.6 5.89998 77.6 8.09998 78 12.9C78.9 24.7 86.3 29.4 89.1 29.2C89.3 29.2 89 28.6 89 28.6C85.1 19.8 91.3 15.7 94.5 18.6C98.2 22 97 26.9 96.5 28.5C96.5 28.5 96.3 28.9 96.5 28.9C100.3 28.5 104.1 26.6 110 21.8C112.9 19.5 118.7 14.2 122.2 11.1C123.6 9.59998 125.9 8.49998 124 12.2C121.5 17.1 115.5 26.4 106.3 33.7C104.9 34.8 106.9 34.8 106.9 34.8C122.2 33.7 129.4 20.8 129.4 20.8C130.8 18.6 133.4 12.9 133.4 12.9C136.1 6.89998 139.1 5.79998 139.1 5.79998C143.1 3.59998 138.5 1.89998 138.5 1.89998Z" fill="#C1D82F"/>
<path d="M169.7 78.7L167.3 81.9C164.3 80.4 162.2 77.6 161 74.1C159.7 77.8 157.6 80.8 154.3 82.4L151.8 79.2C156.6 77 158.9 71.5 158.9 66.3V62.1H162.9V66.3C162.9 71.4 165.1 76.5 169.7 78.7ZM170.9 59.9H174.9V70.9H179.1V74.3H174.9V88.4H170.9V59.9Z" fill="#087DC2"/>
<path d="M187 80.2V77.8C183.9 77.2 181.9 75.3 181.9 72.6C181.9 69.4 184.8 67.3 189 67.3C193.2 67.3 196.2 69.5 196.2 72.6C196.2 75.3 194.2 77.2 191 77.8V80.1C193.4 80 195.8 79.8 198.1 79.5L198.4 82.4C192.2 83.5 185.5 83.5 180.4 83.5L179.9 80.2C182 80.3 184.4 80.3 187 80.2ZM180.3 63H187V60H191V63H197.6V66.1H180.3V63ZM189 74.9C191 74.9 192.3 74.1 192.3 72.6C192.3 71.1 191 70.3 189 70.3C187.1 70.3 185.7 71.1 185.7 72.6C185.7 74.1 187 74.9 189 74.9ZM203.6 88.3H199.6V59.9H203.6V88.3Z" fill="#087DC2"/>
<path d="M232.8 77.2H206.9V74H217.8V71.6H210.2V60.6H214.1V63.2H225.5V60.6H229.5V71.6H221.8V74H232.8V77.2ZM209.7 79.1H229.6V88.3H225.6V82.3H209.7V79.1ZM225.5 68.4V66.1H214.1V68.4H225.5Z" fill="#087DC2"/>
<path d="M252.2 79.1L250 82.2C246.7 80.8 244.3 77.9 243.1 74.5C241.8 78.2 239.5 81.4 236.1 82.9L233.8 79.7C238.5 77.6 241 72.3 241 67.5V65.7H235V62.5H251V65.7H245V67.5C245 72.2 247.4 77.1 252.2 79.1ZM253.8 59.9H257.8V88.3H253.8V59.9Z" fill="#087DC2"/>
<path d="M294 77.7H268.1V74.5H279V72.2C273.9 71.8 270.7 69.7 270.7 66.4C270.7 62.8 274.8 60.6 281.1 60.6C287.3 60.6 291.4 62.8 291.4 66.4C291.4 69.7 288.1 71.8 283 72.3V74.6H294V77.7ZM271.2 79.5H275.2V84.6H291.1V87.8H271.2V79.5ZM281.1 69.1C285 69.1 287.3 68.2 287.3 66.4C287.3 64.7 285 63.8 281.1 63.7C277.1 63.7 274.8 64.7 274.9 66.4C274.8 68.2 277.1 69.1 281.1 69.1Z" fill="#087DC2"/>
<path d="M296.4 62.2H309.6V73.2H300.4V78.4C304.5 78.4 308 78.2 311.7 77.6L312 80.8C307.7 81.6 303.7 81.8 298.7 81.8H296.3V70.1H305.5V65.4H296.3V62.2H296.4ZM317.7 70.6H321.9V73.9H317.7V88.4H313.8V59.9H317.7V70.6Z" fill="#087DC2"/>
<path d="M330.7 61.7C335.1 61.7 338.5 64.7 338.5 68.9C338.5 73.1 335.1 76.1 330.7 76.1C326.3 76.1 322.9 73.1 322.9 68.9C322.9 64.7 326.3 61.7 330.7 61.7ZM330.7 72.6C332.9 72.6 334.5 71.2 334.5 68.8C334.5 66.5 332.8 65.1 330.7 65.1C328.5 65.1 326.8 66.5 326.8 68.8C326.7 71.2 328.4 72.6 330.7 72.6ZM327.2 78.3H331.2V84.6H347V87.8H327.2V78.3ZM346.2 80.3H342.2V59.9H346.2V80.3Z" fill="#087DC2"/>
<path d="M356.5 81.6H362V72.7H366V81.6H369.1V72.7H373V81.6H382.4V84.9H356.5V81.6ZM380.1 65.1C380.1 68.6 380.1 72.5 379 78.2L375.1 77.9C376 72.7 376.1 68.8 376.1 65.5H359.1V62.3H380.1V65.1Z" fill="#087DC2"/>
<path d="M409.6 76.3H403.3V79H406.4V88.3H402.4V82.1H386.5V79H389.8V76.3H383.7V73.1H409.6V76.3ZM396.7 60.4C403 60.4 407 62.5 407 66C407 69.5 402.9 71.6 396.7 71.6C390.4 71.6 386.3 69.5 386.3 66C386.3 62.6 390.4 60.4 396.7 60.4ZM396.7 68.6C400.6 68.6 402.9 67.8 402.9 66.1C402.9 64.5 400.6 63.6 396.7 63.6C392.7 63.6 390.4 64.5 390.5 66.1C390.4 67.7 392.7 68.6 396.7 68.6ZM399.4 79V76.3H393.8V79H399.4Z" fill="#087DC2"/>
<path d="M434.8 80.7H430.8V73.9H424.3C422.9 75.4 421 76.2 418.7 76.2C414.4 76.2 411.1 73.1 411.1 68.9C411.1 64.6 414.4 61.5 418.7 61.5C420.9 61.5 422.9 62.4 424.2 63.8H430.7V59.8H434.7V80.7H434.8ZM418.8 72.7C420.9 72.7 422.5 71.3 422.5 68.9C422.5 66.5 420.9 65.1 418.8 65.1C416.6 65.1 415 66.5 415 68.9C415 71.3 416.6 72.7 418.8 72.7ZM416 78.6H420V84.6H435.6V87.8H416V78.6ZM426.3 68.9C426.3 69.5 426.2 70.1 426.1 70.7H430.9V67H426.1C426.2 67.6 426.3 68.3 426.3 68.9Z" fill="#087DC2"/>
<path d="M438 75.3H464V78.6H452.9V88.3H449V78.6H438V75.3ZM463.1 70L461.5 73.2C456.5 72.5 452.9 70.2 451 67.1C449.1 70.2 445.5 72.5 440.6 73.2L439 70C445.5 69.2 448.9 65.5 448.9 62.1V60.7H453.1V62.1C453.1 65.4 456.6 69.1 463.1 70Z" fill="#087DC2"/>
<path d="M483.4 71.6L483.6 74.4C481.3 74.8 479 75 476.7 75.2V80.6H472.7V84.5H489.9V87.7H468.7V79.2H472.7V75.4C470.2 75.5 467.7 75.5 465.6 75.5L465.1 72.3C470.3 72.5 477.4 72.4 483.4 71.6ZM474.4 60.9C478.5 60.9 481.5 63 481.5 66C481.5 69 478.5 71 474.4 71C470.2 71 467.2 69 467.2 66C467.2 62.9 470.1 60.8 474.4 60.9ZM474.4 68.1C476.3 68.1 477.7 67.3 477.7 66C477.7 64.6 476.3 63.8 474.4 63.8C472.4 63.8 471 64.6 471 66C471 67.3 472.3 68.1 474.4 68.1ZM489.3 81.4H485.3V79.1H479.9V76.4H485.3V59.9H489.3V81.4Z" fill="#087DC2"/>
</g>
<defs>
<clipPath id="clip0_1_2656">
<rect width="489.9" height="88.7" fill="white"/>
</clipPath>
</defs>
</svg>
